<svg version="1.1" viewBox="0 0 24 24" xmlns="http://www.w3.org/2000/svg" xmlns:cc="http://creativecommons.org/ns#" xmlns:dc="http://purl.org/dc/elements/1.1/" xmlns:rdf="http://www.w3.org/1999/02/22-rdf-syntax-ns#"><title>Andorian Face</title><path d="m1.5287 0.0016907c-0.20229 0.0112-0.35267 0.0762-0.41992 0.19801-0.10927 0.19748-0.0843 0.73034 0.12539 1.2132-0.19975 0.3513-0.49851 0.87487-0.85267 1.4897-0.40733 0.70612-0.85044 2.0981 0.75944 3.4863 0.37621 0.32391 0.81622 0.70588 1.1316 0.98012-0.79156 1.3475-1.2762 2.8363-1.2762 4.3899 0 5.351 2.3639 7.2812 3.4997 8.2092 0.1448 0.11813 0.26997 0.22024 0.33986 0.29013 0.17293 0.17293 0.40347 0.26394 0.63716 0.26394 0.0711 0 0.14222-0.01 0.21234-0.0264 1.8688 2.2816 5.1114 3.3446 6.3151 3.3446 1.2102 0 4.47-1.0626 6.3493-3.343 0.21954 0.0507 0.45413 0.0197 0.65569-0.0979 1.2083-0.70566 4.0189-2.9593 4.0189-8.6407 0-1.6576-0.43792-3.1716-1.1629-4.5062 0.29909-0.25982 0.67253-0.58359 0.99821-0.86405 1.6093-1.3877 1.166-2.7796 0.75912-3.4852v-6e-5c-0.35412-0.61486-0.65282-1.1384-0.85259-1.4898 0.20986-0.48295 0.23484-1.0161 0.12539-1.2137-0.17934-0.32491-0.94982-0.24542-1.7191 0.17942-0.77047 0.42484-1.2484 1.0329-1.07 1.3586 0.1097 0.19696 0.54671 0.47508 1.0456 0.56727 0.20117 0.35399 0.50659 0.88954 0.86994 1.5206 0.13807 0.23923 0.32711 0.56678-0.36456 1.1632-0.26401 0.22742-0.55937 0.48327-0.82154 0.71083-2.3154-2.9228-6.0094-4.6562-8.7954-4.6562l6e-5 2.1e-4c-2.6722 0-6.3374 1.9305-8.6975 4.8044-0.29875-0.2596-0.6689-0.58059-0.99199-0.85883-0.69189-0.59682-0.50294-0.92443-0.3648-1.1641 0.3632-0.63071 0.66858-1.1661 0.86977-1.52 0.49912-0.0921 0.93633-0.37032 1.0461-0.56736 0.17872-0.32569-0.29951-0.93379-1.07-1.3586-0.48095-0.26553-0.96227-0.39614-1.2994-0.37744zm10.508 2.8426c3.699 0 9.1865 3.743 9.1865 8.9139-2.4e-4 2.6485-0.68014 4.3757-1.4444 5.4811l-2e-5 -2.9e-4c0.17559-1.5633 0.29303-3.3328 0.0896-4.5152-0.44523-2.5816-2.1671-5.368-4.173-5.368-0.79236 0-1.3904 0.72191-2.2182 1.7213-0.39988 0.483-1.1319 1.3666-1.4773 1.5078-0.3533-0.14167-1.1038-1.0433-1.514-1.5362-0.81848-0.98304-1.4098-1.6932-2.1806-1.6932-1.6456 0-3.6664 2.0162-4.2002 5.3902-0.20483 1.296-0.08 2.7984 0.12413 4.4023-0.7546-1.0395-1.4316-2.6665-1.4316-5.3898 0-4.5967 5.7637-8.9139 9.2389-8.9139zm-3.8577 6.331c0.22626 0.18975 0.63837 0.68445 0.92277 1.026 0.89798 1.0788 1.8267 2.1942 2.8988 2.1942 1.0669 0 1.9805-1.1029 2.864-2.1693 0.28967-0.3497 0.70926-0.85622 0.94098-1.0471 0.49113 0.16191 1.8371 1.2367 2.2878 3.8505 0.20584 1.1975-0.0202 3.4096-0.22894 5.0068-0.98328 2.8822-5.1562 4.1403-5.864 4.1403h-6e-5c-0.98225 0-4.9357-1.4026-5.8433-4.208-0.25768-1.8661-0.48175-3.6184-0.27262-4.9413 0.39896-2.5216 1.6971-3.6948 2.2944-3.8521zm0.58861 3.7348c-0.74623 0-1.3512 0.60496-1.3512 1.3512s0.60496 1.3512 1.3512 1.3512 1.3512-0.60496 1.3512-1.3512-0.60499-1.3512-1.3512-1.3512zm6.4658 0c-0.74623 0-1.3512 0.60496-1.3512 1.3512s0.60496 1.3512 1.3512 1.3512 1.3512-0.60496 1.3512-1.3512-0.60496-1.3512-1.3512-1.3512z" stroke-width=".020014"/><metadata><rdf:RDF><cc:Work rdf:about=""><dc:creator><cc:Agent><dc:title>https://github.com/adejong5</dc:title></cc:Agent></dc:creator><dc:title>androrian-face</dc:title><cc:license rdf:resource="http://creativecommons.org/licenses/by-sa/4.0/"/></cc:Work><cc:License rdf:about="http://creativecommons.org/licenses/by-sa/4.0/"><cc:permits rdf:resource="http://creativecommons.org/ns#Reproduction"/><cc:permits rdf:resource="http://creativecommons.org/ns#Distribution"/><cc:requires rdf:resource="http://creativecommons.org/ns#Notice"/><cc:requires rdf:resource="http://creativecommons.org/ns#Attribution"/><cc:permits rdf:resource="http://creativecommons.org/ns#DerivativeWorks"/><cc:requires rdf:resource="http://creativecommons.org/ns#ShareAlike"/></cc:License></rdf:RDF></metadata></svg>
