<svg width="24mm" height="24mm" version="1.1" viewBox="0 0 24 24" xmlns="http://www.w3.org/2000/svg" xmlns:cc="http://creativecommons.org/ns#" xmlns:dc="http://purl.org/dc/elements/1.1/" xmlns:rdf="http://www.w3.org/1999/02/22-rdf-syntax-ns#"><title>androrian</title><g transform="translate(-86.617,-157.2)"><path d="m97.173 162.89a7.2197 6.296 0 0 0-7.1996 5.8256 1.704 1.6323 0 0 0-1.6524-1.2337 1.704 1.6323 0 0 0-1.7041 1.6323 1.704 1.6323 0 0 0 1.7041 1.6323 1.704 1.6323 0 0 0 1.6439-1.2027 7.2197 6.296 0 0 0 7.2081 5.9382 7.2197 6.296 0 0 0 7.2164-6.1053 3.1211 2.5292 0 0 0 3.1065 2.2846 3.1211 2.5292 0 0 0 3.121-2.5292 3.1211 2.5292 0 0 0-3.121-2.5292 3.1211 2.5292 0 0 0-3.1098 2.3139 7.2197 6.296 0 0 0-7.2131-6.0268zm2.6872 2.4449a4.3758 3.7797 0 0 1 4.3578 3.4487 1.9557 1.7374 0 0 0-1.9192-1.4066 1.9557 1.7374 0 0 0-1.9448 1.5546 0.30045 0.29148 0 0 1 0.25291-0.13413 0.30045 0.29148 0 0 1 0.3005 0.29154 0.30045 0.29148 0 0 1-0.3005 0.29144 0.30045 0.29148 0 0 1-0.25889-0.14351 1.9557 1.7374 0 0 0 1.9507 1.6148 1.9557 1.7374 0 0 0 1.9208-1.411 4.3758 3.7797 0 0 1-4.3595 3.4535 4.3758 3.7797 0 0 1-4.3721-3.6267 0.7634 0.6593 0 0 0 0.70113 0.39857 0.7634 0.6593 0 0 0 0.76335-0.65931 0.7634 0.6593 0 0 0-0.76335-0.6593 0.7634 0.6593 0 0 0-0.67332 0.35087 4.3758 3.7797 0 0 1 4.3443-3.3635zm8.4726 2.1054a2.1055 1.7123 0 0 1 2.1055 1.7122 2.1055 1.7123 0 0 1-2.1055 1.7123 2.1055 1.7123 0 0 1-2.1051-1.6825 0.30045 0.29148 0 0 0 0.29421 0.23251 0.30045 0.29148 0 0 0 0.29947-0.2766 0.30045 0.29148 0 0 0 0.29865 0.26392 0.30045 0.29148 0 0 0 0.3004-0.29153 0.30045 0.29148 0 0 0-0.3004-0.29144 0.30045 0.29148 0 0 0-0.29947 0.2765 0.30045 0.29148 0 0 0-0.29865-0.26382 0.30045 0.29148 0 0 0-0.29071 0.21808 2.1055 1.7123 0 0 1 2.1016-1.6097zm-16.451 0.10436a1.8386 1.5247 0 0 1 1.8386 1.5246 1.8386 1.5247 0 0 1-1.8386 1.5246 1.8386 1.5247 0 0 1-1.8343-1.4217 0.30045 0.29148 0 0 0 0.28278 0.19305 0.30045 0.29148 0 0 0 0.29978-0.28196 0.30045 0.29148 0 0 0 0.29906 0.27217 0.30045 0.29148 0 0 0 0.3005-0.29143 0.30045 0.29148 0 0 0-0.3005-0.29143 0.30045 0.29148 0 0 0-0.29978 0.28185 0.30045 0.29148 0 0 0-0.29906-0.27217 0.30045 0.29148 0 0 0-0.28371 0.19542 1.8386 1.5247 0 0 1 1.8352-1.4331zm2.6279 0.8161a0.78924 0.65471 0 0 1 0.78921 0.65467 0.78924 0.65471 0 0 1-0.78921 0.65477 0.78924 0.65471 0 0 1-0.78921-0.65477 0.78924 0.65471 0 0 1 0.78921-0.65467zm4.4266 1e-3a0.89023 0.68467 0 0 0-0.82774 0.43267 0.30045 0.29148 0 0 0-0.12568-0.0268 0.30045 0.29148 0 0 0-0.27382 0.17245 0.30045 0.29148 0 0 0-0.27268-0.17039 0.30045 0.29148 0 0 0-0.3005 0.29143 0.30045 0.29148 0 0 0 0.3005 0.29144 0.30045 0.29148 0 0 0 0.27372-0.17235 0.30045 0.29148 0 0 0 0.27279 0.17039 0.30045 0.29148 0 0 0 0.1366-0.0319 0.89023 0.68467 0 0 0 0.81682 0.41247 0.89023 0.68467 0 0 0 0.89017-0.68475 0.89023 0.68467 0 0 0-0.89017-0.68465zm6.2387 0.0802a0.79906 0.65954 0 0 1 0.799 0.65951 0.79906 0.65954 0 0 1-0.799 0.65951 0.79906 0.65954 0 0 1-0.7991-0.65951 0.79906 0.65954 0 0 1 0.7991-0.65951zm3.7774 0.0298a0.90583 0.64798 0 0 0-0.88698 0.51653 0.30045 0.29148 0 0 0-0.27206-0.16782 0.30045 0.29148 0 0 0-0.3005 0.29144 0.30045 0.29148 0 0 0 0.3005 0.29154 0.30045 0.29148 0 0 0 0.26928-0.16226 0.90583 0.64798 0 0 0 0.88976 0.52652 0.90583 0.64798 0 0 0 0.85875-0.44173 0.30045 0.29148 0 0 0 0.18038 0.0584 0.30045 0.29148 0 0 0 0.3005-0.29144 0.30045 0.29148 0 0 0-0.3005-0.29153 0.30045 0.29148 0 0 0-0.20006 0.0741 0.90583 0.64798 0 0 0-0.83907-0.40372zm-19.627 0.0232a0.61883 0.55605 0 0 1 0.61882 0.55609 0.61883 0.55605 0 0 1-0.61882 0.55597 0.61883 0.55605 0 0 1-0.61882-0.55597 0.61883 0.55605 0 0 1 0.61882-0.55609zm5.6541 0.23241a0.30045 0.29148 0 0 0-0.3005 0.29153 0.30045 0.29148 0 0 0 0.3005 0.29144 0.30045 0.29148 0 0 0 0.3004-0.29144 0.30045 0.29148 0 0 0-0.3004-0.29153zm-2.3769 0.0404a0.30045 0.29148 0 0 0-0.3005 0.29143 0.30045 0.29148 0 0 0 0.3005 0.29154 0.30045 0.29148 0 0 0 0.3004-0.29154 0.30045 0.29148 0 0 0-0.3004-0.29143zm0.63294 0a0.30045 0.29148 0 0 0-0.3005 0.29143 0.30045 0.29148 0 0 0 0.3005 0.29154 0.30045 0.29148 0 0 0 0.3004-0.29154 0.30045 0.29148 0 0 0-0.3004-0.29143zm10.753 0.0127a0.30045 0.29148 0 0 1 0.3004 0.29153 0.30045 0.29148 0 0 1-0.3004 0.29144 0.30045 0.29148 0 0 1-0.3005-0.29144 0.30045 0.29148 0 0 1 0.3005-0.29153zm-2.7554 0.0124a0.30045 0.29148 0 0 1 0.30039 0.29153 0.30045 0.29148 0 0 1-0.30039 0.29144 0.30045 0.29148 0 0 1-0.3005-0.29144 0.30045 0.29148 0 0 1 0.3005-0.29153zm-12.859 0.025a0.23318 0.24215 0 0 1 0.23313 0.24219 0.23318 0.24215 0 0 1-0.23313 0.24209 0.23318 0.24215 0 0 1-0.23323-0.24209 0.23318 0.24215 0 0 1 0.23323-0.24219z" stroke-width=".15823"/></g><metadata><rdf:RDF><cc:Work rdf:about=""><dc:creator><cc:Agent><dc:title>https://github.com/adejong5</dc:title></cc:Agent></dc:creator><dc:title>androrian-empire</dc:title><cc:license rdf:resource="http://creativecommons.org/licenses/by-sa/4.0/"/></cc:Work><cc:License rdf:about="http://creativecommons.org/licenses/by-sa/4.0/"><cc:permits rdf:resource="http://creativecommons.org/ns#Reproduction"/><cc:permits rdf:resource="http://creativecommons.org/ns#Distribution"/><cc:requires rdf:resource="http://creativecommons.org/ns#Notice"/><cc:requires rdf:resource="http://creativecommons.org/ns#Attribution"/><cc:permits rdf:resource="http://creativecommons.org/ns#DerivativeWorks"/><cc:requires rdf:resource="http://creativecommons.org/ns#ShareAlike"/></cc:License></rdf:RDF></metadata></svg>
