<?xml version="1.0" encoding="UTF-8"?>
<!-- Created with Inkscape (http://www.inkscape.org/) -->
<svg width="24mm" height="24mm" version="1.1" viewBox="0 0 24 24" xml:space="preserve" xmlns="http://www.w3.org/2000/svg" xmlns:cc="http://creativecommons.org/ns#" xmlns:dc="http://purl.org/dc/elements/1.1/" xmlns:rdf="http://www.w3.org/1999/02/22-rdf-syntax-ns#"><title>bejoran</title><g transform="translate(-87.876 -115.17)"><path d="m99.639 115.17v0.64659h-0.38258v0.28366h-0.34306v7.923l0.34306 0.34305v7.8603c-0.86571 0.18781-1.6006 0.63723-2.1432 1.4714-0.81088-2.0975-1.5856-6.6152 1.5534-9.9011v-7.4707c-1.8891 0.80299-5.1319 5.0201-5.0929 12.072-0.03911 2.6403 1.5251 10.792 6.5073 10.772 4.4711-0.0175 6.2098-7.8881 6.221-10.77-0.0307-8.0865-3.5938-11.39-5.0797-12.017v7.4744c3.1768 3.4785 2.1716 7.7815 1.5446 9.8607-0.52775-0.71357-1.1562-1.3216-2.2018-1.4926v-7.8403l0.37799-0.37799v-7.921h-0.3674v-0.27045h-0.32318v-0.64659zm0.30026 17.817a2.5597 2.5597 0 0 1 0.48958 0.0473c-1e-3 7.7e-4 -3e-3 2e-3 -4e-3 2e-3 -0.10905 0.0578-0.20774 0.16591-0.28388 0.37636-0.0438 0.12114-0.0211 0.26924 0.0251 0.43204 0.0462 0.16279 0.11893 0.34129 0.18943 0.51829s0.13904 0.35248 0.17786 0.50465c0.0388 0.15217 0.0448 0.27868 8e-3 0.35703-0.0719 0.15236-0.18094 0.22085-0.28671 0.252-0.0109 8e-3 -0.0218 0.016-0.0328 0.0233 0.12192-0.0807 0.24841-0.22573 0.25964-0.45726 6e-3 -0.1308-0.0644-0.26146-0.16465-0.39535-0.10022-0.1339-0.2334-0.27175-0.36653-0.40857-0.13313-0.13681-0.26647-0.27281-0.36598-0.39863-0.09951-0.12582-0.16191-0.24193-0.16585-0.32842-0.0094-0.20679 0.0321-0.3093 0.09401-0.38422 0.0391-0.0473 0.08992-0.0843 0.14543-0.12512a2.5597 2.5597 0 0 1 0.28191-0.0156zm-0.48456 0.0463c-0.0082 9e-3 -0.01618 0.0177-0.02402 0.0272-0.07862 0.0951-0.12866 0.23281-0.11846 0.45638 0.0059 0.12869 0.08358 0.25641 0.18856 0.38913 0.10498 0.13273 0.24021 0.26995 0.37308 0.40649 0.13287 0.13655 0.26369 0.27246 0.35779 0.39819 0.0941 0.12574 0.14821 0.2408 0.14402 0.32734-8e-3 0.17305-0.0873 0.27868-0.17623 0.34775 0.0752-0.12088 0.12655-0.29534 0.0524-0.50214-0.0442-0.12327-0.15992-0.21676-0.30374-0.30211-0.14382-0.0853-0.31936-0.1618-0.49471-0.23726-0.17535-0.0754-0.35058-0.15003-0.49067-0.22819-0.14009-0.0782-0.24222-0.16137-0.27896-0.23977-0.08784-0.18744-0.08836-0.29829-0.05983-0.3912 0.01992-0.0649 0.05789-0.12344 0.09783-0.18998a2.5597 2.5597 0 0 1 0.73295-0.26182zm1.1647 0.0457a2.5597 2.5597 0 0 1 0.749 0.34403c-0.0114 3.4e-4 -0.0228 1e-3 -0.0345 2e-3 -0.12287 0.0117-0.25561 0.0737-0.40649 0.239-0.0868 0.0952-0.12188 0.24038-0.1415 0.40846-0.0196 0.16808-0.0214 0.36087-0.024 0.55137-3e-3 0.19051-6e-3 0.3789-0.0284 0.53435-0.0224 0.15544-0.0654 0.27478-0.1296 0.33301-0.14792 0.13423-0.2989 0.13922-0.42047 0.11311-5e-3 -1e-3 -9e-3 -2e-3 -0.014-3e-3 0.0148-2e-3 0.0299-4e-3 0.0453-7e-3 0.14485-0.0265 0.32081-0.11136 0.42134-0.32427 0.0559-0.11842 0.0405-0.26671-8.7e-4 -0.42877-0.0413-0.16205-0.1117-0.34018-0.18234-0.51752-0.0706-0.17735-0.14149-0.3536-0.18528-0.50793-0.0438-0.15432-0.0575-0.28587-0.0281-0.36729 0.0704-0.19465 0.14844-0.27351 0.23431-0.31903 0.0442-0.0234 0.0929-0.0375 0.14554-0.0508zm-2.0776 0.32318c-7e-3 0.0167-0.01334 0.0339-0.01889 0.052-0.03622 0.11799-0.02979 0.264 0.06518 0.46665 0.05467 0.11665 0.1753 0.20525 0.32307 0.2877 0.14778 0.0824 0.3256 0.15736 0.50061 0.23267 0.17501 0.0753 0.34732 0.15099 0.48237 0.23114 0.13506 0.0802 0.22909 0.1652 0.25833 0.24676 0.0615 0.17145 0.023 0.3044-0.0379 0.40408-4.7e-4 2e-3 -1e-3 5e-3 -2e-3 7e-3 0.0306-0.14387 0.0194-0.33881-0.13844-0.51272-0.08801-0.097-0.23058-0.1392-0.39612-0.16302-0.16554-0.0238-0.35712-0.0271-0.54799-0.0297-0.19088-3e-3 -0.38134-4e-3 -0.54068-0.023-0.15934-0.0186-0.28555-0.0564-0.3495-0.11475-0.15289-0.13956-0.19584-0.24161-0.20505-0.33836-0.0065-0.0687 0.0067-0.13874 0.01823-0.21717a2.5597 2.5597 0 0 1 0.58828-0.52932zm2.8483 0.12665c0.0462 7.6e-4 0.0936 8e-3 0.14434 0.0158a2.5597 2.5597 0 0 1 0.52343 0.56536c-5e-3 -2e-3 -0.01-3e-3 -0.0145-5e-3 -0.0442-0.0136-0.0924-0.0212-0.14609-0.0203-0.0894 1e-3 -0.19402 0.0261-0.32067 0.0855-0.11665 0.0547-0.20514 0.1753-0.28759 0.32308-0.0825 0.14778-0.15748 0.32516-0.23278 0.50017-0.0753 0.175-0.15089 0.34775-0.23103 0.48281-0.0802 0.13505-0.16564 0.22909-0.2472 0.25833-0.15119 0.0542-0.27182 0.0299-0.36663-0.0182 0.13728 0.0181 0.30859-6e-3 0.46359-0.14685 0.097-0.088 0.13919-0.23102 0.16301-0.39656 0.0238-0.16554 0.0271-0.35667 0.0297-0.54755 3e-3 -0.19088 4e-3 -0.38123 0.0231-0.54057 0.0186-0.15934 0.0567-0.28598 0.11508-0.34993 0.13955-0.15289 0.24161-0.19552 0.33836-0.20472 0.0152-1e-3 0.0305-2e-3 0.0459-2e-3zm-3.5624 0.57125c-1.78e-4 0.0191 5.08e-4 0.0385 0.0024 0.0584 0.01169 0.12287 0.0736 0.25561 0.23889 0.40649 0.09514 0.0868 0.24092 0.12232 0.409 0.14194 0.16808 0.0196 0.36076 0.021 0.55127 0.0236 0.1905 3e-3 0.37857 6e-3 0.53402 0.0288 0.15545 0.0224 0.27522 0.065 0.33345 0.12916 0.11893 0.13107 0.13628 0.26459 0.12053 0.37789-0.03132-0.13987-0.11823-0.30263-0.31947-0.39765-0.11842-0.0559-0.26627-0.04-0.42833 1e-3 -0.16205 0.0413-0.34051 0.11126-0.51786 0.1819-0.17734 0.0706-0.35371 0.14193-0.50803 0.18572-0.15432 0.0438-0.28544 0.0571-0.36686 0.0276-0.19465-0.0704-0.27351-0.14812-0.31903-0.23398-0.03427-0.0646-0.04853-0.13898-0.06966-0.22132a2.5597 2.5597 0 0 1 0.33967-0.70991zm4.0695 0.0893c0.043-6.2e-4 0.0803 6e-3 0.11519 0.0166 0.0522 0.016 0.1003 0.0437 0.15176 0.0747a2.5597 2.5597 0 0 1 0.27722 0.72531c-7e-5 -6e-5 -1.5e-4 -1.6e-4 -2.2e-4 -2.2e-4 -0.0951-0.0786-0.23282-0.12866-0.45639-0.11847-0.12869 6e-3 -0.2564 0.084-0.38913 0.189-0.13272 0.10498-0.26994 0.24021-0.40649 0.37308-0.13654 0.13287-0.27246 0.26326-0.39819 0.35736s-0.24025 0.14821-0.32679 0.14401c-0.16036-8e-3 -0.26274-0.076-0.33202-0.15668 0.11976 0.0683 0.28634 0.11037 0.48182 0.0403 0.12328-0.0442 0.21665-0.15992 0.30201-0.30375 0.0853-0.14382 0.1618-0.31936 0.23725-0.49471 0.0755-0.17535 0.15014-0.35058 0.2283-0.49067 0.0782-0.14009 0.16126-0.24222 0.23966-0.27896 0.11715-0.0549 0.20439-0.0758 0.27602-0.0769zm-2.3954 0.75064c0.06052-2e-3 0.11183 6e-3 0.151 0.0245 0.15778 0.0745 0.22524 0.18883 0.25472 0.29807-0.08183-0.11906-0.22533-0.23962-0.45115-0.25058-0.13081-6e-3 -0.2619 0.0644-0.39579 0.16465-0.1339 0.10021-0.27121 0.23329-0.40802 0.36642-0.13681 0.13313-0.27281 0.26647-0.39863 0.36598-0.12582 0.0995-0.24204 0.16201-0.32853 0.16596-0.20679 9e-3 -0.3093-0.0322-0.38422-0.0941-0.05614-0.0464-0.09773-0.10921-0.14849-0.17688a2.5597 2.5597 0 0 1-0.01299-0.25746 2.5597 2.5597 0 0 1 0.05558-0.53052c0.0082 0.0215 0.01777 0.043 0.02915 0.0644 0.05782 0.10905 0.16546 0.20817 0.37592 0.28431 0.12114 0.0438 0.26935 0.0207 0.43215-0.0256 0.16279-0.0462 0.3413-0.11849 0.51829-0.18899 0.177-0.0705 0.35248-0.13904 0.50465-0.17786 0.07609-0.0194 0.14583-0.0306 0.20636-0.0323zm2.488 0.053c0.20678-9e-3 0.30918 0.0325 0.3841 0.0944 0.0381 0.0315 0.0696 0.0705 0.10176 0.11344a2.5597 2.5597 0 0 1 0.0235 0.34567 2.5597 2.5597 0 0 1-0.0403 0.45268c-7.7e-4 -1e-3 -2e-3 -3e-3 -2e-3 -4e-3 -0.0578-0.10904-0.1659-0.20817-0.37635-0.28431-0.12114-0.0438-0.26881-0.0206-0.43161 0.0256-0.16279 0.0462-0.34173 0.1185-0.51873 0.18899-0.17699 0.0705-0.35214 0.13904-0.50431 0.17786-0.15218 0.0388-0.27902 0.0449-0.35736 8e-3 -0.15737-0.0743-0.22515-0.18813-0.25484-0.29708 0.0827 0.11644 0.22474 0.232 0.44558 0.24271 0.13081 6e-3 0.26179-0.0648 0.39568-0.16498 0.1339-0.10021 0.27132-0.2334 0.40813-0.36652 0.13681-0.13313 0.27281-0.26647 0.39863-0.36599 0.12582-0.0995 0.24204-0.1619 0.32853-0.16585zm-2.5387 0.12415c0.17562 9e-3 0.28228 0.0897 0.35135 0.18026-0.05609-0.0349-0.12384-0.0646-0.20079-0.079-0.02225-4e-3 -0.04525-7e-3 -0.069-8e-3 -0.01782-1e-3 -0.03608-1e-3 -0.0547-4.4e-4v-1.1e-4c-0.05586 2e-3 -0.1152 0.0134-0.17753 0.0357-0.12328 0.0442-0.21708 0.15992-0.30244 0.30375-0.08535 0.14382-0.1618 0.31936-0.23726 0.49471-0.07545 0.17534-0.14971 0.35058-0.22787 0.49067-0.07816 0.14009-0.1617 0.24222-0.24009 0.27896-0.18744 0.0878-0.2983 0.0884-0.3912 0.0598-0.07316-0.0225-0.13836-0.0678-0.21596-0.11311a2.5597 2.5597 0 0 1-0.2628-0.74583c0.01569 0.0166 0.03262 0.0327 0.05121 0.048 0.09515 0.0786 0.23282 0.12865 0.45639 0.11846 0.12869-6e-3 0.2564-0.0836 0.38913-0.18856 0.13272-0.10498 0.26994-0.24021 0.40649-0.37308 0.13655-0.13286 0.27257-0.26369 0.3983-0.35779 0.12573-0.0941 0.24025-0.14821 0.32679-0.14401zm0.35823 0.18462c0.0063 4e-3 0.01255 8e-3 0.01856 0.0122 0.02333 0.0161 0.04461 0.0331 0.06376 0.0498-0.01916-0.0167-0.04042-0.0336-0.06376-0.0497-6e-3 -4e-3 -0.01222-8e-3 -0.01856-0.0123zm-0.29163 0.0119c0.09168 3e-3 0.16815 0.0345 0.23103 0.0745 0.0043 8.4e-4 0.0085 2e-3 0.01266 3e-3 -0.03599-8e-3 -0.07519-0.0128-0.1165-0.0137-0.04131-8.5e-4 -0.08476 3e-3 -0.12906 0.012-0.08859 0.0187-0.18097 0.0607-0.26815 0.13986-0.09698 0.088-0.13919 0.23102-0.16301 0.39656-0.02382 0.16554-0.02709 0.35679-0.0297 0.54766-0.0026 0.19088-0.0045 0.38124-0.02315 0.54057-0.0186 0.15934-0.05638 0.28555-0.11475 0.3495-0.13956 0.15288-0.24161 0.19595-0.33836 0.20515-0.07409 7e-3 -0.1496-9e-3 -0.23562-0.0208a2.5597 2.5597 0 0 1-0.54745-0.60247c0.02363 0.011 0.04841 0.0209 0.0749 0.029 0.11799 0.0362 0.26454 0.0298 0.4672-0.0652 0.11664-0.0547 0.2047-0.17574 0.28715-0.32352 0.08245-0.14777 0.15791-0.32516 0.23322-0.50016 0.07531-0.17501 0.15045-0.34732 0.2306-0.48238 0.08015-0.13505 0.16563-0.22909 0.24719-0.25833 0.06627-0.0238 0.12678-0.0325 0.18179-0.0309zm0.68109 0.0728c-0.0133 0.0103-0.0269 0.0198-0.0404 0.0286 0.0136-9e-3 0.0271-0.0183 0.0404-0.0286zm-0.25614 0.0262h1.09e-4c0.01483 0.0156 0.02744 0.0301 0.03778 0.0428s0.01843 0.0235 0.02412 0.0314h-1e-4c-0.0057-8e-3 -0.01368-0.0188-0.02402-0.0314-0.01034-0.0127-0.02306-0.0272-0.03789-0.0428zm0.16912 0.0295c-6e-3 3e-3 -0.0117 6e-3 -0.0177 9e-3 6e-3 -3e-3 0.0116-5e-3 0.0177-9e-3zm-0.15635 0.0227v1.1e-4h-2.18e-4c1.31e-4 -4e-5 2.18e-4 -1.1e-4 2.18e-4 -1.1e-4zm-0.3341 0.0166c0.01358-1.9e-4 0.02691 2.8e-4 0.04007 1e-3 -0.13187 0.0371-0.27727 0.12549-0.365 0.31128-0.05592 0.11842-0.04016 0.26628 0.0012 0.42833 0.04134 0.16206 0.11137 0.34008 0.18201 0.51742 0.07064 0.17735 0.14193 0.35414 0.18572 0.50847 0.04379 0.15432 0.05708 0.28544 0.02762 0.36685-0.07043 0.19466-0.14855 0.27341-0.23442 0.31893-0.06679 0.0354-0.14365 0.0495-0.22918 0.0718a2.5597 2.5597 0 0 1-0.71067-0.3298c0.02276 6.2e-4 0.04606 9e-5 0.06999-2e-3 0.12287-0.0117 0.25561-0.0736 0.40649-0.2389 0.08684-0.0951 0.12232-0.24048 0.14194-0.40856s0.02087-0.36076 0.02347-0.55127c0.0026-0.1905 0.0066-0.37901 0.02893-0.53445 0.02236-0.15545 0.065-0.27479 0.12916-0.33301 0.10304-0.0935 0.20762-0.12454 0.30266-0.12589zm0.28879 0.0197h1.09e-4l0.04367 0.0309-0.04378-0.0308zm0.04837 0.034v1.1e-4l-0.06125 0.0107v-1.1e-4zm-0.0547 0.0398v1.1e-4l-0.0041 3e-3v-1.1e-4zm-0.22459 0.0122c-0.11355 0.0835-0.22385 0.22392-0.23431 0.43946-0.0063 0.13081 0.06487 0.2619 0.16509 0.39579 0.10021 0.1339 0.23286 0.27176 0.36598 0.40857 0.13313 0.13681 0.26657 0.27237 0.36609 0.39819 0.0995 0.12582 0.16234 0.24193 0.16629 0.32842 9e-3 0.20679-0.0325 0.30974-0.0944 0.38466-0.0459 0.0555-0.10782 0.0966-0.17459 0.14641a2.5597 2.5597 0 0 1-0.29981 0.0176 2.5597 2.5597 0 0 1-0.4982-0.0489c0.02225-8e-3 0.04458-0.0182 0.06682-0.03 0.10904-0.0578 0.20817-0.1659 0.28431-0.37635 0.04382-0.12114 0.02054-0.26892-0.02566-0.43172-0.0462-0.16279-0.1185-0.34129-0.189-0.51829s-0.13904-0.35247-0.17786-0.50464c-0.03882-0.15217-0.04475-0.27902-0.0078-0.35736 0.07203-0.15253 0.18119-0.22076 0.28704-0.25178zm0.06322 0.0845c-0.0011 2e-3 -0.0022 3e-3 -0.0033 5e-3 -0.08366 0.12119-0.14792 0.30572-0.06846 0.52736 0.04419 0.12328 0.15982 0.21708 0.30364 0.30244 0.14382 0.0853 0.31947 0.1618 0.49482 0.23725 0.17535 0.0755 0.35014 0.14971 0.49023 0.22787 0.14009 0.0782 0.24266 0.16169 0.2794 0.24009 0.0878 0.18744 0.0884 0.2983 0.0598 0.39121-0.017 0.0554-0.0472 0.10632-0.0806 0.16148a2.5597 2.5597 0 0 1-0.76396 0.28988c0.0141-0.0138 0.0279-0.0285 0.041-0.0444 0.0786-0.0951 0.12866-0.23282 0.11847-0.45639-6e-3 -0.12869-0.0836-0.25685-0.18856-0.38957-0.10498-0.13272-0.24022-0.26994-0.37308-0.40649-0.13287-0.13654-0.26326-0.27246-0.35736-0.39819-0.0941-0.12573-0.14821-0.24025-0.14401-0.32679 0.0089-0.18341 0.09661-0.29168 0.19184-0.36041zm0.41555 0.0145c0.0146 0.01 0.0302 0.0185 0.0463 0.027-0.0161-8e-3 -0.0317-0.0174-0.0463-0.027zm-0.0714 0.0475c0.0115 0.0178 0.0248 0.0355 0.0391 0.0527-0.0143-0.0173-0.0276-0.0349-0.0391-0.0527zm-0.27973 0.0111c-0.03092 0.14398-0.02 0.33902 0.13823 0.51338 0.08801 0.097 0.23058 0.13919 0.39612 0.16301 0.16554 0.0238 0.35722 0.0275 0.5481 0.0301 0.19087 3e-3 0.38123 4e-3 0.54056 0.0226 0.15934 0.0186 0.28555 0.0568 0.3495 0.11519 0.15289 0.13955 0.19585 0.24161 0.20505 0.33836 5e-3 0.0559-2e-3 0.11262-0.0117 0.17404a2.5597 2.5597 0 0 1-0.57955 0.55181c2e-3 -7e-3 5e-3 -0.0131 7e-3 -0.0198 0.0362-0.11799 0.0298-0.26455-0.0652-0.4672-0.0547-0.11664-0.17573-0.2047-0.32351-0.28715-0.14778-0.0824-0.32516-0.15747-0.50017-0.23278-0.17501-0.0753-0.34775-0.15088-0.48281-0.23103-0.13505-0.0802-0.22876-0.16564-0.258-0.2472-0.059-0.16456-0.02578-0.29334 0.03079-0.39153 0.0018-0.0109 0.0038-0.0215 6e-3 -0.0319zm0.09204 0.0401c0.02653 0.14485 0.11104 0.32069 0.32395 0.42123 0.11842 0.0559 0.2666 0.0406 0.42865-8.7e-4 0.16206-0.0413 0.34019-0.11137 0.51753-0.18201 0.17735-0.0706 0.35371-0.14193 0.50803-0.18572 0.15433-0.0438 0.28577-0.0571 0.36719-0.0276 0.19465 0.0704 0.27351 0.14812 0.31903 0.23398 0.0243 0.0458 0.0385 0.0966 0.0523 0.15155a2.5597 2.5597 0 0 1-0.3246 0.73797c-3.4e-4 -5e-3 -8e-4 -0.0105-1e-3 -0.0158-0.0117-0.12287-0.0736-0.2555-0.23889-0.40638-0.0951-0.0868-0.24092-0.12243-0.409-0.14205-0.16808-0.0196-0.36077-0.0209-0.55127-0.0235-0.1905-3e-3 -0.37857-7e-3 -0.53402-0.0289-0.15544-0.0224-0.27522-0.0653-0.33344-0.12949-0.12039-0.13266-0.13674-0.26749-0.12-0.38159-0.0015-7e-3 -0.0029-0.0139-0.0041-0.0207z" stop-color="#000000" stroke-width=".21128"/></g><metadata><rdf:RDF><cc:Work rdf:about=""><dc:creator><cc:Agent><dc:title>https://github.com/adejong5</dc:title></cc:Agent></dc:creator><dc:title>bajor</dc:title><cc:license rdf:resource="http://creativecommons.org/licenses/by-sa/4.0/"/></cc:Work><cc:License rdf:about="http://creativecommons.org/licenses/by-sa/4.0/"><cc:permits rdf:resource="http://creativecommons.org/ns#Reproduction"/><cc:permits rdf:resource="http://creativecommons.org/ns#Distribution"/><cc:requires rdf:resource="http://creativecommons.org/ns#Notice"/><cc:requires rdf:resource="http://creativecommons.org/ns#Attribution"/><cc:permits rdf:resource="http://creativecommons.org/ns#DerivativeWorks"/><cc:requires rdf:resource="http://creativecommons.org/ns#ShareAlike"/></cc:License></rdf:RDF></metadata></svg>

