<svg version="1.1" viewBox="0 0 24 23.895" xmlns="http://www.w3.org/2000/svg" xmlns:cc="http://creativecommons.org/ns#" xmlns:dc="http://purl.org/dc/elements/1.1/" xmlns:rdf="http://www.w3.org/1999/02/22-rdf-syntax-ns#"> <title>Borg Face</title><path d="m13.624 0c-1.8335 0-3.4972 0.4482-4.8531 1.2872-0.1104-0.016267-0.22423-0.019867-0.34008 0.00132-6.2166 1.135-8.4313 4.8971-8.4313 8.0391 0 1.6771 0.50576 2.9987 1.5039 3.9284 0.56732 0.52893 1.2155 0.87824 1.8145 1.0684 0.23523 2.6606 1.6805 4.4983 2.9699 4.4983h0.39191c1.5403 3.5424 5.5402 5.0722 6.9444 5.0722 1.8279 0 6.6739-2.1459 7.4608-6.919 1.2965-0.51447 2.9147-2.0091 2.9147-3.7361 9.3e-5 -1.6001-0.73084-2.9036-1.8107-3.405l-6.6e-5 -1.733e-4c0.21227-2.9563-0.47907-5.4209-2.0183-7.1647-1.52-1.7219-3.8448-2.6702-6.5466-2.6702zm2.7e-5 1.8554c2.1843 0 3.9588 0.71832 5.1324 2.0478 1.3137 1.4883 1.8248 3.7499 1.478 6.5261-0.03347 0.26815 0.04987 0.54224 0.22884 0.74503 0.179 0.20277 0.43651 0.32125 0.70713 0.32125 0.45531 0 0.94284 0.69807 0.94284 1.7361-2.67e-4 0.96356-1.4715 1.9979-1.8867 2.0347l-6.7e-5 -6.7e-5c-0.49212 0-0.90164 0.37847-0.94031 0.86872-0.31916 4.031-4.5955 5.8422-5.6621 5.8422-0.89243 0-3.9804-1.2191-5.1855-3.9034 0.27277-0.19319 0.59079-0.34061 0.99357-0.34061h1.0482c0.57932 0 2.096-1.0962 2.096-5.3119-3.47e-4 -3.0696-1.5171-4.2252-2.0964-4.2252h-1.0483c-0.99461 0-1.5167-1.09-2.096-1.09h-0.285c0.22157-1.09 0.72105-2.3859 1.4913-3.2535 1.1774-1.327 2.9349-1.9971 5.0819-1.9971zm-7.5105 2.2724c-0.55669 1.0412-0.90191 2.2437-1.0276 3.5794-0.8338 0.68699-1.5197 2.1232-1.7347 4.3253-0.14547-0.086133-0.28775-0.18691-0.41911-0.30932-0.55536-0.51775-0.83707-1.3235-0.83707-2.3954l1.067e-4 2.67e-5c0-0.92569 0.33732-3.6511 4.0183-5.2zm3.8422 7.204c0.91913 0 1.6641 0.74393 1.6641 1.6641 0 0.92017-0.745 1.6641-1.6641 1.6641-0.91885 2.67e-4 -1.6638-0.74393-1.6638-1.6641 0-0.92017 0.745-1.6641 1.6638-1.6641zm7.3362 0.13093c-0.84665 0-1.533 0.68637-1.533 1.533 0 0.84664 0.68636 1.533 1.533 1.533 0.84665 0 1.533-0.68637 1.533-1.533 0-0.84665-0.68637-1.533-1.533-1.533z" stroke-width=".022708"/><metadata><rdf:RDF><cc:Work rdf:about=""><dc:creator><cc:Agent><dc:title>https://github.com/adejong5</dc:title></cc:Agent></dc:creator><dc:title>borg-drone</dc:title><cc:license rdf:resource="http://creativecommons.org/licenses/by-sa/4.0/"/></cc:Work><cc:License rdf:about="http://creativecommons.org/licenses/by-sa/4.0/"><cc:permits rdf:resource="http://creativecommons.org/ns#Reproduction"/><cc:permits rdf:resource="http://creativecommons.org/ns#Distribution"/><cc:requires rdf:resource="http://creativecommons.org/ns#Notice"/><cc:requires rdf:resource="http://creativecommons.org/ns#Attribution"/><cc:permits rdf:resource="http://creativecommons.org/ns#DerivativeWorks"/><cc:requires rdf:resource="http://creativecommons.org/ns#ShareAlike"/></cc:License></rdf:RDF></metadata></svg>
