<?xml version="1.0" encoding="UTF-8"?><!-- Created with Inkscape (http://www.inkscape.org/) --><svg width="24mm" height="24mm" version="1.1" viewBox="0 0 24 24" xml:space="preserve" xmlns="http://www.w3.org/2000/svg" xmlns:cc="http://creativecommons.org/ns#" xmlns:dc="http://purl.org/dc/elements/1.1/" xmlns:rdf="http://www.w3.org/1999/02/22-rdf-syntax-ns#"><title>borg</title><g transform="translate(-102.87 -132.19)"><path d="m115.36 156.15c-1.1026-0.35684-1.4217-2.9946-0.50746-4.195 0.52015-0.68299 1.3131-0.46684 1.7061 0.46506 0.69587 1.65-0.0881 4.0894-1.1987 3.73zm2.1944-0.35255c-7e-3 -0.0172 0.0393-0.15414 0.10205-0.30429 0.70944-1.698 0.91152-3.9454 0.54182-6.0259-0.0935-0.52605-0.091-0.62259 0.027-1.0356 1.6384-5.7378 0.39274-11.351-3.3944-15.297-0.29098-0.30317-0.52734-0.55552-0.52525-0.56079 0.14466-0.36358 0.4917-0.50156 0.71655-0.2849 2.6496 2.5532 4.5709 5.9573 5.2765 9.3488 0.2933 1.4098 0.37414 3.4452 0.19615 4.939-0.38143 3.201-0.76456 4.8748-1.5696 6.8573-0.48268 1.1887-1.2884 2.5779-1.3707 2.3634zm-0.13001-0.46374c-0.0261-0.0465-0.043-0.18721-0.0849-0.70522-0.18986-2.3468-0.80574-3.6762-1.7859-3.8552-0.98836-0.18045-1.4731 0.88263-1.6722 3.6671-0.0835 1.1678-0.10907 1.1599-0.36537-0.1138-0.87029-4.3248-0.24735-6.7943 1.7037-6.754 2.0414 0.0422 2.9062 2.0339 2.5571 5.8891-0.0918 1.014-0.27823 2.0042-0.35239 1.872zm-4.9486-0.46658c-1.3393-1.31-2.4426-3.4233-2.9296-5.6113-0.25576-1.1493-0.34275-2.0689-0.34275-3.6237 0-3.8164 0.79458-7.1764 2.2095-9.3433 0.19713-0.30189 0.25874-0.32199 0.39002-0.12718 0.0613 0.091 0.0655 0.0688-0.11144 0.59395-0.42302 1.2558-0.7578 2.7184-0.85047 3.7156-0.30929 3.3285 0.64092 5.338 2.6823 5.6727 0.13604 0.0223 0.12738 0.0584-0.0842 0.35109-1.5372 2.1265-1.871 5.4975-0.80738 8.1538 0.20381 0.50902 0.17801 0.54511-0.15609 0.21833zm5.0309-7.5792c-0.0255-0.0282-0.12572-0.17381-0.2227-0.32365-0.33616-0.51939-0.69415-0.9168-0.98468-1.0931-3e-3 -2e-3 0.0449-0.22788 0.10644-0.50239 1.0084-4.5002 0.0699-8.4133-2.7562-11.492-0.30364-0.33081-0.30459-0.33614-0.0986-0.55454 0.25308-0.26828 0.27124-0.26654 0.63956 0.0612 1.7043 1.5164 3.2076 4.7199 3.8419 8.1863 0.1178 0.64385 0.12954 0.79791 0.14301 1.8777 0.0208 1.6698-0.0406 2.2095-0.38083 3.344-0.15285 0.50972-0.20095 0.59273-0.28787 0.49677zm-2.8094-1.8009c-0.0213-0.0469-0.0189-0.12442 0.0119-0.3714 0.13625-1.094 0.25407-3.2035 0.23462-4.2009-0.0363-1.8606-0.77503-3.8215-2.222-5.898-0.29933-0.42955-0.29075-0.37009-0.0834-0.57748 0.19353-0.19353 0.19933-0.19423 0.39206-0.0472 0.71977 0.54905 1.6338 2.1388 2.1911 3.811 0.81038 2.4315 0.97693 4.607 0.52795 6.896-0.085 0.43341-0.0591 0.40776-0.41228 0.40864-0.1689 4.3e-4 -0.37591 9e-3 -0.46003 0.0196-0.15051 0.0186-0.15338 0.0179-0.17994-0.0403z" stroke-width=".086023"/></g><metadata><rdf:RDF><cc:Work rdf:about=""><dc:creator><cc:Agent><dc:title>https://github.com/adejong5</dc:title></cc:Agent></dc:creator><dc:title>borg-collective</dc:title><cc:license rdf:resource="http://creativecommons.org/licenses/by-sa/4.0/"/></cc:Work><cc:License rdf:about="http://creativecommons.org/licenses/by-sa/4.0/"><cc:permits rdf:resource="http://creativecommons.org/ns#Reproduction"/><cc:permits rdf:resource="http://creativecommons.org/ns#Distribution"/><cc:requires rdf:resource="http://creativecommons.org/ns#Notice"/><cc:requires rdf:resource="http://creativecommons.org/ns#Attribution"/><cc:permits rdf:resource="http://creativecommons.org/ns#DerivativeWorks"/><cc:requires rdf:resource="http://creativecommons.org/ns#ShareAlike"/></cc:License></rdf:RDF></metadata></svg>

