<?xml version="1.0" encoding="UTF-8"?><!-- Created with Inkscape (http://www.inkscape.org/) --><svg width="24mm" height="24mm" version="1.1" viewBox="0 0 24 24" xml:space="preserve" xmlns="http://www.w3.org/2000/svg" xmlns:cc="http://creativecommons.org/ns#" xmlns:dc="http://purl.org/dc/elements/1.1/" xmlns:rdf="http://www.w3.org/1999/02/22-rdf-syntax-ns#"><title>cardassian</title><g transform="translate(-92.001 -133.64)"><path d="m103.11 157.51c-0.017-0.0838-0.0653-0.31719-0.10742-0.51855-0.0421-0.20136-0.19929-0.96626-0.34925-1.6998-0.14996-0.73352-0.29548-1.4434-0.32337-1.5775-0.0362-0.17402-0.0422-0.24648-0.021-0.253 0.0163-5e-3 0.12774-0.0168 0.24756-0.0262 0.73632-0.0575 0.94286-0.25981 1.2851-1.2586 0.17544-0.51195 0.17017-0.51019 0.28756-0.096 0.29911 1.0554 0.53481 1.2892 1.3672 1.3564 0.18544 0.015 0.22881 0.0265 0.22878 0.0606-2e-5 0.0382-0.30378 1.5369-0.69632 3.4356-0.0826 0.39935-0.15871 0.71708-0.16923 0.70607-0.0177-0.0185-0.0694-0.47194-0.2866-2.5149l-0.0818-0.76896-0.23676-0.43397c-0.13021-0.23868-0.23842-0.43638-0.24045-0.43932-2e-3 -3e-3 -0.1115 0.19122-0.24326 0.43148l-0.23957 0.43684-0.14589 1.3598c-0.22641 2.1104-0.22042 2.0712-0.27527 1.7999zm-0.27536-4.6387c-9e-3 -0.0153-3e-3 -0.42768 0.0137-0.91652l0.0308-0.88879 0.98037-1.5013 0.29043-0.016 0.10402 0.16465c0.0572 0.0906 0.27807 0.42943 0.49081 0.75305l0.38678 0.58838 0.0207 0.64069c0.0114 0.35238 0.0266 0.76103 0.0338 0.90812 0.0153 0.3121 0.0135 0.31461-0.15551 0.21795-0.42489-0.24305-0.89617-1.1715-1.0096-1.989-5e-3 -0.0387-0.0293 0.0306-0.0587 0.16998-0.16346 0.77538-0.54047 1.525-0.88524 1.7603-0.17156 0.11706-0.22272 0.13987-0.24239 0.10804zm0.15918-2.6202c-5e-3 -0.018-0.0168-0.0974-0.0251-0.17651-0.0251-0.23948-0.275-2.4126-0.28815-2.5056-0.0188-0.13303 0.0159-0.10889 0.50969 0.35468l0.45268 0.42495 0.73547-2e-4 0.45763-0.43048c0.2517-0.23676 0.47023-0.43087 0.48562-0.43136 0.0186-6e-4 3e-3 0.21206-0.0454 0.63325-0.16646 1.4391-0.25278 2.1421-0.2645 2.1538-7e-3 7e-3 -0.17613-0.22052-0.37624-0.5052l-0.36383-0.51761-0.52093-0.012-0.36435 0.52265c-0.38275 0.54903-0.37677 0.54156-0.39263 0.48995zm0.15282-2.8568-0.44725-0.40359-0.0717-0.25594c-0.0394-0.14076-0.20479-0.72665-0.36747-1.302-0.31698-1.121-0.84617-2.997-1.1203-3.9716l-0.16827-0.59822 0.48497-1.2062c0.26673-0.66339 0.48937-1.2114 0.49475-1.2179 0.0111-0.0133 1.3354 0.072 1.466 0.0945l0.085 0.0146v0.32575l-0.85594 0.60621-0.13677 0.70134c-0.16449 0.84357-0.16547 0.69946 0.0116 1.7212 0.0798 0.46025 0.24557 1.4429 0.36843 2.1836 0.28151 1.6972 0.4233 2.5048 0.44676 2.5447 0.0101 0.0171 0.081 0.10307 0.1575 0.19096l0.13914 0.1598v0.40898c0 0.22493-9e-3 0.40862-0.0196 0.40819-0.0108-3.9e-4 -0.22087-0.18238-0.46686-0.40436zm1.2449-5e-3 9e-5 -0.41405 0.15682-0.18118c0.0862-0.0996 0.15684-0.1879 0.15686-0.19612 3e-5 -8e-3 0.0648-0.39153 0.14395-0.85178 0.11965-0.69577 0.61423-3.6312 0.76501-4.5405l0.0418-0.25182-0.14116-0.7368-0.14117-0.73681-0.85149-0.60466v-0.32807l0.085-0.0146c0.13014-0.0223 1.4551-0.10781 1.4647-0.0945 0.0295 0.0408 0.96125 2.3994 0.96102 2.4328-2.9e-4 0.041-0.25815 0.9705-0.86276 3.1098-0.17276 0.61126-0.43423 1.5387-0.58105 2.0609l-0.26693 0.94947-0.44219 0.39729c-0.24321 0.2185-0.45263 0.40121-0.46537 0.406-0.0129 5e-3 -0.0231-0.1755-0.0231-0.40533zm-0.40179-1.1509c-8e-3 -0.0406-0.11689-1.0093-0.24214-2.1528l-0.22773-2.079-0.28335-0.59504c-0.34133-0.71678-0.34766-0.52714 0.0478-1.4322l0.33113-0.75785 0.78909 3.2e-4 0.33382 0.76474c0.39736 0.91033 0.39044 0.70423 0.0478 1.4223l-0.28525 0.59771-0.13411 1.2291c-0.17188 1.5754-0.34276 3.0566-0.3539 3.0678-5e-3 5e-3 -0.0152-0.0245-0.0231-0.0651zm-2.5951-0.85443c-0.21714-0.1891-0.93401-0.81454-1.593-1.3898-0.65903-0.57531-1.6346-1.426-2.1679-1.8905-0.53334-0.46448-0.97358-0.86194-0.9783-0.88326-0.0074-0.0335 0.72291-1.3245 1.7385-3.0732l0.2975-0.51224 0.5684-0.25553c2.0942-0.94146 2.2609-1.0198 2.282-1.0722 0.22627-0.56015 0.83491-2.0356 0.84308-2.0437 0.0139-0.0139 1.2275-0.48097 1.4609-0.56225l0.17351-0.0604 0.2972 0.11197c0.16347 0.0616 0.52813 0.20022 0.81036 0.30807l0.51314 0.1961 0.08 0.20072c0.26464 0.6642 0.76789 1.8761 0.78699 1.8952 0.0124 0.0124 0.49176 0.23349 1.0652 0.49125 0.57343 0.25777 1.2046 0.5419 1.4025 0.6314l0.35988 0.16273 0.16497 0.2883c0.0907 0.15856 0.55022 0.95705 1.0211 1.7744 1.0184 1.7678 1.1151 1.3128-0.59625 2.8052-0.78994 0.6889-1.9432 1.6952-2.5628 2.2361-0.61957 0.54096-1.1304 0.97342-1.1352 0.96103-5e-3 -0.0124 0.34561-1.0855 0.77868-2.3847l0.78739-2.3622-0.34452-0.65167c-0.18948-0.35842-0.46632-0.88114-0.6152-1.1616-0.14888-0.28046-0.36779-0.69513-0.48646-0.92148-0.16941-0.32311-0.22701-0.41146-0.26807-0.41118-0.0288 2e-4 -0.35238 0.0574-0.71914 0.12704-0.79817 0.15163-0.71078 0.22597-0.65773-0.55954 0.0531-0.78681-0.01-0.68712 0.54311-0.86358 0.30001-0.0958 0.45471-0.15727 0.44679-0.17756-0.12048-0.30882-0.34513-0.84739-0.36085-0.86511-0.0115-0.013-0.30261 0.16022-0.65541 0.39007-0.75964 0.49493-0.57254 0.49483-1.3292 7.1e-4 -0.35602-0.23248-0.64198-0.40287-0.65465-0.39008-0.0205 0.0207-0.36549 0.85331-0.36549 0.88208 0 7e-3 0.20299 0.0795 0.4511 0.16159 0.2481 0.0821 0.46095 0.15825 0.47301 0.16923 0.0264 0.0241 0.12177 1.3394 0.0988 1.363-9e-3 9e-3 -0.3162-0.0406-0.68296-0.11045-0.84528-0.161-0.75316-0.16877-0.88127 0.0743-0.4997 0.94796-0.88039 1.6678-1.1915 2.2529l-0.36707 0.69037 0.79311 2.3755c0.91812 2.7499 0.86921 2.4827 0.37586 2.0531z" stroke-width=".098837"/></g><metadata><rdf:RDF><cc:Work rdf:about=""><dc:creator><cc:Agent><dc:title>https://github.com/adejong5</dc:title></cc:Agent></dc:creator><dc:title>cardassian-union</dc:title><cc:license rdf:resource="http://creativecommons.org/licenses/by-sa/4.0/"/></cc:Work><cc:License rdf:about="http://creativecommons.org/licenses/by-sa/4.0/"><cc:permits rdf:resource="http://creativecommons.org/ns#Reproduction"/><cc:permits rdf:resource="http://creativecommons.org/ns#Distribution"/><cc:requires rdf:resource="http://creativecommons.org/ns#Notice"/><cc:requires rdf:resource="http://creativecommons.org/ns#Attribution"/><cc:permits rdf:resource="http://creativecommons.org/ns#DerivativeWorks"/><cc:requires rdf:resource="http://creativecommons.org/ns#ShareAlike"/></cc:License></rdf:RDF></metadata></svg>

