<svg enable-background="new 0 0 100 100" version="1.1" viewBox="0 0 24 24" xmlns="http://www.w3.org/2000/svg" xmlns:cc="http://creativecommons.org/ns#" xmlns:dc="http://purl.org/dc/elements/1.1/" xmlns:rdf="http://www.w3.org/1999/02/22-rdf-syntax-ns#"><title>Data</title><path d="m12.113 0c-1.0591 0-2.3968 0.22285-3.7346 1.0033-2.6756 1.5608-2.676 5.3515-2.8988 6.2435-0.06161 0.24645-0.01951 0.63128 0.0667 1.07 0.20394-0.38257 0.49745-0.62407 0.82509-0.62407 0.52084 0 0.78337 0.49766 0.85215 1.284 0.21523 0.42609 0.44331 1.1488 0.48088 1.1796l4.66e-4 4.66e-4h0.002332v-4.66e-4l4.67e-4 -4.66e-4h4.66e-4c9.04e-4 -0.0017 9.33e-4 -0.0052 9.33e-4 -0.01026 0-1.4777-0.44558-3.5674 0.44636-5.1283 0.54042-0.94543-0.33295-1.2555 0.66884-2.007 0.89194-0.6689 2.0068-0.4459 3.5676-0.4459 1.4101 0 1.6295-0.20046 2.8988 0.22295 0.6689 0.22304 0.96692 1.3388 1.1147 1.5611 0.44609 0.6689 0.43385 1.2753 0.66931 2.4529 0.22304 1.115-0.22304 2.4527 0 2.4529 0.22304 2.39e-4 0.26088-0.74586 0.89132-2.007 0.2228-0.44657-0.1652-1.6403-0.66884-2.8993-0.44585-1.1147-0.66875-1.1145-0.89179-2.2295-0.22304-1.1147-1.7839-1.561-2.2299-1.784-0.22293-0.11152-1.0034-0.33442-2.0625-0.33442zm1.3382 4.6744c-1.194 0-2.2316 0.43986-2.2691 0.45849l0.1208 0.21409c0.0088-0.0043 0.95453-0.43377 2.1483-0.43377zm-0.47715 0.69869v0.23881h1.9104v-0.23881zm-1.028 1.5308c-0.72382 0-1.3489 8.9e-5 -1.806 0.08582-0.23164 0.04346-0.85749 0.3918-0.92817 0.43144l0.1166 0.20802c0.25361-0.14185 0.71021-0.37716 0.85588-0.40438 0.43487-0.08143 1.0498-0.08162 1.7617-0.08162 0.50627 0 0.59182 0.21438 0.65438 0.3708 0.02961 0.07355 0.05998 0.1499 0.13759 0.1819 0.01648 0.0069 0.03832 0.01306 0.06483 0.01306 0.02388 0 0.05175-0.0048 0.08256-0.01819l-0.03405-0.20056c-0.0064-0.0088-0.01983-0.04095-0.02938-0.06483-0.06734-0.16907-0.20775-0.52146-0.87593-0.52146zm3.2043 0.16138c-0.45186 0.01731-0.95527 0.2614-1.028 0.29757l0.10681 0.21362c0.23307-0.11678 0.90849-0.38414 1.2309-0.22295 0.17075 0.08525 0.29349 0.14571 0.39832 0.1973 0.16884 0.0831 0.291 0.14307 0.49207 0.24767 0.11224 0.05851 0.15356 0.277 0.15905 0.34888l0.23834-0.01772c-0.0033-0.04179-0.03752-0.413-0.28731-0.54291-0.20322-0.10579-0.32623-0.16618-0.49674-0.25-0.10436-0.05158-0.22689-0.11181-0.39692-0.19683-0.12131-0.06066-0.26589-0.08039-0.41651-0.07463zm-4.3172 0.73088c-0.48979 0-0.9543 0.4613-0.97388 0.48088l0.17351 0.16884c0.0034-0.0034 0.30373-0.2941 0.6334-0.38433a0.33433 0.33433 0 0 0-0.057836 0.18843 0.33433 0.33433 0 0 0 0.33396 0.33442 0.33433 0.33433 0 0 0 0.33442-0.33442 0.33433 0.33433 0 0 0-0.016791-0.10494c0.09982 0.04622 0.19692 0.10135 0.28591 0.15345 0.17409 0.10197 0.23414 0.18237 0.47295 0.18237h4.67e-4v-0.23881c-0.23881 0-0.23133-0.07951-0.35121-0.14972-0.22543-0.13182-0.5414-0.29618-0.83489-0.29618zm2.7547 0.0723c-0.07045 0.16502-0.20574 1.6256 0.03498 2.1073 0.25863 0.51725 0.42584 0.96037 0.42584 1.1287h0.23881c0-0.3009-0.31538-0.9645-0.45103-1.2355-0.14424-0.28872-0.27919-1.3224-0.02892-1.9062zm1.7024 0.15065c-0.48979 0-0.95663 0.46106-0.97621 0.48088l0.16884 0.16931c0.0025-0.0025 0.16-0.15757 0.37174-0.27659a0.33433 0.33433 0 0 0-0.01026 0.08022 0.33433 0.33433 0 0 0 0.33442 0.33442 0.33433 0.33433 0 0 0 0.33442-0.33442 0.33433 0.33433 0 0 0-0.06856-0.20289c0.14116 0.02738 0.19378 0.09965 0.27425 0.20989 0.04203 0.05755 0.0901 0.12275 0.15625 0.1889l0.16884-0.16884c-0.05325-0.05325-0.09354-0.1079-0.13246-0.16091-0.1151-0.15713-0.2344-0.31996-0.62127-0.31996zm-1.2416 3.3228c-9.55e-4 0.03678-0.02603 0.35961-0.59702 0.35961-0.66866 0-0.66885 2.6e-5 -0.83769-0.17024l-0.03312-0.03358c-0.23666-0.2369-0.51654-0.12991-0.64646 0l0.16791 0.16931c0.03702-0.03582 0.16904-0.14136 0.3097-4.67e-4l0.03265 0.03265c0.23904 0.24096 0.28246 0.24114 1.007 0.24114 0.82627 0 0.83582-0.59104 0.83582-0.59702zm-7.8937 0.10494c-0.0029 0.01122-0.0027 0.02611-0.0061 0.03638-0.22304 0.6689 0.89179 3.1217 0.89179 3.1217s-0.10784-1.4038-0.17351-3.0093c-0.19797-0.05158-0.38882-0.11241-0.4958-0.11241-0.07403 0-0.14645-0.01298-0.21642-0.03638zm10.577 0.37407c0 0.71642-0.50108 1.9665-0.83302 2.7705-0.11702 0.28346-0.21786 0.47098-0.27565 0.64459-0.19916 0.59797-1.2152 1.237-1.7243 1.4916-0.42054 0.21039-1.3128 0.21035-2.1758 0.21035-0.83749 0-2.3602-1.2956-2.3755-1.3088l-0.15532 0.18144c0.06495 0.05588 1.6054 1.3666 2.5308 1.3666 0.93182 0 1.8117 0.01391 2.2826-0.22155 0.06376-0.032 1.5643-0.77555 1.8442-1.6157 0.05516-0.16549 0.15471-0.37801 0.27006-0.65765 0.35892-0.87021 0.85075-2.1451 0.85075-2.8615zm-3.8102 0.67118-0.16838 0.16325c0.02651 0.02627 0.26572 0.24674 0.53032 0.24674 0.25122 0 0.34211-0.12616 0.34235-0.3652h-0.23881s-0.0099 0.1236-0.10354 0.1236c-0.14114 0-0.30893-0.11584-0.36194-0.16838zm-0.53032 0.73647c-0.23761 0-1.0125 0.36001-1.1656 0.43237l0.10168 0.21595c0.36036-0.17003 0.92874-0.40952 1.0639-0.40952 0.08812 0 0.1399 0.0043 0.20056 0.0093 0.09027 0.0072 0.20272 0.01586 0.46875 0.01586 0.40955 0 0.8313 0.22266 0.83535 0.22481l0.47668 0.10961 0.05131-0.23321-0.4305-0.09515c-0.08573-0.0437-0.50418-0.24487-0.93284-0.24487-0.25648 0-0.36388-0.0085-0.45009-0.01539-0.06615-0.0053-0.12274-0.0098-0.21922-0.0098zm0.44963 0.6791c-0.27304 0.0072-0.41024 0.06108-0.42024 0.06437l0.06063 0.22388c0.0036-9.55e-4 0.48597-0.08441 0.95522 0.0047l0.04431-0.23461c-0.26355-0.05015-0.4761-0.06262-0.63992-0.0583zm-6.0882 2.6894s-0.97524 1.4178-1.3055 1.5606c-0.1846 0.07976-3.2197 1.4534-5.3689 2.5047v3.3377h23.881v-2.0247s0.20616-0.37826-1.2267-1.0947c-1.4328-0.71642-7.9524-2.7229-7.9524-2.7229s0.27869 0.33522 0 0.66931c-0.63904 0.76585-2.2481 2.6994-2.3479 2.8988-0.22304 0.44585-0.10485 1.1146-0.32789 1.3377-0.22304 0.22304-0.62753 0.20547-0.66884-0.22295-0.07331-0.76346-0.56854-1.945-1.7836-3.3778-1.215-1.4328-2.8988-2.8657-2.8988-2.8657zm1.9226 2.7463c0.32907 0 0.59702 0.2677 0.59702 0.59702 0 0.32931-0.26794 0.59701-0.59702 0.59701-0.32908 0-0.59702-0.2677-0.59702-0.59701 0-0.32931 0.26794-0.59702 0.59702-0.59702zm0 0.23881a0.35821 0.35821 0 0 0-0.35821 0.35821 0.35821 0.35821 0 0 0 0.35821 0.35821 0.35821 0.35821 0 0 0 0.35821-0.35821 0.35821 0.35821 0 0 0-0.35821-0.35821zm0.71642 0.83582c0.26364 0 0.47761 0.21397 0.47761 0.47761 0 0.26364-0.21397 0.47761-0.47761 0.47761-0.26364 0-0.47761-0.21397-0.47761-0.47761 0-0.26364 0.21397-0.47761 0.47761-0.47761zm0.71642 0.95522c0.26364 0 0.47761 0.21397 0.47761 0.47761s-0.21397 0.47761-0.47761 0.47761c-0.26364 0-0.47761-0.21397-0.47761-0.47761s0.21397-0.47761 0.47761-0.47761z" stroke-width=".23881"/><metadata><rdf:RDF><cc:Work rdf:about=""><dc:creator><cc:Agent><dc:title>https://github.com/adejong5</dc:title></cc:Agent></dc:creator><dc:title>data</dc:title><cc:license rdf:resource="http://creativecommons.org/licenses/by-sa/4.0/"/></cc:Work><cc:License rdf:about="http://creativecommons.org/licenses/by-sa/4.0/"><cc:permits rdf:resource="http://creativecommons.org/ns#Reproduction"/><cc:permits rdf:resource="http://creativecommons.org/ns#Distribution"/><cc:requires rdf:resource="http://creativecommons.org/ns#Notice"/><cc:requires rdf:resource="http://creativecommons.org/ns#Attribution"/><cc:permits rdf:resource="http://creativecommons.org/ns#DerivativeWorks"/><cc:requires rdf:resource="http://creativecommons.org/ns#ShareAlike"/></cc:License></rdf:RDF></metadata></svg>
