<?xml version="1.0" encoding="UTF-8"?><svg width="24mm" height="24mm" version="1.1" viewBox="0 0 24 24" xmlns="http://www.w3.org/2000/svg" xmlns:cc="http://creativecommons.org/ns#" xmlns:dc="http://purl.org/dc/elements/1.1/" xmlns:rdf="http://www.w3.org/1999/02/22-rdf-syntax-ns#"><title>Deep Space Nine</title><g transform="matrix(.2449 0 0 .2449 -.2449 -.2449)"><path d="m49.928 30.041c-2.3932 0-4.7265 0.43077-7 1.2923-1.4359-3.3265-2.6624-6.2222-3.6795-8.6872-1.0171-2.465-1.5615-3.9487-1.6333-4.4513-0.21538-1.2923 0.21538-4.4632 1.2923-9.5128 3.0154-0.78974 6.0068-1.2564 8.9744-1.4l-0.07179 1.041 0.61026 0.35897 0.28718 0.46667 2.6564 0.035897 0.21538-0.43077 0.64615-0.46667 0.21538-0.96923c5.7675 0.35897 11.188 1.7829 16.262 4.2718l-0.25128 0.96923 0.32308 0.71795-0.0359 0.46667 2.3333 1.2923 0.50256-0.28718h0.71795l0.43077-0.89744c5.1453 3.2786 9.4171 7.4427 12.815 12.492l-0.71795 0.64615-0.10769 0.78974-0.25128 0.39487 1.4 2.2974 0.53846 0.0359 0.61026 0.35898 0.86154-0.57436c1.5077 2.9197 2.6444 5.8632 3.4103 8.8308-3.853 3.4222-6.3299 5.3368-7.4308 5.7436-0.50256 0.16752-2.088 0.43675-4.7564 0.80769s-5.8214 0.7718-9.459 1.2026c-0.9812-6.0786-4.1282-10.733-9.441-13.964l0.28718-0.50256c0.0718-0.11966 0.04786-0.21538-0.0718-0.28718l-0.35897-0.21538c-0.16752-0.04786-0.26325-0.01197-0.28718 0.10769l-0.28718 0.46667c-2.9915-1.6274-6.1744-2.441-9.5487-2.441zm-6.4256 33.097-0.61026 1.041 0.10769 0.0718 0.21538 0.10769-0.07179 0.25128-0.61026 1.9026-0.0359 0.0359v0.0359l-13.21 22.867-0.14359 0.28718-0.25128-0.17949-3.0154-1.7231 0.14359-0.28718 13.21-22.867 0.0359-0.0359 1.3641-1.5077 0.17949-0.17949 0.17949 0.10769 0.14359 0.07179 0.57436-1.041 0.14359-0.25128 0.28718 0.14359 1.5077 0.86154zm-1.2923 1.0051 0.61026-1.0769-0.71795-0.39487-0.61026 1.041-0.14359 0.25128-0.28718-0.14359-0.14359-0.10769-1.1846 1.2923-13.031 22.615 2.2256 1.2564 13.031-22.579 0.53846-1.6513-0.17949-0.10769-0.25128-0.14359zm-0.46667-26.277-0.61026-1.041-0.0718 0.0718-0.25128 0.10769-0.14359-0.17949-1.3641-1.4718-0.0359-0.0359v-0.0359l-13.21-22.867-0.14359-0.25128 0.25128-0.17949 3.0154-1.7231 0.14359 0.25128 13.21 22.867 0.0359 0.0359v0.0359l0.61026 1.9385 0.0718 0.21538-0.21538 0.14359-0.10769 0.0359 0.61026 1.041 0.14359 0.28718-1.5077 0.86154-0.28718 0.17949zm-0.21538-1.6154 0.61026 1.041 0.71795-0.39487-0.61026-1.0769-0.14359-0.25128 0.25128-0.14359 0.14359-0.10769-0.50256-1.6513-13.031-22.579-2.2256 1.2923 13.031 22.544 1.1846 1.2923 0.14359-0.07179 0.28718-0.1436zm22.974 12.744h1.1846v-0.39487l0.25128-0.0359 1.9744-0.43077h26.779v3.8051h-26.744l-0.0359-0.0359-1.9744-0.43077-0.25128-0.0359v-0.39487h-1.5077v-2.0462zm1.5077 0.61026h-1.2205v0.82564h1.5436v0.50256l1.6872 0.35898h26.062v-2.5487h-26.062l-1.6872 0.35897v0.50256zm-16.082-2.0462c0.64615 0 1.2325 0.23932 1.759 0.71795 0.47863 0.5265 0.71795 1.1128 0.71795 1.759 0 0.67009-0.23932 1.2444-0.71795 1.7231-0.50256 0.50256-1.0889 0.75385-1.759 0.75385-0.69402 0-1.2684-0.25128-1.7231-0.75385-0.47863-0.43077-0.71795-1.0051-0.71795-1.7231 0-0.69402 0.23932-1.2803 0.71795-1.759s1.053-0.71795 1.7231-0.71795zm0 0.61026c-0.50256 0-0.93333 0.17949-1.2923 0.53846-0.35897 0.35898-0.53846 0.80171-0.53846 1.3282 0 0.55043 0.17949 0.9812 0.53846 1.2923 0.31111 0.35897 0.74188 0.53846 1.2923 0.53846 0.5265 0 0.95726-0.17949 1.2923-0.53846 0.38291-0.33504 0.57436-0.76581 0.57436-1.2923 0-0.50256-0.19145-0.9453-0.57436-1.3282-0.35897-0.35897-0.78974-0.53846-1.2923-0.53846zm0-3.5897c1.4838 0 2.7641 0.53846 3.841 1.6154 1.053 1.053 1.5795 2.3333 1.5795 3.841 0 1.4838-0.5265 2.7641-1.5795 3.841-1.1009 1.053-2.3812 1.5795-3.841 1.5795-1.4838 0-2.7641-0.5265-3.841-1.5795-1.053-1.0769-1.5795-2.3573-1.5795-3.841 0-1.5077 0.5265-2.788 1.5795-3.841 1.0769-1.0769 2.3573-1.6154 3.841-1.6154zm0 0.61026c-1.2923 0-2.4291 0.47863-3.4103 1.4359-0.93333 0.93333-1.4 2.0701-1.4 3.4103 0 1.3162 0.46667 2.441 1.4 3.3744 0.95726 0.95727 2.094 1.4359 3.4103 1.4359 1.3162 0 2.453-0.47863 3.4103-1.4359 0.93333-0.93333 1.4-2.0581 1.4-3.3744 0-1.3402-0.46667-2.4769-1.4-3.4103-1.0051-0.95726-2.1419-1.4359-3.4103-1.4359zm0-4.7385c-1.0291 0-1.9863 0.14359-2.8718 0.43077-0.62222-1.3641-1.3641-3.0513-2.2256-5.0615 1.5316-0.59829 3.2308-0.89744 5.0974-0.89744 1.9145 0 3.6974 0.32308 5.3487 0.96923l0.14359 1.041-0.21538 1.4-1.3282 2.9795c-1.1966-0.57436-2.5128-0.86154-3.9487-0.86154zm5.3846 1.6513 2.1179-2.7282 1.0051-0.75385 1.041-0.28718c2.8957 2.3932 4.6786 5.4325 5.3487 9.1179-0.93333 0.11966-1.8607 0.22735-2.7821 0.32308-0.92137 0.09573-1.8368 0.19145-2.7462 0.28718-0.5265-2.5128-1.8547-4.4991-3.9846-5.959zm3.9846 9.8359c0.9094 0.11966 1.8248 0.23333 2.7462 0.34102 0.92137 0.10769 1.8487 0.2094 2.7821 0.30513-0.62222 3.6137-2.3573 6.6171-5.2051 9.0103l-0.93333-0.39487-1.1487-0.89744-1.9026-2.6205c1.9385-1.412 3.159-3.3265 3.6615-5.7436zm-5.0256 6.6051 1.2564 3.159 0.14359 1.2564-0.28718 1.1487c-1.7709 0.67009-3.5897 1.0051-5.4564 1.0051-1.747 0-3.4581-0.29914-5.1333-0.89744 0.67008-1.6274 1.412-3.3265 2.2256-5.0974 1.0051 0.31111 1.9744 0.46667 2.9077 0.46667 1.5316 0 2.9795-0.34701 4.3436-1.041zm-10.662-1.3282c-1.2684 1.7231-2.3692 3.2068-3.3026 4.4513-2.8957-2.4171-4.6427-5.4325-5.241-9.0462l0.96923-0.75385 1.3282-0.50256 3.0513-0.32308c0.23932 2.4889 1.3043 4.547 3.1949 6.1744zm-3.2308-7.8615-3.2308-0.43077-1.1846-0.50256-0.93333-0.93333c0.64615-3.6615 2.4171-6.7009 5.3128-9.1179 0.55043 0.74188 1.0949 1.4838 1.6333 2.2256 0.53846 0.74188 1.0949 1.4838 1.6692 2.2256-2.0103 1.747-3.0991 3.9248-3.2667 6.5333zm29.292 3.8051c3.6137 0.43077 6.7487 0.83162 9.4051 1.2026 2.6564 0.37094 4.2239 0.64017 4.7026 0.80769 1.1966 0.43077 3.6974 2.3453 7.5026 5.7436-0.78974 2.9915-1.8667 5.8274-3.2308 8.5077l-0.82564-0.53846-0.61026 0.35898h-0.53846l-1.3641 2.3333 0.25128 0.39487 0.07179 0.78974 0.68205 0.61026c-3.0872 4.7385-7.012 8.735-11.774 11.99l-0.68205-0.71795-0.78974-0.07179-0.39487-0.25128-2.2974 1.4v0.53846l-0.35897 0.64615 0.57436 0.86154c-5.3367 2.8718-11.068 4.5111-17.195 4.9179l-0.25128-1.0769-0.61026-0.46667-0.25128-0.43077-2.6564 0.0718-0.28718 0.46667-0.61026 0.35897 0.0718 1.1487c-3.3026-0.14359-6.4137-0.62222-9.3333-1.4359-1.0769-5.1214-1.4957-8.2803-1.2564-9.4769 0.07179-0.47863 0.61026-1.9504 1.6154-4.4154s2.2256-5.3846 3.6615-8.759c2.2496 0.88547 4.5949 1.3282 7.0359 1.3282 3.4701 0 6.7487-0.8735 9.8359-2.6205l0.28718 0.46667c0.04786 0.14359 0.14359 0.16752 0.28718 0.07179l0.35898-0.21538c0.07179-0.07179 0.08376-0.16752 0.0359-0.28718l-0.25129-0.46667c5.1453-3.1829 8.2085-7.7778 9.1897-13.785zm-32.272 12.385c-2.1538 2.8957-4.0504 5.3906-5.6897 7.4846-1.6393 2.094-2.6504 3.2966-3.0333 3.6077-1.0051 0.86154-3.9607 2.0821-8.8667 3.6615-2.0821-2.0342-3.9966-4.3795-5.7436-7.0359l1.0051-0.50256v-0.71795l0.25128-0.46667-1.3282-2.3333h-0.43077l-0.75385-0.28718-1.041 0.32308c-2.6085-5.1214-4.1043-10.53-4.4872-16.226l1.1128-0.25128 0.46667-0.64615 0.43077-0.21538-0.071795-2.6923-0.46667-0.28718-0.35897-0.61026-1.1846 0.071795c0.19145-6.0786 1.6632-11.87 4.4154-17.374l1.1128 0.32308 0.71795-0.28718h0.46667l1.3282-2.3333-0.28718-0.50256v-0.71795l-1.0769-0.50256c1.7231-2.6564 3.7094-5.1094 5.959-7.359 4.8342 1.5795 7.7778 2.788 8.8308 3.6256 0.35897 0.33504 1.3641 1.5556 3.0154 3.6615s3.5658 4.6068 5.7436 7.5026c-4.8821 3.9487-7.3709 9.0462-7.4667 15.292h-0.39487c-0.14359 0-0.21538 0.0718-0.21538 0.21538l0.0359 0.43077c0 0.11966 0.05983 0.17949 0.17949 0.17949h0.39487c0.16752 6.1265 2.6444 11.116 7.4308 14.969zm53.487 5.9949 2.0462 0.53846 0.17949-0.32308 0.82564 0.14359c0.55043-1.1248 1.0051-2.106 1.3641-2.9436l-0.39487-0.61026h0.68205c0.47863-1.2444 0.89744-2.3453 1.2564-3.3026l-0.57436-0.64615 0.82564-0.10769c0.38291-1.2444 0.70598-2.3812 0.96923-3.4103l-0.57436-0.46667 0.71795-0.28718c0.28718-1.3162 0.47863-2.465 0.57436-3.4462l-0.68205-0.39487-0.07179-0.28718-2.6205-1.2205c0.09573-0.78974 0.16752-1.6393 0.21538-2.5487h0.82564c0.23932 0 0.35897-0.11966 0.35897-0.35897v-0.35898h-1.1846c0.02393-0.31111 0.0359-0.80171 0.0359-1.4718 0-0.67008-0.01197-1.1726-0.0359-1.5077h1.1846v-0.35897c0-0.21538-0.11966-0.32308-0.35897-0.32308h-0.82564c-0.09573-1.3402-0.17949-2.3333-0.25128-2.9795l2.4769-1.1487 0.0718-0.32308 0.71795-0.35898c-0.14359-1.0769-0.34701-2.2376-0.61026-3.4821l-0.71796-0.25128 0.53846-0.50256c-0.33504-1.2205-0.65812-2.3453-0.96923-3.3744l-0.82564-0.14359 0.57436-0.61026c-0.47863-1.3402-0.9094-2.441-1.2923-3.3026h-0.64615l0.39487-0.64615c-0.43077-1.0051-0.89744-1.9744-1.4-2.9077l-0.82564 0.14359-0.17949-0.32308-2.0103 0.53846-0.35898-0.64615 0.57436-0.32308-0.21538-0.35897-0.57436 0.32308-0.53846-0.96923 0.57436-0.39487-0.21538-0.32308-0.57436 0.35898-0.17949-0.35898 1.4-1.6513-0.0718-0.32308 0.46667-0.64615c-0.59829-0.93333-1.2684-1.8906-2.0103-2.8718l-0.89744 0.10769 0.39487-0.68205c-0.83761-1.053-1.5915-1.9504-2.2615-2.6923l-0.75385 0.14359 0.21538-0.71795c-0.81368-0.81368-1.6632-1.6274-2.5487-2.441l-0.75385 0.32308 0.17949-0.82564c-0.62222-0.5265-1.5556-1.2684-2.8-2.2256l-0.53846 0.35897v-0.75385c-0.76581-0.5265-1.6513-1.1368-2.6564-1.8308l-0.64615 0.57436-0.32308-0.21538-1.5077 1.5077-0.46667-0.32308 0.32308-0.53846-0.35897-0.21538-0.35897 0.57436-0.93333-0.57436 0.28718-0.61026-0.35898-0.17949-0.28718 0.57436-0.32308-0.14359 0.39487-2.1897-0.21538-0.25128 0.071795-0.78974c-1.0769-0.55043-2.1419-1.041-3.1949-1.4718l-0.71795 0.53846v-0.78974c-1.2923-0.5265-2.3812-0.92137-3.2667-1.1846l-0.61026 0.50256-0.14359-0.75385c-1.0291-0.28718-2.1778-0.55043-3.4462-0.78974l-0.50256 0.64615-0.28718-0.82564c-1.2684-0.21538-2.4291-0.38291-3.4821-0.50256l-0.32308 0.57436-0.35897-0.64615c-0.95726-0.11966-2.0342-0.20342-3.2308-0.25128l-0.28718 0.78974h-0.35897l-0.53846 2.0103h-0.17949l0.0359-0.64615-0.43077-0.035897-0.0359 0.71795h-1.0769l-0.0359-0.64615h-0.39487v0.64615h-0.68205l-0.53846-2.0103h-0.35897l-0.32308-0.82564c-0.62222 0.047863-1.6991 0.14359-3.2308 0.28718l-0.32308 0.68205-0.32308-0.61026c-1.7231 0.28718-2.8957 0.47863-3.5179 0.57436l-0.25128 0.82564-0.50256-0.64615c-0.86154 0.16752-2.0103 0.4547-3.4462 0.86154l-0.10769 0.71795-0.61026-0.50256c-1.1009 0.35897-2.2017 0.77778-3.3026 1.2564v0.78974l-0.21538 0.21538 0.25128 2.7282c-1.053 0.47863-1.8427 0.86154-2.3692 1.1487l-0.35897-0.64615c-0.14359-0.19145-0.29914-0.22735-0.46667-0.10769l-0.32308 0.14359 0.53846 0.93333c-0.76581 0.40684-1.6274 0.89744-2.5846 1.4718l-0.53846-0.89744-0.28718 0.17949c-0.19145 0.09573-0.23932 0.25128-0.14359 0.46667l0.35897 0.64615c-0.35897 0.21538-1.1846 0.77778-2.4769 1.6872l-2.1179-1.4718-0.32308 0.07179-0.68205-0.39487c-0.88547 0.64615-1.7829 1.388-2.6923 2.2256l0.10769 0.78974-0.68205-0.25128c-0.86154 0.81368-1.6752 1.6632-2.441 2.5487l0.28718 0.75385-0.82564-0.14359c-0.5265 0.59829-1.2684 1.5197-2.2256 2.7641l0.35898 0.53847-0.75385-0.035897c-0.64615 0.9094-1.2564 1.8068-1.8308 2.6923l0.53846 0.64615-0.17949 0.32308 1.4718 1.4718-0.39487 0.61026-0.57436-0.32308-0.21538 0.35897 0.57436 0.32308-0.57436 0.96923-0.57436-0.28718-0.21538 0.35898 0.61026 0.28718-0.21538 0.32308-2.1538-0.35897-0.21538 0.21538-0.82564-0.0718c-0.40684 0.76581-0.89744 1.8308-1.4718 3.1949l0.53846 0.71795-0.78974-0.0359c-0.47863 1.0769-0.8735 2.1897-1.1846 3.3385l0.46667 0.57436-0.71795 0.14359c-0.23932 0.86154-0.51453 1.9983-0.82564 3.4103l0.68205 0.53846-0.82564 0.28718c-0.21538 1.1009-0.39487 2.2615-0.53846 3.4821l0.61026 0.32308-0.68205 0.32308c-0.071795 0.69402-0.15556 1.7709-0.25128 3.2308l0.82564 0.28718v0.39487l2.0103 0.53846v0.57436h-0.64615l-0.035897 0.43077h0.68205v1.0769l-0.68205 0.0718 0.035897 0.39487 0.64615-0.035894v0.35897l-2.0821 0.75385-0.071795 0.32308-0.75385 0.32308c0.023932 1.1966 0.13162 2.3573 0.32308 3.4821l0.82564 0.32308-0.68205 0.39487c0.14359 1.3402 0.34701 2.5009 0.61026 3.4821l0.71795 0.28718-0.53846 0.46667c0.28718 1.2444 0.62222 2.3692 1.0051 3.3744l0.82564 0.14359-0.57436 0.61026c0.40684 1.1966 0.83761 2.2974 1.2923 3.3026l0.64615-0.0359-0.35897 0.64615c0.43077 1.0051 0.89744 1.9744 1.4 2.9077l0.82564-0.14359 0.17949 0.32308 2.0462-0.53846 0.071795 0.14359-0.57436 0.32308 0.17949 0.35897 0.61026-0.32308 0.57436 0.96923-0.57436 0.32308 0.21538 0.35897 0.53846-0.32308 0.35898 0.57436-1.4718 1.5077 0.17949 0.32308-0.53846 0.64615c0.43077 0.69402 1.041 1.5795 1.8308 2.6564l0.75385-0.0359-0.32308 0.53846c0.71795 1.0051 1.4598 1.9265 2.2256 2.7641l0.82564-0.14359-0.28718 0.75385c0.86154 0.9812 1.6752 1.8188 2.441 2.5128l0.71795-0.21538-0.14359 0.75385c0.81368 0.76581 1.7231 1.5077 2.7282 2.2256l0.68205-0.39487 0.32308 0.07179 2.1897-1.5436c0.95726 0.67009 1.6872 1.1607 2.1897 1.4718l-0.35898 0.61026c-0.14359 0.21538-0.09573 0.38291 0.14359 0.50256l0.28718 0.14359 0.50256-0.89744c0.86154 0.55043 1.7231 1.053 2.5846 1.5077l-0.50256 0.89744 0.32308 0.17949c0.16752 0.14359 0.32308 0.09573 0.46667-0.14359l0.35898-0.61026c0.57436 0.31112 1.4838 0.75385 2.7282 1.3282l-0.25128 2.5487 0.25128 0.21538-0.0359 0.78974c0.95726 0.43077 2.0701 0.83761 3.3385 1.2205l0.57436-0.50256 0.17949 0.71795c1.0769 0.35897 2.2137 0.64615 3.4103 0.86154l0.50256-0.64615 0.25128 0.82564c1.2205 0.23932 2.3932 0.4188 3.5179 0.53846l0.32308-0.57436 0.35897 0.64615c0.93333 0.14359 1.9983 0.22735 3.1949 0.25128l0.28718-0.78974h0.39487l0.53846-2.0103 0.71795 0.0359v0.64615h0.39487l0.0359-0.64615h1.1128l0.0359 0.68205 0.39487-0.0359-0.0359-0.64615h0.39487l0.75385 2.0462 0.32308 0.10769 0.32308 0.71795c1.1248-0.02393 2.2855-0.13162 3.4821-0.32308l0.35897-0.82564 0.39487 0.71795c1.053-0.11966 2.2017-0.32308 3.4462-0.61026l0.28718-0.75385 0.46667 0.57436c1.2923-0.35897 2.4291-0.69402 3.4103-1.0051l0.10769-0.82564 0.64615 0.57436c1.1248-0.38291 2.2256-0.82564 3.3026-1.3282l-0.035898-0.64615 0.64615 0.39487c0.95726-0.43077 1.9265-0.89744 2.9077-1.4l-0.14359-0.82564 0.32308-0.17949-0.57436-2.0462 0.53846-0.25128 0.28718 0.53846 0.39487-0.21538-0.32308-0.53846 0.93333-0.57436 0.39487 0.57436 0.32308-0.25128-0.35898-0.50256 0.32308-0.17949 1.6872 1.4 0.32308-0.07179 0.64615 0.46667c1.0051-0.62222 1.9624-1.3043 2.8718-2.0462l-0.10769-0.89744 0.68205 0.43077c0.59829-0.4547 1.4957-1.2085 2.6923-2.2615l-0.14359-0.75385 0.71795 0.21538c0.55043-0.55043 1.3521-1.4 2.4051-2.5487l-0.28718-0.78974 0.82564 0.17949c0.86154-1.0291 1.5915-1.9504 2.1897-2.7641l-0.35897-0.57436 0.75385 0.0359c0.64615-0.88547 1.2564-1.7829 1.8308-2.6923l-0.53846-0.64615 0.17949-0.32308-1.4718-1.4718 0.07179-0.17949 0.53846 0.39487 0.25128-0.35898-0.57436-0.35897 0.53846-0.96923 0.57436 0.32308 0.21538-0.39487-0.57436-0.28718z"/>
 </g><metadata><rdf:RDF><cc:Work rdf:about=""><dc:creator><cc:Agent><dc:title>https://github.com/adejong5</dc:title></cc:Agent></dc:creator><dc:title>deep-space-nine</dc:title><cc:license rdf:resource="http://creativecommons.org/licenses/by-sa/4.0/"/></cc:Work><cc:License rdf:about="http://creativecommons.org/licenses/by-sa/4.0/"><cc:permits rdf:resource="http://creativecommons.org/ns#Reproduction"/><cc:permits rdf:resource="http://creativecommons.org/ns#Distribution"/><cc:requires rdf:resource="http://creativecommons.org/ns#Notice"/><cc:requires rdf:resource="http://creativecommons.org/ns#Attribution"/><cc:permits rdf:resource="http://creativecommons.org/ns#DerivativeWorks"/><cc:requires rdf:resource="http://creativecommons.org/ns#ShareAlike"/></cc:License></rdf:RDF></metadata></svg>

