<?xml version="1.0" encoding="UTF-8"?>
<!-- Created with Inkscape (http://www.inkscape.org/) -->
<svg width="24mm" height="24mm" version="1.1" viewBox="0 0 24 24" xml:space="preserve" xmlns="http://www.w3.org/2000/svg" xmlns:cc="http://creativecommons.org/ns#" xmlns:dc="http://purl.org/dc/elements/1.1/" xmlns:rdf="http://www.w3.org/1999/02/22-rdf-syntax-ns#"><title>dominion</title><g transform="translate(-91.937 -125.42)"><path d="m106.57 125.42v4.1721l1.0402 1.0402v-5.2123zm1.0402 5.2123v14.8h-7.0614v-5.9755h0.76896v2.9878c0 0.96219 0.3117 2.2162 1.6201 2.2657 1.3084 0.0495 3.7071-0.50416 3.632-15.116l-2.5225-2.5225-11.174 11.174 11.175 11.175 11.175-11.175zm-7.0937 4.9877h0.80599c0.15617 1.0019 0.70273 1.3792 1.4444 1.4444v0.56569c-0.76344 0.1788-1.3536 0.54501-1.4477 1.4477h-0.7851c-0.0695-0.77884-0.55859-1.258-1.4499-1.4498v-0.5591c0.76021-0.13414 1.371-0.45265 1.4323-1.4488zm-4.467 1.4384h2.5651v0.56061h-2.5651z"/></g><metadata><rdf:RDF><cc:Work rdf:about=""><dc:creator><cc:Agent><dc:title>https://github.com/adejong5</dc:title></cc:Agent></dc:creator><dc:title>dominion</dc:title><cc:license rdf:resource="http://creativecommons.org/licenses/by-sa/4.0/"/></cc:Work><cc:License rdf:about="http://creativecommons.org/licenses/by-sa/4.0/"><cc:permits rdf:resource="http://creativecommons.org/ns#Reproduction"/><cc:permits rdf:resource="http://creativecommons.org/ns#Distribution"/><cc:requires rdf:resource="http://creativecommons.org/ns#Notice"/><cc:requires rdf:resource="http://creativecommons.org/ns#Attribution"/><cc:permits rdf:resource="http://creativecommons.org/ns#DerivativeWorks"/><cc:requires rdf:resource="http://creativecommons.org/ns#ShareAlike"/></cc:License></rdf:RDF></metadata></svg>

