<?xml version="1.0" encoding="UTF-8"?>
<!-- Created with Inkscape (http://www.inkscape.org/) -->
<svg width="24mm" height="24mm" version="1.1" viewBox="0 0 24 24" xml:space="preserve" xmlns="http://www.w3.org/2000/svg" xmlns:cc="http://creativecommons.org/ns#" xmlns:dc="http://purl.org/dc/elements/1.1/" xmlns:rdf="http://www.w3.org/1999/02/22-rdf-syntax-ns#"><title>federation</title><g transform="translate(-88.776 -184.58)"><path d="m96.698 206.39c-0.04041-6e-3 -0.30362-0.044-0.58491-0.0844-0.76687-0.11033-1.9066-0.33935-1.9375-0.38933l-0.01261-0.0204 0.21445-0.0496c0.11795-0.0273 0.44588-0.0946 0.72873-0.14957 0.28286-0.055 0.57463-0.11201 0.64838-0.12676l0.13409-0.0268-0.1096-0.0555c-0.09285-0.0471-1.1193-0.43566-3.1708-1.2004-0.42591-0.15878-0.83765-0.34551-0.81398-0.36918 0.0063-6e-3 0.13695 0.0104 0.29029 0.0371 0.39988 0.0696 0.72364 0.10492 0.8787 0.0957l0.1346-8e-3 -0.58766-0.43056c-0.32321-0.23681-0.83562-0.61051-1.1387-0.83045-0.57755-0.41913-0.97469-0.73464-1.1376-0.9038l-0.09681-0.1005h0.03809c0.02095 0 0.15268 0.0533 0.29273 0.11833 0.27028 0.1256 0.37973 0.16207 0.56688 0.18891l0.11633 0.0167-2.65e-4 -0.0212c-1.47e-4 -0.0116-0.11797-0.16441-0.26183-0.33951-1.0645-1.2957-1.6345-2.0373-1.619-2.1065l0.0076-0.0342 0.17143 0.13435c0.18049 0.14146 0.45502 0.28849 0.51413 0.27536l0.03495-8e-3 -0.10111-0.15918c-0.05561-0.0875-0.3016-0.45123-0.54664-0.80817-0.24504-0.35693-0.47461-0.70647-0.51016-0.77673l-0.06464-0.12776v-0.1468l0.10448-0.056 0.10082 0.0155c0.05545 9e-3 0.1704 0.0384 0.25544 0.0663 0.08504 0.028 0.16141 0.044 0.16971 0.0357 0.02546-0.0255-0.31154-1.363-0.50639-2.0099l-0.07362-0.24441 0.04246-0.0424 0.09776 0.13094c0.05377 0.072 0.13758 0.16894 0.18625 0.21539l0.08849 0.0844 0.0453-0.0464 0.03904-0.48938c0.15205-1.9059 0.78412-3.7044 1.7602-5.0086 1.4603-1.9511 4.5302-3.4048 6.8002-3.5889l0.20816-0.0169-0.02734 0.029c-0.01503 0.016-0.20789 0.0985-0.42857 0.18341-4.9105 1.9016-6.4487 5.2221-6.8177 6.2463-0.8159 2.2634-0.47233 4.2502 0.0295 5.6156 1.6745 4.7614 7.6039 6.3748 8.0713 6.4952 0.17196 0.0443 0.3311 0.094 0.35365 0.11052l0.041 0.03-0.03103 0.10356-0.03103 0.10357-0.21482 0.20878-0.11294 0.0531c-0.06212 0.0292-0.21411 0.0819-0.33776 0.11706l-0.22481 0.064-0.79592 6e-3c-0.43776 3e-3 -0.82898 1e-3 -0.86939-5e-3zm6.4041-0.0298c-0.2495-0.0498-0.46436-0.1321-0.60697-0.23263l-0.10492-0.074-0.0726-0.10964-0.0726-0.10965v-0.1124l0.0456-0.0244c0.0251-0.0134 0.20966-0.0694 0.41021-0.12432 0.50057-0.13719 1.0547-0.32617 1.6504-0.56282l0.50204-0.19947 1.2245-0.60748 0.38601-0.23958c1.8058-1.1208 3.092-2.4851 3.9128-4.1505l0.21359-0.43333 0.1155-0.31361c0.21412-0.58142 0.36171-1.1721 0.44244-1.7708l0.038-0.28163 0.0138-0.58776 0.0138-0.58775-0.0402-0.37764c-0.38737-3.6372-3.1252-6.696-7.4038-8.2719l-0.3-0.11049v-0.0511l0.17755 0.0163c2.6726 0.24484 5.791 1.9647 7.0271 3.8756 0.86106 1.3311 1.3704 2.8892 1.5401 4.7111 0.0282 0.30306 0.0567 0.55644 0.0632 0.56306 0.0131 0.0132 0.16503-0.1451 0.30572-0.31838l0.0893-0.10999 0.0344 0.0334-0.12327 0.44864c-0.11782 0.42876-0.42393 1.599-0.45526 1.7405l-0.0149 0.0673 0.0311-3.3e-4c0.0171-1.6e-4 0.11691-0.0277 0.22181-0.0612s0.22259-0.0609 0.26152-0.0609h0.0708l0.077 0.077v0.114l-0.0744 0.1414c-0.0409 0.0778-0.18242 0.29654-0.31446 0.48616-0.40476 0.58123-0.75374 1.0999-0.79635 1.1835l-0.0405 0.0796h0.0382c0.0594 0 0.27541-0.11597 0.47737-0.25627 0.10102-0.0702 0.19855-0.13624 0.21673-0.14679l0.0331-0.0192-0.031 0.0578c-0.0878 0.16412-0.71872 0.97928-1.4287 1.846l-0.48146 0.58776 0.0614 8e-3c0.0997 0.0125 0.33955-0.06 0.64086-0.19363 0.56687-0.25148 0.32102-0.0132-0.92878 0.89996-0.39314 0.28726-0.92703 0.67759-1.1864 0.8674l-0.47161 0.34512 0.0322 0.052 0.25963-0.0164c0.1428-9e-3 0.41117-0.0417 0.59638-0.0726l0.33673-0.0563v0.0217c0 0.0316-0.34851 0.18674-0.78367 0.34884-0.20878 0.0778-0.69919 0.26241-1.0898 0.41031-0.39061 0.14789-0.83143 0.31212-0.97959 0.36495-0.14817 0.0528-0.4765 0.17455-0.72964 0.27049l-0.46025 0.17444 0.0194 0.0188c0.0107 0.0104 0.37747 0.0922 0.81506 0.18189 0.4376 0.0897 0.81229 0.17236 0.83266 0.18375l0.037 0.0207-0.0735 0.0287c-0.1291 0.0504-0.83319 0.19451-1.4918 0.30544l-0.63879 0.1076-0.43741 0.0258c-0.24058 0.0142-0.65935 0.0248-0.93061 0.0236l-0.49321-2e-3zm-3.5755-2.148c-2.9872-0.24048-5.2112-1.4768-6.7147-3.7327l-0.2693-0.40408-0.14325-0.29674c-0.65934-1.3658-0.93071-2.5119-0.92967-3.9265l2.65e-4 -0.35633 0.03561-0.33061c0.27126-2.5183 1.5637-4.5792 3.7194-5.931l0.34649-0.21727 0.44592-0.22482c0.55722-0.28093 0.57523-0.2665 0.09605 0.077-0.20877 0.14964-0.52082 0.38946-0.69343 0.53294l-0.31385 0.26086-0.95743 0.95952-0.1987 0.24913c-1.0581 1.3266-1.6602 2.8805-1.7351 4.4774l-0.01608 0.34286 0.0284 0.37848c0.04729 0.63013 0.17311 1.2561 0.37376 1.8595l0.10118 0.30427 0.27483 0.55336 0.27483 0.55337 0.2248 0.33836c0.12364 0.18609 0.3365 0.47813 0.47302 0.64898l0.24822 0.31062 0.40516 0.4057c1.3205 1.3222 3.3364 2.5094 5.2848 3.1122l0.15306 0.0474v0.047l-0.0551-3e-3c-0.03031-2e-3 -0.23694-0.0177-0.45918-0.0356zm2.0204-3e-3c0.0135-0.0131 0.12918-0.0596 0.25714-0.10332 3.2454-1.1097 5.6018-2.964 6.771-5.328l0.23012-0.4653 0.10864-0.31837c0.13165-0.38581 0.26537-0.90147 0.33658-1.298l0.0528-0.29388 0.0126-0.55911 0.0125-0.5591-0.029-0.31028c-0.0566-0.60505-0.1961-1.2199-0.42054-1.8531l-0.10416-0.29388-0.21513-0.42857c-0.45616-0.90875-0.97287-1.6158-1.7285-2.3653l-0.33703-0.33427-0.40408-0.32277c-0.42086-0.33617-0.64951-0.50709-0.88775-0.66356-0.43726-0.28719 0.35923 0.0556 0.93673 0.40314 2.1019 1.265 3.4162 3.1687 3.8372 5.5579l0.063 0.35752 0.0121 0.6351 0.0121 0.63511-0.0293 0.38122c-0.32288 4.1977-3.7032 7.3103-8.1824 7.5342l-0.32893 0.0164zm-1.5633-4.5133c-0.02825-0.2076-0.09852-0.40022-0.18632-0.58934-0.12968-0.0578-0.26641-0.0974-0.40266-0.13637-0.28958-0.0818-0.28959-0.0817 0.0034-0.15001l0.23869-0.0557 0.19592-0.11051c0.10571-0.32545 0.13813-0.63753 0.18038-0.6353 0.0335-3e-3 0.0642 0.44474 0.17311 0.59774 0.0658 0.0924 0.1644 0.13715 0.44847 0.20358 0.28584 0.0668 0.2897 0.075 0.0613 0.13007-0.59221 0.11556-0.50498 0.26122-0.67981 0.77016-0.02569 0.0582-0.02403 0.0184-0.03251-0.0243zm3.1726-1.6293c-0.0131-0.0533-0.0418-0.17333-0.0637-0.26674-0.0654-0.27958-0.10144-0.31144-0.47187-0.41774-0.11912-0.0342-0.23311-0.0682-0.25331-0.0757l-0.0367-0.0135 0.0367-0.0202c0.0202-0.0111 0.10285-0.0337 0.18367-0.0501 0.15966-0.0327 0.30709-0.10228 0.45456-0.1689 0.10737-0.23183 0.14841-0.62577 0.17628-0.65364 0.0179-0.0179 0.1208 0.47815 0.184 0.58636l0.044 0.0754c0.20898 0.12144 0.4523 0.16756 0.68398 0.22891l-0.0367 0.0132c-0.44138 0.12449-0.68068 0.10212-0.79713 0.60449-0.0227 0.10102-0.0499 0.19974-0.0606 0.21936l-0.0193 0.0357zm-4.9032-0.67062c0-0.21148-0.2092-0.91456-0.22108-0.95395-0.06545-0.0956-0.14264-0.15411-0.2493-0.19872-0.28853-0.10662-0.59014-0.17009-0.88671-0.24967l0.03569-0.0197c0.19852-0.10959 0.64327-0.065 1.0562-0.37318 0.1217-0.28429 0.19299-0.62433 0.27389-1.073 0.08392 0.0979 0.09483 0.76063 0.33237 1.1232 0.58944 0.28839 0.39194 0.11964 1.0513 0.33563 0.04249 0.0425-0.62661 0.1308-1.0454 0.33249l-0.03881 0.0592c-0.19963 0.30467-0.30811 1.3622-0.30811 1.0177zm3.1241-2.6003c-0.0195-0.057-0.0971-0.429-0.14551-0.54473-0.10489-0.25104-0.57296-0.19638-0.70926-0.33268 0.25191-0.0844 0.12334-0.0144 0.64746-0.20444 0.1105-0.21835 0.19192-0.70345 0.21787-0.70328 0.0568 3.3e-4 0.0338 0.47404 0.27949 0.73634 0.28036 0.0821 0.4032 0.11616 0.60388 0.17165-0.0625 0.1011-0.24943 0.037-0.6623 0.24368-0.17168 0.29799-0.18345 0.77377-0.23163 0.63346zm2.3936-0.18106c-0.0636-0.11736-0.0216-0.25446-0.25133-0.98162l-0.0679-0.0635c-0.2942-0.21954-0.69343-0.26686-1.0448-0.35498l-0.0172-0.0516c0.31364-0.0598 0.61866-0.15446 0.92326-0.24872l0.1658-0.1118 0.0592-0.14694c0.0525-0.13031 0.10081-0.32427 0.19978-0.80204 0.0409-0.19728 0.0563-0.17858 0.10613 0.12893 0.0519 0.32013 0.14837 0.66584 0.21647 0.77603l0.0489 0.0792c0.32838 0.1787 0.69411 0.25918 1.06 0.31995 0.0215 0 0.0391 0.0101 0.0391 0.0225v0.0225l-0.23877 0.0521c-0.23961 0.0513-0.47361 0.12409-0.70763 0.19586l-0.0839 0.0565-0.084 0.0565c-0.19295 0.33686-0.2453 0.72217-0.29653 1.1001zm-6.0715-0.25308c-0.03336-5e-3 -0.10801-0.50526-0.23409-0.70751-0.23404-0.10864-0.66447-0.19293-0.66332-0.22359 7.77e-4 -0.0209 0.45243-0.12873 0.66643-0.21811 0.13295-0.28335 0.19313-0.7184 0.2365-0.72076 0.04337-2e-3 0.09845 0.50395 0.20268 0.73958 0.30534 0.13128 0.65212 0.14991 0.65752 0.1903-0.0019 0.0312-0.37584 0.0861-0.62886 0.22679-0.14497 0.32009-0.20179 0.71354-0.23685 0.7133z" stroke-width=".16542"/></g><metadata><rdf:RDF><cc:Work rdf:about=""><dc:creator><cc:Agent><dc:title>https://github.com/adejong5</dc:title></cc:Agent></dc:creator><dc:title>federation-sparse</dc:title><cc:license rdf:resource="http://creativecommons.org/licenses/by-sa/4.0/"/></cc:Work><cc:License rdf:about="http://creativecommons.org/licenses/by-sa/4.0/"><cc:permits rdf:resource="http://creativecommons.org/ns#Reproduction"/><cc:permits rdf:resource="http://creativecommons.org/ns#Distribution"/><cc:requires rdf:resource="http://creativecommons.org/ns#Notice"/><cc:requires rdf:resource="http://creativecommons.org/ns#Attribution"/><cc:permits rdf:resource="http://creativecommons.org/ns#DerivativeWorks"/><cc:requires rdf:resource="http://creativecommons.org/ns#ShareAlike"/></cc:License></rdf:RDF></metadata></svg>

