<?xml version="1.0" encoding="UTF-8"?><svg clip-rule="evenodd" fill-rule="evenodd" stroke-linejoin="round" stroke-miterlimit="2" version="1.1" viewBox="0 0 24 24" xml:space="preserve" xmlns="http://www.w3.org/2000/svg" xmlns:cc="http://creativecommons.org/ns#" xmlns:dc="http://purl.org/dc/elements/1.1/" xmlns:rdf="http://www.w3.org/1999/02/22-rdf-syntax-ns#"><title>federation-full</title><path d="m12.02 3.43c-4.121-0-7.463 3.341-7.463 7.462 0 4.122 3.342 7.463 7.463 7.463 4.122 0 7.463-3.341 7.463-7.463 0-4.121-3.341-7.462-7.463-7.462zm0 14.561c-3.92-0-7.098-3.178-7.098-7.099-0-3.92 3.178-7.098 7.098-7.098 3.921 0 7.099 3.178 7.099 7.098-0 3.921-3.178 7.099-7.099 7.099zm1.826-6.892c0 0.132-0.109 0.241-0.241 0.241-0.133 0-0.242-0.109-0.242-0.241s0.109-0.241 0.242-0.241c0.132-0 0.241 0.109 0.241 0.241zm4.686-1.143c-0 0.146-0.121 0.266-0.267 0.266s-0.267-0.12-0.267-0.266c0-0.147 0.121-0.267 0.267-0.267s0.267 0.12 0.267 0.267zm-0.161 3.169c0 0.146-0.12 0.267-0.266 0.267-0.147-0-0.267-0.121-0.267-0.267s0.12-0.266 0.267-0.266c0.146-0 0.266 0.12 0.266 0.266zm-0.749-3.664c0 0.146-0.12 0.266-0.266 0.266-0.147 0-0.267-0.12-0.267-0.266s0.12-0.267 0.267-0.267c0.146 0 0.266 0.121 0.266 0.267zm-2.153 0.245c0 0.146-0.12 0.267-0.266 0.267-0.147-0-0.267-0.121-0.267-0.267s0.12-0.267 0.267-0.267c0.146 0 0.266 0.121 0.266 0.267zm-5.738-4.955c-0 0.146-0.121 0.266-0.267 0.266s-0.267-0.12-0.267-0.266 0.121-0.267 0.267-0.267 0.267 0.121 0.267 0.267zm4e-3 10.34c0 0.142-0.117 0.259-0.259 0.259s-0.259-0.117-0.259-0.259c-0-0.143 0.117-0.26 0.259-0.26s0.259 0.117 0.259 0.26zm0.094 0.695c-0 0.133-0.109 0.242-0.242 0.242-0.132-0-0.241-0.109-0.241-0.242-0-0.132 0.109-0.241 0.241-0.241 0.133-0 0.242 0.109 0.242 0.241zm3.878-0.267c0 0.132-0.109 0.241-0.241 0.241-0.133 0-0.242-0.109-0.242-0.241 0-0.133 0.109-0.242 0.242-0.242 0.132 0 0.241 0.109 0.241 0.242zm-0.691-1.19c0 0.132-0.109 0.241-0.241 0.241-0.133 0-0.242-0.109-0.242-0.241 0-0.133 0.109-0.242 0.242-0.242 0.132 0 0.241 0.109 0.241 0.242zm-4.529-7.329c0 0.133-0.109 0.242-0.241 0.242-0.133-0-0.242-0.109-0.242-0.242 0-0.132 0.109-0.241 0.242-0.241 0.132-0 0.241 0.109 0.241 0.241zm6.662 2.191c-0 0.108-0.089 0.196-0.197 0.196-0.107 0-0.196-0.088-0.196-0.196 0-0.107 0.089-0.196 0.196-0.196 0.108 0 0.197 0.089 0.197 0.196zm1.265-0.385c0 0.099-0.081 0.18-0.18 0.18s-0.181-0.081-0.181-0.18 0.082-0.181 0.181-0.181 0.18 0.082 0.18 0.181zm-2.835 5.705c0 0.099-0.081 0.181-0.18 0.181s-0.181-0.082-0.181-0.181 0.082-0.18 0.181-0.18 0.18 0.081 0.18 0.18zm-1.069 1.141c-0 0.1-0.082 0.181-0.181 0.181s-0.181-0.081-0.181-0.181c0-0.099 0.082-0.18 0.181-0.18s0.181 0.081 0.181 0.18zm2.009-6.311c-0 0.115-0.095 0.21-0.211 0.21s-0.211-0.095-0.211-0.21c0-0.116 0.095-0.211 0.211-0.211s0.211 0.095 0.211 0.211zm0.418-0.994c-0 0.112-0.093 0.204-0.204 0.205-0.112-1e-3 -0.204-0.093-0.204-0.205-0-0.111 0.092-0.204 0.204-0.204 0.111 0 0.204 0.093 0.204 0.204zm-1.578 2.354c-0 0.112-0.092 0.204-0.204 0.204s-0.204-0.092-0.204-0.204 0.092-0.204 0.204-0.204 0.204 0.092 0.204 0.204zm1.812-0.196c-0 0.106-0.087 0.193-0.193 0.193s-0.193-0.087-0.193-0.193 0.087-0.193 0.193-0.193 0.193 0.087 0.193 0.193zm0.378 0.667c-0 0.109-0.089 0.198-0.197 0.198-0.109-0-0.198-0.089-0.198-0.198 0-0.108 0.089-0.197 0.198-0.197 0.108-0 0.197 0.089 0.197 0.197zm0.718 0.95c0 0.099-0.081 0.181-0.18 0.181s-0.181-0.082-0.181-0.181 0.082-0.181 0.181-0.181 0.18 0.082 0.18 0.181zm0.91 2.817c-0 0.099-0.082 0.181-0.181 0.181s-0.181-0.082-0.181-0.181 0.082-0.18 0.181-0.18 0.181 0.081 0.181 0.18zm-3.999-0.16c0 0.099-0.081 0.181-0.18 0.181s-0.181-0.082-0.181-0.181 0.081-0.181 0.181-0.181c0.099 0 0.18 0.082 0.18 0.181zm-0.276 1.177c-0 0.099-0.082 0.18-0.181 0.18s-0.18-0.081-0.18-0.18 0.081-0.181 0.18-0.181 0.181 0.082 0.181 0.181zm-3.566-0.348c-0 0.099-0.082 0.181-0.181 0.181s-0.181-0.082-0.181-0.181 0.082-0.181 0.181-0.181 0.181 0.082 0.181 0.181zm-1.017 0.78c0 0.099-0.081 0.181-0.18 0.181s-0.181-0.082-0.181-0.181 0.082-0.181 0.181-0.181 0.18 0.082 0.18 0.181zm-0.196-0.994c0 0.099-0.081 0.181-0.18 0.181s-0.181-0.082-0.181-0.181 0.082-0.181 0.181-0.181 0.18 0.082 0.18 0.181zm5.082 2.1c-0 0.099-0.082 0.18-0.181 0.18s-0.18-0.081-0.18-0.18c-0-0.1 0.081-0.181 0.18-0.181s0.181 0.081 0.181 0.181zm-4.6-3.058c-0 0.099-0.082 0.18-0.181 0.18s-0.181-0.081-0.181-0.18c0-0.1 0.082-0.181 0.181-0.181s0.181 0.081 0.181 0.181zm-1.052 0.855c-0 0.1-0.082 0.181-0.181 0.181s-0.181-0.081-0.181-0.181c0-0.099 0.082-0.18 0.181-0.18s0.181 0.081 0.181 0.18zm-1.166-1.048c0 0.099-0.081 0.18-0.18 0.18s-0.181-0.081-0.181-0.18 0.082-0.181 0.181-0.181 0.18 0.082 0.18 0.181zm-0.458-5.344c0 0.099-0.081 0.181-0.18 0.181-0.1-0-0.181-0.082-0.181-0.181s0.081-0.18 0.181-0.18c0.099-0 0.18 0.081 0.18 0.18zm1.551 1.939c0 0.099-0.081 0.181-0.18 0.181s-0.181-0.082-0.181-0.181 0.082-0.18 0.181-0.18 0.18 0.081 0.18 0.18zm1.164 0.575c-0 0.099-0.082 0.181-0.181 0.181s-0.18-0.082-0.18-0.181 0.081-0.18 0.18-0.18 0.181 0.081 0.181 0.18zm-0.593 0.985c0 0.1-0.082 0.181-0.181 0.181s-0.18-0.081-0.18-0.181c-0-0.099 0.081-0.18 0.18-0.18s0.181 0.081 0.181 0.18zm1.578 0.634c-0 0.099-0.082 0.18-0.181 0.18s-0.18-0.081-0.18-0.18c-0-0.1 0.081-0.181 0.18-0.181s0.181 0.081 0.181 0.181zm-0.651-1e-3c0 0.1-0.081 0.181-0.18 0.181-0.1 0-0.181-0.081-0.181-0.181-0-0.099 0.081-0.18 0.181-0.18 0.099-0 0.18 0.081 0.18 0.18zm0.393 1.07c-0 0.099-0.082 0.181-0.181 0.181-0.1 0-0.181-0.082-0.181-0.181s0.081-0.181 0.181-0.181c0.099 0 0.181 0.082 0.181 0.181zm0.847-0.258c-0 0.099-0.082 0.181-0.181 0.181-0.1-0-0.181-0.082-0.181-0.181s0.081-0.181 0.181-0.181c0.099-0 0.181 0.082 0.181 0.181zm0.151-1.32c0 0.099-0.082 0.181-0.181 0.181s-0.181-0.082-0.181-0.181 0.082-0.18 0.181-0.18 0.181 0.081 0.181 0.18zm6.125-6.722c-0 0.099-0.082 0.181-0.181 0.181s-0.181-0.082-0.181-0.181 0.082-0.181 0.181-0.181 0.181 0.082 0.181 0.181zm0.722 1.373c-0 0.099-0.082 0.181-0.181 0.181s-0.18-0.082-0.18-0.181 0.081-0.181 0.18-0.181 0.181 0.082 0.181 0.181zm-1.213-0.428c0 0.099-0.081 0.181-0.18 0.181h-1e-3c-0.099-0-0.18-0.082-0.18-0.181s0.081-0.181 0.18-0.181h1e-3c0.099 0 0.18 0.082 0.18 0.181zm0.986 1.872c-0 0.1-0.082 0.181-0.181 0.181s-0.181-0.081-0.181-0.181c0-0.099 0.082-0.18 0.181-0.18s0.181 0.081 0.181 0.18zm-0.148-0.561c0 0.099-0.081 0.18-0.18 0.18s-0.181-0.081-0.181-0.18 0.082-0.181 0.181-0.181 0.18 0.082 0.18 0.181zm-1.141 0.33c0 0.099-0.081 0.18-0.18 0.18-0.1 0-0.181-0.081-0.181-0.18-0-0.1 0.081-0.181 0.181-0.181 0.099-0 0.18 0.081 0.18 0.181zm2.193 3.014c0 0.114-0.092 0.206-0.206 0.206s-0.206-0.092-0.206-0.206 0.092-0.206 0.206-0.206 0.206 0.092 0.206 0.206zm0-2.448c0 0.099-0.081 0.18-0.18 0.18s-0.181-0.081-0.181-0.18 0.082-0.181 0.181-0.181 0.18 0.082 0.18 0.181zm-1.426 0.949c0 0.099-0.082 0.181-0.181 0.181s-0.181-0.082-0.181-0.181 0.082-0.181 0.181-0.181 0.181 0.082 0.181 0.181zm-3.317 3.156c0 0.099-0.081 0.181-0.18 0.181s-0.181-0.082-0.181-0.181 0.082-0.18 0.181-0.18 0.18 0.081 0.18 0.18zm-0.873-1.471c-0 0.099-0.082 0.181-0.181 0.181s-0.181-0.082-0.181-0.181 0.082-0.181 0.181-0.181 0.181 0.082 0.181 0.181zm3.708-1.792c0 0.099-0.081 0.181-0.18 0.181s-0.181-0.082-0.181-0.181 0.082-0.18 0.181-0.18 0.18 0.081 0.18 0.18zm-2.244 2.352c0 0.099-0.081 0.18-0.181 0.18-0.099 0-0.181-0.08-0.181-0.18s0.081-0.181 0.181-0.181 0.181 0.081 0.181 0.181zm1.054-0.426c0 0.099-0.081 0.181-0.18 0.181s-0.181-0.082-0.181-0.181 0.082-0.181 0.181-0.181 0.18 0.082 0.18 0.181zm-2.59 0.713c0 0.099-0.081 0.181-0.18 0.181s-0.181-0.082-0.181-0.181 0.082-0.181 0.181-0.181 0.18 0.082 0.18 0.181zm-0.659-0.214c-0 0.099-0.082 0.181-0.181 0.181s-0.181-0.082-0.181-0.181 0.082-0.181 0.181-0.181 0.181 0.082 0.181 0.181zm-0.027 0.981c-0 0.099-0.082 0.181-0.181 0.181s-0.18-0.082-0.18-0.181 0.081-0.181 0.18-0.181 0.181 0.082 0.181 0.181zm-0.308-1.516c0 0.099-0.081 0.181-0.18 0.181h-1e-3c-0.099 0-0.18-0.082-0.18-0.181s0.081-0.18 0.18-0.18h1e-3c0.099-0 0.18 0.081 0.18 0.18zm-0.771-1.515c0 0.099-0.081 0.18-0.181 0.18-0.099 0-0.18-0.081-0.18-0.18s0.081-0.181 0.18-0.181c0.1 0 0.181 0.082 0.181 0.181zm1.782-1.001c-0 0.099-0.082 0.18-0.181 0.18s-0.181-0.081-0.181-0.18 0.082-0.181 0.181-0.181 0.181 0.082 0.181 0.181zm-0.464-3.014c-0 0.1-0.082 0.181-0.181 0.181s-0.18-0.081-0.18-0.181c-0-0.099 0.081-0.18 0.18-0.18s0.181 0.081 0.181 0.18zm-2.138 1.044c-0 0.099-0.082 0.181-0.181 0.181s-0.181-0.082-0.181-0.181 0.082-0.18 0.181-0.18 0.181 0.081 0.181 0.18zm1.239-0.078c0 0.146-0.12 0.266-0.267 0.266-0.146 0-0.266-0.12-0.266-0.266-0-0.147 0.12-0.267 0.266-0.267 0.147-0 0.267 0.12 0.267 0.267zm-4.825 4.824c0 0.147-0.12 0.267-0.266 0.267-0.147 0-0.267-0.12-0.267-0.267-0-0.146 0.12-0.266 0.267-0.266 0.146-0 0.266 0.12 0.266 0.266zm0.536-1.894c-0 0.146-0.121 0.267-0.267 0.267s-0.267-0.121-0.267-0.267 0.121-0.267 0.267-0.267 0.267 0.121 0.267 0.267zm7.982-5.508c-0 0.133-0.109 0.242-0.242 0.242-0.132-0-0.241-0.109-0.241-0.242-0-0.132 0.109-0.241 0.241-0.241 0.133 0 0.242 0.109 0.242 0.241zm-1.287 0.197c-0 0.133-0.109 0.242-0.242 0.242-0.132-0-0.241-0.109-0.241-0.242-0-0.132 0.109-0.241 0.241-0.241 0.133-0 0.242 0.109 0.242 0.241zm-7.146 7.984c0 0.132-0.109 0.241-0.241 0.241-0.133 0-0.242-0.109-0.242-0.241 0-0.133 0.109-0.242 0.242-0.242 0.132 0 0.241 0.109 0.241 0.242zm2.791 1.168c-0 0.132-0.109 0.241-0.242 0.241-0.132 0-0.241-0.109-0.241-0.241-0-0.133 0.109-0.242 0.241-0.242 0.133 0 0.242 0.109 0.242 0.242zm3.298-2.933c0 0.132-0.109 0.241-0.241 0.241-0.133 0-0.242-0.109-0.242-0.241 0-0.133 0.109-0.242 0.242-0.242 0.132 0 0.241 0.109 0.241 0.242zm4.437-3.361c0 0.182-0.15 0.332-0.332 0.332s-0.332-0.15-0.332-0.332c-0-0.183 0.15-0.333 0.332-0.333s0.332 0.15 0.332 0.333zm1.795 0.692c0 0.18-0.148 0.329-0.329 0.329-0.18-0-0.329-0.149-0.329-0.329 0-0.181 0.149-0.329 0.329-0.329 0.181-0 0.329 0.148 0.329 0.329zm-10.41 5.744c-0 0.181-0.149 0.33-0.329 0.33-0.181-0-0.329-0.149-0.329-0.33-0-0.18 0.148-0.329 0.329-0.329 0.18 0 0.329 0.149 0.329 0.329zm4.32-0.227c-0 0.179-0.147 0.325-0.325 0.325s-0.325-0.146-0.325-0.325c0-0.178 0.147-0.324 0.325-0.324s0.325 0.146 0.325 0.324zm-0.037-3.762c-0 0.168-0.138 0.306-0.306 0.306s-0.306-0.138-0.306-0.306 0.138-0.306 0.306-0.306 0.306 0.138 0.306 0.306zm-1.595 4.417c-0 0.181-0.149 0.33-0.329 0.33-0.181-0-0.329-0.149-0.329-0.33-0-0.18 0.148-0.329 0.329-0.329 0.18 0 0.329 0.149 0.329 0.329zm2.166-2.367c0 0.181-0.148 0.329-0.329 0.329-0.18 0-0.329-0.148-0.329-0.329 0-0.18 0.149-0.329 0.329-0.329 0.181 0 0.329 0.149 0.329 0.329zm1.959-1.263c0 0.18-0.148 0.329-0.329 0.329-0.18-0-0.329-0.149-0.329-0.329 0-0.181 0.149-0.33 0.329-0.33 0.181 1e-3 0.329 0.149 0.329 0.33zm0.868 1.902c-0.023-0-1.058-0.017-1.229-0.188s-0.187-1.206-0.188-1.229c-0 0.023-0.018 1.058-0.188 1.229-0.169 0.17-1.195 0.187-1.228 0.188h-1e-3 1e-3 -1e-3 1e-3c0.033 1e-3 1.058 0.018 1.228 0.188 0.172 0.171 0.188 1.206 0.188 1.229 1e-3 -0.023 0.018-1.058 0.188-1.229 0.171-0.171 1.206-0.188 1.229-0.188zm-0.695-3.964c-0.024-0-1.133-0.018-1.316-0.201s-0.201-1.292-0.202-1.316v-1e-3 1e-3 -1e-3 1e-3c0 0.024-0.018 1.133-0.201 1.316-0.182 0.182-1.28 0.201-1.316 0.201h-1e-3 1e-3 -1e-3 1e-3c0.036 1e-3 1.134 0.019 1.316 0.201 0.183 0.183 0.201 1.292 0.201 1.317 1e-3 -0.025 0.018-1.134 0.202-1.317 0.183-0.183 1.291-0.2 1.316-0.201zm-3.299 2.314h-1e-3c-0.031-0-1.469-0.023-1.706-0.26-0.238-0.238-0.26-1.675-0.261-1.707v-1e-3 1e-3 -1e-3 1e-3c-0 0.032-0.023 1.469-0.261 1.707-0.236 0.236-1.66 0.26-1.706 0.26h-1e-3 1e-3 -1e-3 1e-3c0.046 1e-3 1.47 0.025 1.706 0.261 0.238 0.238 0.261 1.675 0.261 1.707 1e-3 -0.032 0.023-1.469 0.261-1.707 0.237-0.237 1.675-0.26 1.706-0.261h1e-3zm0.269 7.639c-4.325 0-7.831-3.506-7.831-7.831 0-4.324 3.506-7.83 7.831-7.83s7.831 3.506 7.831 7.83c-0 4.325-3.506 7.831-7.831 7.831zm-6.686-13.631c0.707-0.58 1.513-1.819 1.513-1.819s-0.259 0.014-0.603 0.204c-0.428 0.235-0.962 0.656-0.962 0.656l0.052-0.521s-0.424 0.336-0.695 0.782c-0.277 0.454-0.399 1.017-0.399 1.017s0.509 0.161 1.094-0.319zm-1.34 1.688c0.401-0.363 0.689-0.874 0.689-0.874s-0.245 0.122-0.473 0.159c-0.166 0.027-0.335-0.029-0.335-0.029s-0.088-0.183-0.071-0.496c0.021-0.373 0.149-0.885 0.149-0.885s-0.475 0.512-0.681 1.129c-0.057 0.173-0.101 0.352-0.133 0.527-0.126 0.586-0.099 1.081-0.099 1.081s0.534-0.232 0.954-0.612zm-0.751 1.91c0.326-0.358 0.527-0.907 0.527-0.907s-0.275 0.154-0.559 0.219c-0.215 0.05-0.457 0.016-0.457 0.016s-0.076-0.224-0.106-0.543c-0.054-0.569-0.024-1.465-0.024-1.465s-0.491 0.891-0.511 1.697c-0.02 0.743 0.38 1.483 0.38 1.483s0.438-0.155 0.75-0.5zm-0.932 2.247s0.476-0.359 0.734-0.779c0.237-0.387 0.256-0.837 0.256-0.837s-0.23 0.126-0.474 0.221c-0.224 0.087-0.464 0.144-0.464 0.144s-0.266-0.291-0.43-0.672c-0.248-0.58-0.431-1.335-0.431-1.335s-0.263 1.011-0.06 1.833c0.201 0.808 0.869 1.425 0.869 1.425zm0.13 1.982s0.329-0.347 0.506-0.784c0.187-0.462 0.224-1.015 0.224-1.015l-0.756 0.677s-0.406-0.269-0.755-0.73c-0.478-0.632-0.94-1.511-0.94-1.511s-0.058 1.375 0.376 2.223c0.426 0.834 1.345 1.14 1.345 1.14zm0.495 1.824s0.29-0.336 0.382-0.769c0.114-0.544 0.035-1.212 0.035-1.212s-0.132 0.277-0.301 0.53c-0.141 0.213-0.324 0.409-0.324 0.409s-0.474-0.191-0.937-0.628c-0.651-0.614-1.383-1.614-1.383-1.614s0.067 1.491 0.687 2.286c0.631 0.808 1.841 0.998 1.841 0.998zm1.017 1.747s0.176-0.47 0.17-0.991c-7e-3 -0.572-0.196-1.199-0.196-1.199l-0.6 1.147s-0.563 0.018-1.126-0.278c-0.688-0.362-1.402-1.051-1.402-1.051s0.467 1.303 1.277 1.912c0.766 0.577 1.877 0.46 1.877 0.46zm1.225 1.512s0.083-0.53 4e-3 -1.013c-0.09-0.555-0.343-1.073-0.343-1.073s-0.048 0.379-0.162 0.72c-0.092 0.279-0.255 0.532-0.255 0.532s-0.321 0.047-0.731 0.011c-0.588-0.052-1.329-0.194-1.329-0.194s0.401 0.554 1.122 0.814c0.686 0.248 1.694 0.203 1.694 0.203zm0.573-0.913-0.104 1.33s-0.302 0.119-0.705 0.135c-0.53 0.022-1.198-0.057-1.198-0.057s0.584 0.498 1.28 0.659c0.712 0.165 1.536-7e-3 1.536-7e-3s0.087-0.47-0.099-0.92c-0.215-0.522-0.71-1.14-0.71-1.14zm4.889 2.739c-0.446-0.246-1.109-0.392-1.109-0.392s-0.668-0.109-1.301-0.294c-0.618-0.18-1.201-0.436-1.201-0.436s0.131 0.326 0.06 0.551c-0.059 0.189-0.321 0.283-0.321 0.283l0.573 0.182s1.448 0.042 2.295 0.18c0.751 0.122 0.912 0.342 0.912 0.342s-0.092 0.096-0.414 0.148c-0.461 0.074-1.15 0.06-1.15 0.06l0.495 0.469s0.543 0.067 1.012-0.069c0.429-0.124 0.787-0.452 0.787-0.452s-0.211-0.336-0.638-0.572zm8.094-14.736c0.585 0.48 1.094 0.319 1.094 0.319s-0.123-0.563-0.399-1.018c-0.271-0.445-0.696-0.781-0.696-0.781l0.052 0.521s-0.533-0.421-0.961-0.656c-0.345-0.19-0.603-0.204-0.603-0.204s0.806 1.239 1.513 1.819zm1.34 1.688c0.42 0.38 0.953 0.612 0.953 0.612s0.028-0.494-0.098-1.08c-0.033-0.175-0.076-0.355-0.133-0.528-0.206-0.617-0.681-1.129-0.681-1.129s0.127 0.513 0.148 0.885c0.018 0.313-0.07 0.497-0.07 0.497s-0.169 0.055-0.335 0.028c-0.228-0.037-0.473-0.159-0.473-0.159s0.288 0.511 0.689 0.874zm0.224 1.003s0.201 0.549 0.527 0.907c0.313 0.345 0.75 0.501 0.75 0.501s0.399-0.741 0.381-1.484c-0.021-0.805-0.511-1.697-0.511-1.697s0.029 0.896-0.024 1.465c-0.031 0.32-0.106 0.543-0.106 0.543s-0.242 0.034-0.458-0.015c-0.284-0.066-0.559-0.22-0.559-0.22zm0.943 1.759c-0.244-0.095-0.474-0.221-0.474-0.221s0.02 0.45 0.256 0.837c0.258 0.42 0.734 0.779 0.734 0.779s0.668-0.617 0.868-1.425c0.204-0.822-0.06-1.833-0.06-1.833s-0.182 0.755-0.43 1.335c-0.164 0.381-0.43 0.672-0.43 0.672s-0.24-0.057-0.464-0.144zm0.412 2.256-0.756-0.678s0.037 0.553 0.224 1.015c0.177 0.437 0.506 0.784 0.506 0.784s0.919-0.306 1.345-1.14c0.434-0.847 0.376-2.223 0.376-2.223s-0.462 0.879-0.94 1.511c-0.349 0.462-0.755 0.731-0.755 0.731zm0.624 1.275c-0.463 0.437-0.937 0.628-0.937 0.628s-0.182-0.196-0.325-0.409c-0.168-0.253-0.3-0.53-0.3-0.53s-0.079 0.668 0.035 1.213c0.091 0.432 0.382 0.768 0.382 0.768s1.21-0.189 1.841-0.998c0.62-0.794 0.687-2.286 0.687-2.286s-0.731 1-1.383 1.614zm-1.536 2.374-0.6-1.147s-0.189 0.627-0.196 1.199c-7e-3 0.521 0.17 0.991 0.17 0.991s1.111 0.117 1.877-0.46c0.81-0.609 1.277-1.912 1.277-1.912s-0.714 0.689-1.402 1.052c-0.563 0.295-1.126 0.277-1.126 0.277zm-1.095 1.721s-0.163-0.254-0.256-0.532c-0.113-0.341-0.161-0.72-0.161-0.72s-0.253 0.518-0.344 1.073c-0.078 0.483 5e-3 1.013 5e-3 1.013s1.008 0.045 1.694-0.203c0.721-0.26 1.121-0.814 1.121-0.814s-0.741 0.142-1.328 0.194c-0.41 0.036-0.731-0.011-0.731-0.011zm-0.521 1.386c-0.402-0.016-0.704-0.135-0.704-0.135l-0.105-1.33s-0.494 0.618-0.71 1.14c-0.186 0.45-0.098 0.92-0.098 0.92s0.824 0.172 1.536 7e-3c0.696-0.161 1.279-0.659 1.279-0.659s-0.667 0.079-1.197 0.057h-1e-3zm-2.147 0.703c-0.07-0.225 0.061-0.551 0.061-0.551s-0.584 0.256-1.201 0.436c-0.634 0.185-1.302 0.294-1.302 0.294s-0.663 0.146-1.108 0.392c-0.427 0.236-0.638 0.572-0.638 0.572s0.358 0.328 0.787 0.452c0.469 0.136 1.012 0.07 1.012 0.07l0.495-0.47s-0.689 0.014-1.15-0.06c-0.323-0.052-0.414-0.148-0.414-0.148s0.161-0.22 0.912-0.342c0.846-0.137 2.294-0.179 2.294-0.179l0.574-0.183s-0.263-0.094-0.322-0.283z" stroke-width=".09px"/><metadata><rdf:RDF><cc:Work rdf:about=""><dc:creator><cc:Agent><dc:title>Mert the Macaron Killer</dc:title></cc:Agent></dc:creator><dc:title>federation-full</dc:title><cc:license rdf:resource="http://creativecommons.org/licenses/by-sa/4.0/"/></cc:Work><cc:License rdf:about="http://creativecommons.org/licenses/by-sa/4.0/"><cc:permits rdf:resource="http://creativecommons.org/ns#Reproduction"/><cc:permits rdf:resource="http://creativecommons.org/ns#Distribution"/><cc:requires rdf:resource="http://creativecommons.org/ns#Notice"/><cc:requires rdf:resource="http://creativecommons.org/ns#Attribution"/><cc:permits rdf:resource="http://creativecommons.org/ns#DerivativeWorks"/><cc:requires rdf:resource="http://creativecommons.org/ns#ShareAlike"/></cc:License></rdf:RDF></metadata></svg>