<svg version="1.1" viewBox="0 0 24 24" xmlns="http://www.w3.org/2000/svg" xmlns:cc="http://creativecommons.org/ns#" xmlns:dc="http://purl.org/dc/elements/1.1/" xmlns:rdf="http://www.w3.org/1999/02/22-rdf-syntax-ns#"><title>Klingon Face</title><path d="m12.022 0c-0.72183 0-1.4947 0.19103-2.2601 0.53845-0.84951 0.25825-3.1636 1.1307-4.6896 3.3218-2.6906 3.8621-0.1304 5.554-2.4715 8.1712-2.8732 3.2105-1.8144 8.2618 0.23149 8.9189 2.026 0.64931 4.0022-0.01333 5.2691-0.60688 0.78568 0.62735 1.6277 1.0716 2.3717 1.3458 0.6042 1.051 1.5489 2.3107 1.5489 2.3107s0.94252-1.2572 1.547-2.3071c0.74997-0.27804 1.587-0.72975 2.3649-1.353 1.2666 0.59511 3.2471 1.2613 5.2775 0.61047 2.0463-0.65707 3.1047-5.7083 0.23175-8.9189l2e-4 -2.27e-4c-2.3412-2.6173 0.21897-4.3092-2.4715-8.1715-1.5809-2.2695-4.0074-3.1244-4.7752-3.3469-0.73932-0.33057-1.4823-0.51292-2.1745-0.51291zm2.13e-4 1.6676c1.1694 1.6e-4 2.7283 0.87109 3.8787 2.1675l-4.4e-4 -8e-5c0.89627 1.01 2.3432 3.1744 1.9657 6.3231-0.0284 0.23685 0.04573 0.4744 0.20428 0.65267 4e-3 0.0053 0.0093 8e-3 0.01373 0.012-0.07827 1.0963-0.26792 2.4946-0.48092 3.648-0.31604 0.1028-0.55244 0.38673-0.57557 0.73533-0.0756 1.1495-0.50836 2.0928-1.1155 2.8451-0.29771-1.0765-0.99907-2.2966-2.9264-2.3856v1.3186s1.7588 0.16939 2.6377 1.4005c-0.73916 0.78856-1.6462 1.3302-2.3841 1.6431-0.66764-0.51101-1.2126-1.5889-1.2126-1.5889s-0.53941 1.0719-1.2046 1.5848c-0.73361-0.31605-1.6474-0.86231-2.3868-1.6571 0.88349-1.2144 2.6233-1.3825 2.6233-1.3825v-1.3186c-1.9274 0.08827-2.6162 1.2894-2.9188 2.3595-0.60091-0.75092-1.0428-1.691-1.1331-2.8335-0.0212-0.2672-0.16267-0.49628-0.37324-0.63313-0.22476-1.2475-0.40452-2.7797-0.5228-3.9761 0.0572-0.13417 0.084533-0.28091 0.065867-0.42883-0.39441-3.1561 1.0259-5.3022 1.907-6.3002 1.3332-1.5104 2.9389-2.1864 3.9387-2.1864zm-4.4732 4.7004c-0.15035 0.24792-0.045333 3.0823 1.1925 3.5274 1.2365 0.446 2.2771 0.15191 2.3841 0.19841-0.06827-0.03693-2.6942-1.4695-3.5766-3.7258zm3.5766 3.7258c8.94e-4 4.94e-4 0.0012 7.34e-4 0.0012 7.34e-4l-5.3e-5 -1.07e-4c-4.13e-4 -2.13e-4 -8.4e-4 -4.27e-4 -0.0012-6.27e-4zm5.3714-3.7258c-0.8824 2.2563-3.5084 3.6889-3.5766 3.7258 0.10693-0.0464 1.1476 0.24759 2.3841-0.19841 1.2379-0.44512 1.3429-3.2795 1.1925-3.5274zm-3.5766 3.7258c-4.53e-4 2e-4 -8.66e-4 4.14e-4 -0.0012 6.27e-4l-5.3e-5 1.07e-4s4.53e-4 -2.4e-4 0.0012-7.34e-4zm-4.1405 0.96723c-0.74859 0-1.3555 0.60687-1.3555 1.3554 0 0.74865 0.60687 1.3555 1.3555 1.3555s1.3555-0.60688 1.3555-1.3555c0-0.74857-0.60688-1.3554-1.3555-1.3554zm6.4862 0c-0.74859 0-1.3555 0.60687-1.3555 1.3554 0 0.74865 0.60687 1.3555 1.3555 1.3555 0.74857 0 1.3554-0.60688 1.3554-1.3555 0-0.74857-0.60687-1.3554-1.3554-1.3554z" stroke-width=".020077"/><metadata><rdf:RDF><cc:Work rdf:about=""><dc:creator><cc:Agent><dc:title>Noun Project</dc:title></cc:Agent></dc:creator><dc:title>klingon-face</dc:title><cc:license rdf:resource="http://creativecommons.org/licenses/by-sa/4.0/"/></cc:Work><cc:License rdf:about="http://creativecommons.org/licenses/by-sa/4.0/"><cc:permits rdf:resource="http://creativecommons.org/ns#Reproduction"/><cc:permits rdf:resource="http://creativecommons.org/ns#Distribution"/><cc:requires rdf:resource="http://creativecommons.org/ns#Notice"/><cc:requires rdf:resource="http://creativecommons.org/ns#Attribution"/><cc:permits rdf:resource="http://creativecommons.org/ns#DerivativeWorks"/><cc:requires rdf:resource="http://creativecommons.org/ns#ShareAlike"/></cc:License></rdf:RDF></metadata></svg>