<svg enable-background="new 0 0 100 100" version="1.1" viewBox="0 0 24 24" xmlns="http://www.w3.org/2000/svg" xmlns:cc="http://creativecommons.org/ns#" xmlns:dc="http://purl.org/dc/elements/1.1/" xmlns:rdf="http://www.w3.org/1999/02/22-rdf-syntax-ns#"><title>Bird of Prey</title><path d="m23.874 8.907v-0.54001h0.05733v-0.18533c0-0.30454-0.28027-0.34987-0.28027-0.34987l-2.371-0.47547-0.37014-0.1792 0.14907-0.72054-0.79948-0.1704-1.4701-0.2992-0.1768 0.68054-0.08187 0.024v-0.97121h-0.1648v0.68107c-0.0424-0.01413-0.08667-0.02693-0.1304-0.04053v-0.64054h-0.16587v0.59627c-0.03947-0.0112-0.08-0.02133-0.12054-0.03013v-0.56615h-0.16586v0.52774c-0.04747-0.0099-0.09573-0.0192-0.14507-0.02907v-0.49867h-0.16587v0.46694c-0.0464-8e-3 -0.09067-0.01627-0.13707-0.02427v-0.44267h-0.16587v0.416c-0.04347-0.0069-0.08667-0.0128-0.1312-0.01867v-0.39734h-0.16587v0.37467c-0.04347-0.0059-0.08773-0.0112-0.13334-0.01733v-0.35734h-0.1648v0.33814c-0.04853-0.0051-0.09573-0.01093-0.1432-0.01493v-0.3232h-0.16694v0.30587c-0.04533-4e-3 -0.0888-0.0069-0.13227-0.01173v-0.29414h-0.16587v0.28027c-0.04347-0.0029-0.08773-0.0053-0.1304-0.0085v-0.27177h-0.1648v0.26c-0.03947-0.0024-0.07893-0.0056-0.11654-8e-3v-0.252h-0.16694v0.24267c-0.0464-0.0029-0.08987-0.0045-0.13333-0.0069v-0.23574h-0.16774v0.22854c-0.0424-0.0011-0.08587-0.0035-0.12747-0.0045v-0.224h-0.16587v0.21867c-0.04533-0.0011-0.0888-0.0029-0.1304-4e-3v-0.21467h-0.16694v0.21174c-0.04827-0.0016-0.09173-0.0016-0.13414-0.0027v-0.20907h-0.16587v0.20827c-0.0888-0.0011-0.13813 0-0.13813 0v-0.20827h-0.1648v0.2064c-1.2003 0-1.4856 0.87948-1.4856 0.87948h-0.87361c-0.82614-0.03893-1.8104 1.1771-1.8104 1.1771h-0.34934c-0.07387-0.07467-0.228-0.092-0.228-0.092-0.23894 0-0.2496 0.12534-0.2496 0.12534l-0.51334 0.0232-0.18054 0.14747h-1.0819c-0.67014-0.62481-2.2643-0.64854-2.2643-0.64854 0-0.13574-0.23787-0.15894-0.23787-0.15894-0.58054 0-0.50054 0.17067-0.50054 0.17067s-0.78561 0.01173-1.4896 0.05627c-0.70561 0.04533-1.5251 0.456-1.5251 0.456h-0.22614l-0.18267 0.1008 0.10267 0.16027-0.1144 0.26107-0.68214 0.0576v0.18267l0.28534 0.3184 0.27254 0.0568 0.17067 0.19307-0.0672 0.136h0.07893v0.12533h0.34054l0.14907 0.17067 0.15894-0.1016 0.97734 0.31734h1.5477l0.2656-0.14747c0.21014 0.1336 0.59041 0.11893 0.59041 0.11893s0.01173 0.1264 0.18454 0.1264c0.17574 0 0.1904-0.116 0.1904-0.116 0.75601-0.05627 1.1795-0.51467 1.1795-0.51467 0.0208 0.08987 0.1264 0.108 0.1264 0.108h0.41654l0.05733 0.0592h0.73334l0.0336-0.03307h0.23894v0.04h0.90908l0.03653-0.0504h0.74028l0.11467 0.0656h1.4915v-0.1104h1.7944c0.24 0.1752 0.79761 0.37547 0.79761 0.37547v0.51734l0.02773 0.02747-0.86961 1.3301-1.3957 2.2555-1.8299 2.8664v0.10454c-0.47094 0.0504-1.8558 0.42507-1.8558 0.42507h-0.19947l-0.04053-0.04h-0.14612v0.25067h0.18667v-0.03493h0.1896v0.08933h-1.9062l-0.10934 0.1112h-0.99094v-0.0656h-0.14507v-0.03013h-0.3352v-0.13044h-0.25467v0.05627h-0.30507v-0.036h-0.2704v0.08053h-0.13627v0.05493h-0.08987v0.0448h-0.0632v0.06027h-0.0712s0.01387 0.13413 0 0.14907c-0.01467 0.0152 0.06027 0 0.06027 0v0.05067h0.07413v0.05733h0.0592s0.0296 0.03013 0.04747 0.04747c0.0168 0.0176 0.1136 0 0.1136 0v0.10027h-0.22v0.09413h-0.28427v0.27147h0.25574v0.08933h0.23494v0.0784h0.2624l0.03653-0.03813h0.3v0.04933h0.2912v-0.1432h0.1432l0.05147-0.05173h0.55574v-0.09493h0.50934s-0.01387 0.0504 0 0.06507c0.01493 0.01467 0.55467 0 0.55467 0l0.03547 0.03413h0.33947v-0.48427h1.232v0.08987h-0.39574v0.24027h0.2456v-0.04053h0.1936l1.7414 0.3648c0.3208 0.2864 0.90614 0.33574 0.90614 0.33574 0.08987 0.2704 0.2656 0.31547 0.2656 0.31547h1.4845l0.22027-0.38507h0.04453v-0.08h-0.07013l0.2448-0.3904v-0.17521h-0.55041v-0.2008h0.2752c0.28534 0 0.25467-0.344 0.25467-0.344s0.30987-0.10507 0.62587-0.22054c0.31494-0.11467 0.39494-0.26 0.39494-0.26v-1.0501h0.79548c0.4808 0 0.75014-0.2848 0.75014-0.2848l5.9217-4.5115h0.19334v-0.39494l1.0157-1.5059 0.70081-0.02427 0.3256-0.22107h0.38987c0.17467 0 0.16987-0.18427 0.16987-0.18427v-0.34027z" stroke-width=".26667"/><metadata><rdf:RDF><cc:Work rdf:about=""><dc:creator><cc:Agent><dc:title>Noun Project / Philip Glenn</dc:title></cc:Agent></dc:creator><dc:title>klingon-bird-of-prey</dc:title><cc:license rdf:resource="http://creativecommons.org/licenses/by-sa/4.0/"/></cc:Work><cc:License rdf:about="http://creativecommons.org/licenses/by-sa/4.0/"><cc:permits rdf:resource="http://creativecommons.org/ns#Reproduction"/><cc:permits rdf:resource="http://creativecommons.org/ns#Distribution"/><cc:requires rdf:resource="http://creativecommons.org/ns#Notice"/><cc:requires rdf:resource="http://creativecommons.org/ns#Attribution"/><cc:permits rdf:resource="http://creativecommons.org/ns#DerivativeWorks"/><cc:requires rdf:resource="http://creativecommons.org/ns#ShareAlike"/></cc:License></rdf:RDF></metadata></svg>