<?xml version="1.0" encoding="UTF-8"?><!-- Created with Inkscape (http://www.inkscape.org/) --><svg width="24mm" height="24mm" version="1.1" viewBox="0 0 24 24" xml:space="preserve" xmlns="http://www.w3.org/2000/svg" xmlns:cc="http://creativecommons.org/ns#" xmlns:dc="http://purl.org/dc/elements/1.1/" xmlns:rdf="http://www.w3.org/1999/02/22-rdf-syntax-ns#"><title>klingon</title><g transform="translate(-67.481 -94.193)"><path d="m79.14 94.193c-0.36602 3.086-0.76113 6.167-1.6143 9.167-3.0634 0.65394-6.2516 4.1746-5.1604 8.6794-1.2925 1.452-1.9802 2.3893-1.1442 6.1536 0.90369-1.0521 1.7951-2.1171 2.8688-2.9892 3.3566 3.3824 7.6729 2.5585 10.188 0.0985 1.9827 0.5187 5.2291-0.94305 5.6353-2.4771-1.9589-0.0963-3.081-0.37984-3.8403-0.84397 0.93456-4.2356-1.6798-7.8033-5.3536-8.6549-0.78941-3.0773-1.2558-6.1142-1.5797-9.1333zm1.742 9.5503c1.8997 0.45859 5.4617 2.8805 4.6145 7.8586-0.88229-0.70293-1.9164-1.8918-3.004-3.2518l-3.2751 5.7681c1.5083 0.15908 2.9641 0.515 4.39 0.98324-2.6759 2.7663-6.8526 2.2618-9.0432-0.17805 0.47567-0.39887 1.5841-0.6959 4.4829-0.70461l-3.3408-5.9655c-0.96926 1.5964-1.4914 1.8967-2.8512 3.2286-0.58963-2.6821 0.84507-6.5528 4.5506-7.7076-0.42222 1.2491-0.8579 2.4982-1.3162 3.7473l3.0506 5.2261 3.066-5.2184c-0.44465-1.2626-0.9151-2.53-1.324-3.7861z" stroke-width=".1366"/></g><metadata><rdf:RDF><cc:Work rdf:about=""><dc:creator><cc:Agent><dc:title>https://github.com/adejong5</dc:title></cc:Agent></dc:creator><dc:title>klingon-empire</dc:title><cc:license rdf:resource="http://creativecommons.org/licenses/by-sa/4.0/"/></cc:Work><cc:License rdf:about="http://creativecommons.org/licenses/by-sa/4.0/"><cc:permits rdf:resource="http://creativecommons.org/ns#Reproduction"/><cc:permits rdf:resource="http://creativecommons.org/ns#Distribution"/><cc:requires rdf:resource="http://creativecommons.org/ns#Notice"/><cc:requires rdf:resource="http://creativecommons.org/ns#Attribution"/><cc:permits rdf:resource="http://creativecommons.org/ns#DerivativeWorks"/><cc:requires rdf:resource="http://creativecommons.org/ns#ShareAlike"/></cc:License></rdf:RDF></metadata></svg>

