<svg data-name="Art Filled Outlined" version="1.1" viewBox="0 0 24 24" xmlns="http://www.w3.org/2000/svg" xmlns:cc="http://creativecommons.org/ns#" xmlns:dc="http://purl.org/dc/elements/1.1/" xmlns:rdf="http://www.w3.org/1999/02/22-rdf-syntax-ns#"><title>Live Long and Prosper Solid</title><path d="m23.883 13.857a1.4197 1.4197 0 0 0-1.8779-0.70421l-4.3812 1.7436a0.39906 0.39906 0 0 1-0.52309-0.5062l3.4727-9.6209a1.4181 1.4181 0 1 0-2.6668-0.96537l-2.9221 8.0779a0.39921 0.39921 0 0 1-0.75072-0.27181l3.5122-9.709a1.4181 1.4181 0 0 0-2.667-0.96485l-3.5122 9.7093a1.3295 1.3295 0 0 1-1.2042 0.95939c-0.68628 0-1.0571-0.59637-1.1679-0.94874l-3.2333-8.4129a1.4181 1.4181 0 0 0-2.6223 1.0802l0.83765 2.1802a2.2536 2.2536 0 0 1 0.11031 0.23153l2.2967 6.0336a0.39914 0.39914 0 0 1-0.74566 0.28506l-2.3864-6.2114a1.4187 1.4187 0 0 0-2.5292 1.2673l2.0273 5.3754a0.39807 0.39807 0 0 1 0.02573 0.14084v4.5046a6.8777 6.8777 0 0 0 6.8698 6.8698c3.4301 0 6.0719-2.0786 6.7301-5.2956a0.39901 0.39901 0 0 1 0.23608-0.28766l6.3769-2.6867a1.4182 1.4182 0 0 0 0.69434-1.8736z" stroke-width=".26609"/><metadata><rdf:RDF><cc:Work rdf:about=""><dc:creator><cc:Agent><dc:title>Noun Project / Tom Fricker</dc:title></cc:Agent></dc:creator><dc:title>live-long-and-prosper-solid</dc:title><cc:license rdf:resource="http://creativecommons.org/licenses/by-sa/4.0/"/></cc:Work><cc:License rdf:about="http://creativecommons.org/licenses/by-sa/4.0/"><cc:permits rdf:resource="http://creativecommons.org/ns#Reproduction"/><cc:permits rdf:resource="http://creativecommons.org/ns#Distribution"/><cc:requires rdf:resource="http://creativecommons.org/ns#Notice"/><cc:requires rdf:resource="http://creativecommons.org/ns#Attribution"/><cc:permits rdf:resource="http://creativecommons.org/ns#DerivativeWorks"/><cc:requires rdf:resource="http://creativecommons.org/ns#ShareAlike"/></cc:License></rdf:RDF></metadata></svg>