<svg data-name="Outlined Art" version="1.1" viewBox="0 0 24 24.001" xmlns="http://www.w3.org/2000/svg" xmlns:cc="http://creativecommons.org/ns#" xmlns:dc="http://purl.org/dc/elements/1.1/" xmlns:rdf="http://www.w3.org/1999/02/22-rdf-syntax-ns#"><title>Live Long and Prosper Outline</title><path d="m21.029 12.392-3.319 1.3207 2.9739-8.2388a2.0777 2.0777 0 0 0-2.6617-2.6607l0.01037-0.02864a2.0783 2.0783 0 0 0-3.9087-1.414l-3.2934 9.104c-9.61e-4 0.0027-0.0011 0.0054-2e-3 8e-3 -7.49e-4 0.0022-2e-3 0.0041-0.0027 0.0063-0.0013 0.0039-0.13694 0.39157-0.42044 0.39157-0.25305 0-0.37768-0.35599-0.38194-0.36818-0.0011-0.0032-0.0029-6e-3 -4e-3 -0.0092-0.0012-0.0034-0.0015-0.0069-0.0028-0.01033l-3.0423-7.9179a2.0782 2.0782 0 0 0-3.8508 1.5646l0.3064 0.79752a2.0767 2.0767 0 0 0-2.5731 2.7507l1.8732 4.967v4.1558a7.1985 7.1985 0 0 0 7.1903 7.1903c3.5162 0 6.237-2.1011 6.9953-5.367l5.8166-2.4507a2.0781 2.0781 0 0 0-1.7031-3.7912zm1.4029 3.1055-5.9772 2.5183-3.2e-5 1.5e-5 -0.0023 9.76e-4c-0.0059 0.0025-0.01087 0.0063-0.01661 0.0091a0.37412 0.37412 0 0 0-0.04707 0.02572c-0.0088 0.0059-0.01617 0.0131-0.02432 0.01965a0.37289 0.37289 0 0 0-0.03178 0.02677c-0.0076 0.0076-0.01371 0.01628-0.02056 0.02449a0.36785 0.36785 0 0 0-0.02548 0.03186c-0.0061 0.0091-0.01052 0.0191-0.01576 0.02869a0.36778 0.36778 0 0 0-0.01843 0.03521 0.37533 0.37533 0 0 0-0.01431 0.04591c-0.0021 0.0077-0.0054 0.0147-7e-3 0.0226-0.6172 3.0166-3.0944 4.9656-6.3108 4.9656a6.4491 6.4491 0 0 1-6.4418-6.4418v-4.2239c0-0.0092-0.0021-0.01774-0.0027-0.02673a0.25904 0.25904 0 0 0-0.01502-0.08125c-0.0024-8e-3 -0.0034-0.01614-0.0064-0.02409l-1.901-5.0405a1.3298 1.3298 0 0 1 1.7457-1.729 1.3167 1.3167 0 0 1 0.63973 0.57678l2.2238 5.7882 0.0019 0.0033a0.37031 0.37031 0 0 0 0.04905 0.08542c5e-3 0.0067 0.0099 0.0132 0.01529 0.01951a0.37165 0.37165 0 0 0 0.07114 0.06535c0.0037 0.0026 0.0079 0.0042 0.01168 0.0066a0.37561 0.37561 0 0 0 0.07805 0.03728c0.0072 0.0025 0.01415 0.0052 0.02155 0.0073a0.37172 0.37172 0 0 0 0.09578 0.01442c0.0017 3.2e-5 0.0034 7.63e-4 0.0051 7.63e-4 0.0029 0 0.0058-0.0016 0.0087-0.0016a0.37174 0.37174 0 0 0 0.1243-0.02275l8.98e-4 -4.57e-4 1.97e-4 -3e-5c0.0068-0.0026 0.0125-0.0066 0.01904-0.0096a0.37901 0.37901 0 0 0 0.04818-0.02432c0.0095-0.0061 0.01747-0.0138 0.0263-0.02062a0.37759 0.37759 0 0 0 0.03144-0.02481 0.36719 0.36719 0 0 0 0.02402-0.02796c0.0077-9e-3 0.01625-0.01731 0.02301-0.02695 0.0069-0.0098 0.01177-0.02065 0.01765-0.03102 6e-3 -0.01051 0.01287-0.02048 0.01779-0.03149 0.0043-0.0097 0.0067-0.02016 0.01023-0.03021a0.3706 0.3706 0 0 0 0.01269-0.03793c0.0023-0.01 0.0026-0.02041 0.0041-0.0306a0.36803 0.36803 0 0 0 0.0054-0.04107 0.38076 0.38076 0 0 0-0.0025-0.03975c-8.08e-4 -0.01116-3.51e-4 -0.02223-0.0022-0.03341a0.37846 0.37846 0 0 0-0.01628-0.06036c-0.0014-0.0041-0.0018-0.0083-0.0033-0.01237l-1.23e-4 -3.04e-4 -2.49e-4 -9.13e-4 -0.01062-0.02764-2.1426-5.6288a2.1112 2.1112 0 0 0-0.10046-0.20935l-0.78844-2.052a1.3297 1.3297 0 0 1 2.4589-1.0129l3.0394 7.9106c8.38e-4 0.0022 0.0022 4e-3 0.0031 0.0061a1.2019 1.2019 0 0 0 1.0845 0.86157 1.2443 1.2443 0 0 0 1.1255-0.89204c1e-3 -0.0027 0.0027-0.0049 0.0036-0.0076l3.2934-9.1043a1.3297 1.3297 0 0 1 2.5009 0.90473l-3.2934 9.104a0.37429 0.37429 0 0 0 0.22466 0.47929 0.36904 0.36904 0 0 0 0.11894 0.02094c0.0028 6.3e-5 0.0056 0.0015 0.0084 0.0015 0.0018 0 0.0035-7.93e-4 0.0053-8.23e-4a0.36858 0.36858 0 0 0 0.10124-0.01552c0.0046-0.0014 0.0089-0.0033 0.01349-0.0048a0.37366 0.37366 0 0 0 0.0872-0.0425c0.0023-0.0015 0.0048-0.0026 0.0071-0.0042a0.37158 0.37158 0 0 0 0.07368-0.06938c0.0046-0.0055 0.0086-0.01116 0.01282-0.01697a0.37114 0.37114 0 0 0 0.05112-0.09264l2.74-7.5746a1.3297 1.3297 0 1 1 2.5006 0.90523l-3.2563 9.0214c-0.0027 0.0074-0.0034 0.01485-0.0056 0.02226a0.37013 0.37013 0 0 0-0.0096 0.03827c-0.0022 0.01208-0.0033 0.02403-0.0043 0.03609-9.98e-4 0.01198-0.0018 0.02383-0.0016 0.03593a0.36821 0.36821 0 0 0 3e-3 0.03827c0.0013 0.01125 0.0027 0.02242 0.0051 0.03365a0.3688 0.3688 0 0 0 0.01142 0.03996c0.0023 0.0069 0.0032 0.01403 6e-3 0.02091 0.0013 0.0033 0.0034 6e-3 0.0048 0.0092a0.37599 0.37599 0 0 0 0.01921 0.03694c0.0055 0.0096 0.01054 0.01933 0.01674 0.02827 0.0071 0.01028 0.01541 0.01958 0.02354 0.02915 0.0077 9e-3 0.01509 0.01832 0.02357 0.02652 0.0085 0.0082 0.01794 0.01526 0.02721 0.02267a0.36896 0.36896 0 0 0 0.0298 0.02254c0.0093 6e-3 0.01937 0.01089 0.0293 0.0161a0.37366 0.37366 0 0 0 0.03681 0.01763c0.0034 0.0013 0.0062 0.0034 0.0097 0.0046 0.0034 0.0012 7e-3 6.84e-4 0.0104 0.0018a0.37162 0.37162 0 0 0 0.11442 0.01996l0.0022 3.94e-4c0.0026 0 5e-3 -0.0011 0.0076-0.0012a0.37114 0.37114 0 0 0 0.09085-0.01397c0.0076-0.0021 0.01499-0.0039 0.0224-0.0064 0.0058-2e-3 0.0118-0.0027 0.01759-5e-3l4.1082-1.635a1.3298 1.3298 0 0 1 1.1098 2.4169z" stroke-width=".24951"/><metadata><rdf:RDF><cc:Work rdf:about=""><dc:creator><cc:Agent><dc:title>Noun Project / Tom Fricker</dc:title></cc:Agent></dc:creator><dc:title>live-long-and-prosper-outline</dc:title><cc:license rdf:resource="http://creativecommons.org/licenses/by-sa/4.0/"/></cc:Work><cc:License rdf:about="http://creativecommons.org/licenses/by-sa/4.0/"><cc:permits rdf:resource="http://creativecommons.org/ns#Reproduction"/><cc:permits rdf:resource="http://creativecommons.org/ns#Distribution"/><cc:requires rdf:resource="http://creativecommons.org/ns#Notice"/><cc:requires rdf:resource="http://creativecommons.org/ns#Attribution"/><cc:permits rdf:resource="http://creativecommons.org/ns#DerivativeWorks"/><cc:requires rdf:resource="http://creativecommons.org/ns#ShareAlike"/></cc:License></rdf:RDF></metadata></svg>