<svg enable-background="new 0 0 100 100" version="1.1" viewBox="0 0 24 24" xmlns="http://www.w3.org/2000/svg" xmlns:cc="http://creativecommons.org/ns#" xmlns:dc="http://purl.org/dc/elements/1.1/" xmlns:rdf="http://www.w3.org/1999/02/22-rdf-syntax-ns#"><title>Phase</title>
 <g transform="matrix(.2695 0 0 .2695 -1.4751 -.61495)"><path d="m71.893 28.822c-0.152-2e-3 -0.474 0.151-0.482 0.606l0.137-7.85c3e-3 -0.192-0.151-0.349-0.343-0.349h-5.539c-0.174 0-0.32 0.129-0.34 0.301-0.03 0.257-0.076 0.659-0.127 1.123-6e-3 3e-3 -8e-3 4e-3 -0.014 8e-3 -3.337-2.034-11.837-2.517-20.199-2.404-3e-3 -2e-3 -4e-3 -4e-3 -7e-3 -6e-3 -0.146-1.163-2.076-2.084-4.442-2.084-1.999 0-4.317 0.849-4.438 2.41-3.148 0.177-7.347 0.444-8.609 0.609-0.223 0.029-0.395 0.198-0.443 0.418-0.073 0.334-0.138 0.668-0.196 1.075-3e-3 2e-3 -4e-3 4e-3 -7e-3 6e-3 -0.874 3e-3 -1.763 0.015-2.656 0.035v-0.553h0.544c0.183 0 0.286-0.21 0.174-0.355l-0.717-0.927c-1e-3 -2e-3 -1e-3 -3e-3 -2e-3 -5e-3v-1.106c0-0.121-0.098-0.22-0.22-0.22h-4.793c-0.121 0-0.219 0.096-0.222 0.217l-0.045 1.18c-1e-3 2e-3 -1e-3 3e-3 -2e-3 5e-3l-0.85 1.04c-0.121 0.148-0.012 0.369 0.178 0.364l0.637-0.016 0.028 0.57c-5.561 0.283-10.428 0.766-11.835 1.085-0.067 0.015-0.115 0.067-0.129 0.134-9e-3 0.043-0.089 0.416-0.205 0.957l11.752 0.411c0.194 7e-3 0.346 0.17 0.34 0.364-6e-3 0.19-0.163 0.339-0.352 0.339h-0.012l-11.878-0.415c-0.045 0.208-0.092 0.428-0.141 0.655l12.339 0.474c0.194 7e-3 0.345 0.171 0.338 0.365-7e-3 0.19-0.163 0.339-0.352 0.339h-0.014l-12.461-0.48c-0.051 0.236-0.102 0.473-0.153 0.71l12.786 0.407c0.194 6e-3 0.347 0.169 0.341 0.363-6e-3 0.191-0.162 0.341-0.352 0.341h-0.011l-12.914-0.411c-0.052 0.24-0.101 0.471-0.148 0.69l13.232 0.439c0.194 6e-3 0.346 0.169 0.34 0.363-6e-3 0.191-0.163 0.34-0.352 0.34h-0.012l-13.359-0.443c-0.108 0.5-0.185 0.862-0.205 0.953-0.041 0.19 0.091 0.372 0.285 0.394l33.109 3.823c7e-3 1e-3 2.56 0.362 3.483 1.111 0.869 0.562 2.087 2.127 1.6 3.765-0.356 1.184-11.786 32.283-13.319 36.31-0.095 0.249 8e-3 0.529 0.243 0.653 1.849 0.981 9.177 4.381 11.049 4.866 0.264 0.068 0.535-0.075 0.629-0.33 1.526-4.123 13.648-36.865 13.648-36.865 0.395-0.946 1.009-1.419 1.104-1.454 0.066 0.054 5e-3 0 9e-3 1e-3 0 0 1.907 1.779 2.604 2.411 0.135 0.122 0.336 0.112 0.462-0.02 0.407-0.43 1.162-1.229 1.555-1.646 0.126-0.134 0.121-0.34-0.011-0.467-0.623-0.6-2.139-2.032-2.139-2.032 0.092-0.048 0.185-0.13 0.339-0.167 0.173-0.011 7.833-0.139 10.341-0.183 0.44-8e-3 0.792-0.363 0.798-0.804l0.015-0.981c0.054 0.321 0.207 0.562 0.536 0.562 0.287 0 0.558-0.149 0.558-0.461 0 0 3e-3 -9.905 3e-3 -9.906 3e-3 -0.378-0.166-0.648-0.489-0.652z"/><path d="m43.958 40.021 0.974 0.366c-0.429-0.169-0.766-0.297-0.974-0.366z" fill="none"/><path d="m73.937 28.126h-8e-3c-0.454 0-0.823 0.368-0.823 0.823v10.803c0 0.434 0.352 0.785 0.785 0.785h0.094c0.334 0 0.612-0.232 0.686-0.542v-11.284c1e-3 -0.339-0.375-0.585-0.734-0.585z"/><path d="m81.098 28.695c0.011-0.383-0.397-0.622-0.777-0.622h-4.15c-0.378 0-0.783 0.252-0.773 0.618 0 0-6e-3 11.469-0.01 11.473 0 0.374 0.382 0.677 0.78 0.677h4.162c0.401 0 0.78-0.303 0.78-0.687-6e-3 -5e-3 -0.012-11.459-0.012-11.459z"/><path d="m94.108 33.744-7.964-0.41c-3e-3 -3e-3 -4e-3 -5e-3 -7e-3 -8e-3v-3.723c0-0.362-0.403-0.663-0.985-0.656h-0.021c-0.497 0-1.026 0.181-1.026 0.536v9.769c0 0.307 0.518 0.466 0.978 0.466h0.133c0.509 0 0.922-0.275 0.922-0.614v-3.766c3e-3 -3e-3 4e-3 -5e-3 7e-3 -8e-3l7.965-0.41c0.233-0.01 0.418-0.202 0.418-0.435v-0.305c-2e-3 -0.234-0.186-0.426-0.42-0.436z"/><path d="m83.39 28.897c0-0.422-0.342-0.764-0.764-0.764h-8e-3c-0.388 0-0.794 0.239-0.794 0.635v11.174c0 0.38 0.387 0.603 0.756 0.603h0.094c0.395 0 0.715-0.32 0.715-0.715v-0.564c-2e-3 -3e-3 -7e-3 -3e-3 -7e-3 -7e-3z"/><path d="m38.268 76.656c-0.075 0-0.15-0.013-0.225-0.04-0.337-0.125-0.509-0.498-0.385-0.835l12.353-33.525c0.125-0.337 0.498-0.51 0.835-0.385 0.337 0.124 0.51 0.498 0.386 0.834l-12.354 33.525c-0.097 0.263-0.345 0.426-0.61 0.426z"/></g><metadata><rdf:RDF><cc:Work rdf:about=""><dc:creator><cc:Agent><dc:title>Noun Project / Nate Holland</dc:title></cc:Agent></dc:creator><dc:title>phaser</dc:title><cc:license rdf:resource="http://creativecommons.org/licenses/by-sa/4.0/"/></cc:Work><cc:License rdf:about="http://creativecommons.org/licenses/by-sa/4.0/"><cc:permits rdf:resource="http://creativecommons.org/ns#Reproduction"/><cc:permits rdf:resource="http://creativecommons.org/ns#Distribution"/><cc:requires rdf:resource="http://creativecommons.org/ns#Notice"/><cc:requires rdf:resource="http://creativecommons.org/ns#Attribution"/><cc:permits rdf:resource="http://creativecommons.org/ns#DerivativeWorks"/><cc:requires rdf:resource="http://creativecommons.org/ns#ShareAlike"/></cc:License></rdf:RDF></metadata></svg>