<?xml version="1.0" encoding="UTF-8"?><!-- Created with Inkscape (http://www.inkscape.org/) --><svg width="24mm" height="24mm" version="1.1" viewBox="0 0 24 24" xml:space="preserve" xmlns="http://www.w3.org/2000/svg" xmlns:cc="http://creativecommons.org/ns#" xmlns:dc="http://purl.org/dc/elements/1.1/" xmlns:rdf="http://www.w3.org/1999/02/22-rdf-syntax-ns#"><g transform="translate(-95.166 -147.61)"><path d="m107.64 147.66c-0.4338 0.0175-0.93422 0.8779-1.9059 2.8926-0.0752 0.156-0.13633 0.28261-0.18741 0.38601-6e-5 1e-4 -1.4e-4 2.9e-4 -1.9e-4 3.8e-4l-0.63603 1.6216v7e-5l-7e-5 6e-5c-0.0217 0.0632-0.0533 0.14774-0.09 0.23936-1.7954 4.5245-3.5366 9.2065-4.523 13.987v7e-5l-6e-5 6e-5v6e-5c-0.39875 2.0978-0.63887 3.7183-0.64351 4.3498-0.0023 0.30644 0.0098 0.33978 0.1437 0.3993 0.08129 0.0361 0.12091 0.0312 0.21035-0.0263 0.19558-0.12573 0.90027-0.89489 1.7291-1.8873 0.505-0.60472 0.74202-0.88771 0.897-1.018l-8.9e-4 -3.7e-4 0.0206-0.022 0.79667-0.85399c7e-5 -9e-5 5.1e-4 -4.9e-4 5.8e-4 -6.2e-4 0.1523-0.21158 0.73417-0.8631 1.2888-1.437 2.0017-2.0711 4.0431-3.5346 4.9485-3.5594 0.0292-7.4e-4 0.0573-5e-5 0.0841 2e-3 0.37172 0.0309 0.95512 0.79284 2.2124 2.89 0.39962 0.66652 0.63508 1.0781 0.73469 1.2859h2.5e-4l2e-3 3e-3 0.4731 0.94223v7e-5l6e-5 6e-5c2e-5 4e-5 6e-5 1.2e-4 7e-5 2.5e-4 0.11545 0.1658 0.44864 0.77331 0.76115 1.3942 0.77318 1.5362 1.1329 1.6226 0.98606 0.23674-0.0975-0.91993-0.21223-1.8374-0.29385-2.3491-0.0418-0.26193-0.0637-0.38606-0.0677-0.45936v-1.2e-4l-0.32153-1.5905c-4e-5 -1.3e-4 -9e-5 -1.3e-4 -1.2e-4 -3.8e-4 -0.0668-0.2422-0.16927-0.67695-0.34914-1.4279-0.58867-2.4576-1.3067-4.7343-2.8085-8.905-0.34487-0.95771-0.56337-1.5916-0.6586-1.9108l-1.2e-4 -3.7e-4 -0.64881-1.6015c-7e-5 -1.2e-4 -1.3e-4 -3.8e-4 -2.5e-4 -5e-4 -0.029-0.0569-0.0576-0.12787-0.0957-0.22147-0.26667-0.6536-0.81257-1.7566-1.2611-2.548-0.29974-0.5289-0.53608-0.82178-0.79636-0.81124zm0.0707 4.0768c0.0101 0 0.0182 0.0229 0.0182 0.0508s0.0528 0.48476 0.11724 1.0152c0.17343 1.4261 0.4725 3.8834 0.55597 4.5684 0.0401 0.32958 0.0752 0.60119 0.0778 0.60358 3e-3 2e-3 0.25057 0.0507 0.55105 0.10729 0.88759 0.16718 1.0314 0.19712 1.0161 0.21144-8e-3 8e-3 -0.30133 0.17511-0.65188 0.37258s-0.64328 0.36444-0.65054 0.37106c-7e-3 7e-3 0.0561 0.38471 0.14083 0.84018 0.16855 0.90619 0.16028 0.85599 0.14096 0.85412-8e-3 -7.5e-4 -0.31456-0.2431-0.6823-0.53859-0.66861-0.53726-0.66861-0.53725-1.3345-0.0342-0.50055 0.37819-0.6636 0.49267-0.65674 0.46114 0.0459-0.21064 0.24793-1.5504 0.23559-1.5619-9e-3 -8e-3 -0.32962-0.18576-0.71303-0.39462-0.51817-0.28228-0.68877-0.38328-0.66467-0.39336 0.0255-0.0107 1.6661-0.35987 1.6907-0.35987 0.01 0 0.0196-0.0701 0.10819-0.76479 0.0764-0.59921 0.3235-2.526 0.47405-3.6967 0.0354-0.27543 0.0969-0.75074 0.13662-1.0562 0.0397-0.30549 0.0722-0.57795 0.0722-0.60549-3e-5 -0.0276 8e-3 -0.0501 0.0181-0.0501z" stroke-width=".12365"/></g><metadata><rdf:RDF><cc:Work rdf:about=""><dc:creator><cc:Agent><dc:title>https://github.com/adejong5</dc:title></cc:Agent></dc:creator><dc:title>starfleet-star</dc:title><cc:license rdf:resource="http://creativecommons.org/licenses/by-sa/4.0/"/></cc:Work><cc:License rdf:about="http://creativecommons.org/licenses/by-sa/4.0/"><cc:permits rdf:resource="http://creativecommons.org/ns#Reproduction"/><cc:permits rdf:resource="http://creativecommons.org/ns#Distribution"/><cc:requires rdf:resource="http://creativecommons.org/ns#Notice"/><cc:requires rdf:resource="http://creativecommons.org/ns#Attribution"/><cc:permits rdf:resource="http://creativecommons.org/ns#DerivativeWorks"/><cc:requires rdf:resource="http://creativecommons.org/ns#ShareAlike"/></cc:License></rdf:RDF></metadata></svg>

