<?xml version="1.0" encoding="UTF-8"?><!-- Created with Inkscape (http://www.inkscape.org/) --><svg width="24mm" height="24mm" version="1.1" viewBox="0 0 24 24" xml:space="preserve" xmlns="http://www.w3.org/2000/svg" xmlns:cc="http://creativecommons.org/ns#" xmlns:dc="http://purl.org/dc/elements/1.1/" xmlns:rdf="http://www.w3.org/1999/02/22-rdf-syntax-ns#"><title>starfleet-star-outline</title><g transform="translate(-95.134 -147.56)"><path d="m107.42 147.56c-0.43563 0.0176-0.93815 0.88159-1.9139 2.9047-0.11755 0.24373-0.2007 0.41616-0.26507 0.54015l-0.54194 1.4149v6e-5h-7e-5v7e-5c-0.0187 0.0623-0.0599 0.17528-0.11049 0.30164-1.5393 3.8415-2.8376 7.5635-3.5356 10.136-0.18211 0.6712-0.45259 1.8044-0.5465 2.2663v-2e-3l-0.0116 0.0499-0.0447 0.19148h6e-5l-0.54412 2.1587c-2.6e-5 1.4e-4 -3.8e-5 3e-4 -6.4e-5 4.4e-4 -0.31574 1.7372-0.50167 3.0572-0.50576 3.6132-0.0023 0.30773 0.0098 0.34121 0.14431 0.40098 0.08162 0.0363 0.12142 0.0313 0.21123-0.0264 0.1964-0.12625 0.90405-0.89864 1.7363-1.8953 0.46022-0.55109 0.70672-0.84771 0.8647-0.99566l-2e-3 -6.4e-4 0.85026-0.89563v-7e-5c0.14019-0.20037 0.73554-0.86769 1.3022-1.454 2.0101-2.0798 4.0601-3.5495 4.9693-3.5744 0.0293-8e-4 0.0575-5e-5 0.0844 2e-3 0.37328 0.031 0.95913 0.79617 2.2217 2.9021 0.44123 0.73593 0.67758 1.1538 0.75774 1.3386l8.3e-4 -6e-5 9e-3 0.0177c2e-5 4e-5 1.8e-4 2.7e-4 2e-4 3.2e-4l6e-5 1.2e-4 0.49774 0.96281c8e-5 1.4e-4 3e-4 6.4e-4 3.8e-4 7.7e-4 0.14529 0.23509 0.4372 0.77271 0.71314 1.321 0.77643 1.5427 1.1376 1.6294 0.99021 0.23773-0.0979-0.92379-0.21313-1.8451-0.2951-2.359-0.0364-0.22834-0.0579-0.35237-0.0654-0.42927 0-6e-5 1e-5 -8e-5 0-1.3e-4l-0.2994-1.5387c-2e-5 -6e-5 -4e-5 -7e-5 -6e-5 -1.3e-4 -0.066-0.21851-0.17088-0.66551-0.37666-1.5246-0.59114-2.468-1.3122-4.7542-2.8203-8.9424-0.32486-0.90216-0.53806-1.5183-0.64217-1.8557l-1.3e-4 -2.6e-4 -0.67991-1.6899c-1.8e-4 -3.9e-4 -4.5e-4 -1e-3 -6.4e-4 -1e-3 -0.0259-0.0537-0.0523-0.11919-0.0865-0.20289-0.2678-0.65635-0.81599-1.7639-1.2664-2.5587-0.301-0.53112-0.53832-0.82523-0.7997-0.81465zm-0.18422 0.92437c0.43374 0 1.6758 2.816 3.5378 8.0211 1.3282 3.7128 1.7788 5.163 2.3204 7.468 0.31762 1.3517 0.69632 3.2551 0.64769 3.2551-0.0677 0-0.51276-0.66335-1.1044-1.6459-2.2296-3.7024-2.589-3.9776-4.262-3.263-1.7132 0.73178-3.2433 2.0024-5.878 4.8814-0.27613 0.30173-0.66258 0.72144-0.85873 0.93265-0.97249 1.0472-1.1436 1.1993-1.1384 1.012 0.0176-0.64236 0.0946-1.2316 0.34245-2.6212 0.0646-0.36208 0.14248-0.81769 0.17306-1.0124 0.14003-0.8918 1.1929-4.751 1.7644-6.467 0.47894-1.4382 1.5216-4.3051 2.0353-5.5958 1.3511-3.3955 2.1163-4.9649 2.4205-4.9649zm0.14476 3.1271c-0.0101 0-0.0183 0.0226-0.0182 0.0503 3e-5 0.0277-0.0326 0.30128-0.0725 0.60804s-0.10162 0.78407-0.13719 1.0607c-0.15119 1.1756-0.3993 3.1105-0.47605 3.7123-0.089 0.69764-0.099 0.768-0.10863 0.768-0.0247 0-1.6722 0.35067-1.6978 0.36139-0.0242 0.0101 0.14711 0.11154 0.66745 0.395 0.38502 0.20975 0.70723 0.38806 0.71603 0.39629 0.0124 0.0116-0.19054 1.357-0.23658 1.5685-7e-3 0.0317 0.15684-0.0834 0.6595-0.46315 0.66869-0.50524 0.66868-0.50525 1.3401 0.0343 0.36928 0.29673 0.67763 0.54011 0.68517 0.54086 0.0194 2e-3 0.0277 0.0523-0.14155-0.85771-0.0851-0.45739-0.14871-0.83709-0.14142-0.84372 7e-3 -7e-3 0.30124-0.17431 0.65327-0.37261 0.35202-0.1983 0.64659-0.36664 0.65462-0.37415 0.0154-0.0144-0.12904-0.0444-1.0204-0.21233-0.30173-0.0568-0.55074-0.10533-0.55336-0.10773-3e-3 -2e-3 -0.0378-0.27515-0.0781-0.60611-0.0838-0.68791-0.38416-3.1555-0.55831-4.5876-0.0648-0.53268-0.11775-0.99143-0.11775-1.0195 0-0.028-8e-3 -0.051-0.0183-0.051z" stroke-width=".12417"/></g><metadata><rdf:RDF><cc:Work rdf:about=""><dc:creator><cc:Agent><dc:title>https://github.com/adejong5</dc:title></cc:Agent></dc:creator><dc:title>starfleet-star-outline</dc:title><cc:license rdf:resource="http://creativecommons.org/licenses/by-sa/4.0/"/></cc:Work><cc:License rdf:about="http://creativecommons.org/licenses/by-sa/4.0/"><cc:permits rdf:resource="http://creativecommons.org/ns#Reproduction"/><cc:permits rdf:resource="http://creativecommons.org/ns#Distribution"/><cc:requires rdf:resource="http://creativecommons.org/ns#Notice"/><cc:requires rdf:resource="http://creativecommons.org/ns#Attribution"/><cc:permits rdf:resource="http://creativecommons.org/ns#DerivativeWorks"/><cc:requires rdf:resource="http://creativecommons.org/ns#ShareAlike"/></cc:License></rdf:RDF></metadata></svg>

