<svg version="1.1" viewBox="0 0 24 24" xmlns="http://www.w3.org/2000/svg" xmlns:cc="http://creativecommons.org/ns#" xmlns:dc="http://purl.org/dc/elements/1.1/" xmlns:rdf="http://www.w3.org/1999/02/22-rdf-syntax-ns#"><title>USS Enterprise NCC-1701-A</title>
 <g transform="matrix(.25 0 0 .25 -.5 5.6119)"><path transform="rotate(90 50 24.563)" d="m34.006-16.793c-4.4174 4.4291-6.6261 9.7605-6.6261 15.994 0 5.6243 1.8279 10.546 5.4837 14.764 3.6558 4.2182 8.1904 6.7492 13.604 7.5928l0.35152-4.4643c0.02343-1.2186 0.56243-2.1208 1.617-2.7067v-1.5818c0-0.98426 0.48041-1.4764 1.4412-1.4764s1.4412 0.49213 1.4412 1.4764v1.4412c1.1952 0.56243 1.8162 1.5115 1.8631 2.8473l0.38667 4.4643c5.39-0.84365 9.9129-3.3746 13.569-7.5928 3.6558-4.2182 5.4837-9.1395 5.4837-14.764 0-6.2336-2.2146-11.565-6.6437-15.994s-9.7488-6.6437-15.959-6.6437c-6.257 0-11.594 2.2146-16.012 6.6437zm15.439 6.6188c0.24603 0 0.44548-0.19945 0.44548-0.44548 0-0.24603-0.19945-0.44548-0.44548-0.44548-0.24603 0-0.44548 0.19945-0.44548 0.44548 0 0.24603 0.19945 0.44548 0.44548 0.44548zm-9.256 8.7115c0.24603 0 0.44548-0.19945 0.44548-0.44548s-0.19945-0.44548-0.44548-0.44548c-0.24603 0-0.44548 0.19945-0.44548 0.44548s0.19945 0.44548 0.44548 0.44548zm0 1.0394c0.24603 0 0.44548-0.19945 0.44548-0.44548 0-0.24603-0.19945-0.44548-0.44548-0.44548-0.24603 0-0.44548 0.19945-0.44548 0.44548 0 0.24603 0.19945 0.44548 0.44548 0.44548zm10.295-9.751c0.24603 0 0.44548-0.19945 0.44548-0.44548 0-0.24603-0.19945-0.44548-0.44548-0.44548-0.24603 0-0.44548 0.19945-0.44548 0.44548 0 0.24603 0.19945 0.44548 0.44548 0.44548zm9.3055 8.7115c0.24603 0 0.44548-0.19945 0.44548-0.44548s-0.19945-0.44548-0.44548-0.44548-0.44548 0.19945-0.44548 0.44548 0.19945 0.44548 0.44548 0.44548zm0 1.0394c0.24603 0 0.44548-0.19945 0.44548-0.44548 0-0.24603-0.19945-0.44548-0.44548-0.44548s-0.44548 0.19945-0.44548 0.44548c0 0.24603 0.19945 0.44548 0.44548 0.44548zm-26.54 70.667c-0.21091-1.1717-0.37496-2.5778-0.49213-4.2182l-0.0703 3.8667zm14.096-41.655c-0.18748 0.72647-0.72647 1.5115-1.617 2.3552l-8.6122 8.4365v9.2801l10.51-14.483h0.35152c0.51556-1.8045 0.30465-3.6675-0.63274-5.5892zm-12.373-3.9722c0.28122 0.0703 0.55071 0.23435 0.8085 0.49213v0.42182l-0.42182 0.52728v6.6086h-0.38667zm-1.3358 0.49213c0.25778-0.25778 0.539-0.42182 0.84365-0.49213v8.0498h-0.38667v-6.6086l-0.45698-0.52728zm33.148 45.135 0.56243-0.35152-0.0703-3.8667c-0.18748 1.8748-0.35152 3.2808-0.49213 4.2182zm-14.096-41.655c-0.96082 1.9216-1.1717 3.7847-0.63274 5.5892h0.35152l10.51 14.483v-9.2801l-8.6474-8.4365c-0.89052-0.86708-1.4178-1.6521-1.5818-2.3552zm12.373-3.9722v8.0498h-0.38667v-6.6086l-0.45698-0.52728v-0.42182c0.30465-0.25778 0.58587-0.42182 0.84365-0.49213zm1.3006 0.49213v0.42182l-0.42182 0.52728v6.6086h-0.38667v-8.0498c0.25778 0.0703 0.52728 0.23435 0.8085 0.49213zm0.8085 8.5419c0.11717-0.30465 0.17576-0.62102 0.17576-0.9491v-5.4134c0-2.0622-0.70304-3.0934-2.1091-3.0934-0.70304 0-1.2245 0.38667-1.5643 1.16-0.3398 0.77334-0.5097 1.4178-0.5097 1.9334v5.4134c0 0.39839 0.04687 0.71476 0.14061 0.9491v27.805c0 0.42182 0.13475 2.3786 0.40425 5.8704 0.2695 3.4918 0.61516 5.2376 1.037 5.2376h0.98426c0.37495 0 0.7089-1.7459 1.0018-5.2376 0.29293-3.4918 0.4394-5.4486 0.4394-5.8704zm-17.295-10.44v3.5503c0.09374 0.28122 0.18748 0.28122 0.28122 0v-3.5503zm0.70304 3.6207v0.45698h-1.1249v-0.45698c-0.51556-1.4295-0.83193-2.8004-0.9491-4.1128l-2.1091-0.38667 0.03515-0.38667c-0.35152-0.04687-0.85536-0.14061-1.5115-0.28122-0.04687 2.3903 0.14061 5.3665 0.56243 8.9286 0.35152-0.30465 0.65617-0.62102 0.91395-0.9491 0.28122-0.39839 0.46869-0.78506 0.56243-1.16l0.24606-1.0546 0.49213 0.98426c0.56243 1.1249 0.84365 2.5192 0.84365 4.1831 0 0.42182-0.01172 0.71476-0.03515 0.8788-0.04687 0.35152-0.09374 0.63274-0.14061 0.84365l-0.10546 0.28122h-0.45698l-1.4412 2.0037c0.46869 3.4449 0.71476 5.7766 0.73819 6.9952 0.02343 2.6247 0.99597 3.937 2.9176 3.937 1.8513 0 2.8239-1.3123 2.9176-3.937 0.02343-1.5701 0.2695-3.9019 0.73819-6.9952l-1.4412-2.0037h-0.45698l-0.10546-0.28122c-0.0703-0.21091-0.11717-0.49213-0.14061-0.84365-0.02344-0.16404-0.03515-0.45698-0.03515-0.8788 0-1.6639 0.28122-3.0582 0.84365-4.1831l0.45698-0.98426 0.28122 1.0546c0.0703 0.37495 0.25778 0.76163 0.56243 1.16 0.18748 0.30465 0.48041 0.62102 0.8788 0.9491 0.42182-3.398 0.62102-6.3742 0.59758-8.9286-0.6093 0.14061-1.1131 0.23435-1.5115 0.28122v0.38667l-2.074 0.38667c-0.18748 1.4529-0.50384 2.8239-0.9491 4.1128zm-1.6873-4.0425c0.14061 1.0546 0.32808 1.9802 0.56243 2.777v-2.4255l-0.35152-0.31637zm1.6873 0.35152v2.4255c0.21091-0.79678 0.39839-1.7224 0.56243-2.777l-0.21091 0.03515zm-0.70304-11.389c-0.70304 0-1.0546 0.35152-1.0546 1.0546v1.7928c-1.0546 0.539-1.5818 1.3826-1.5818 2.5309l-0.42182 4.851 2.4606 0.49213 0.42182 0.35152h0.63274l0.42182-0.35152 2.4255-0.49213-0.42182-4.851c0-1.2889-0.6093-2.1677-1.8279-2.6364v-1.6873c0-0.70304-0.35152-1.0546-1.0546-1.0546zm0.14061 3.9019c-0.96082 0-1.4412 0.49213-1.4412 1.4764 0 0.96082 0.48041 1.4412 1.4412 1.4412 0.98426 0 1.4764-0.48041 1.4764-1.4412 0-0.98426-0.49213-1.4764-1.4764-1.4764zm0-0.38667c1.242 0 1.8631 0.62102 1.8631 1.8631 0 1.242-0.62102 1.8631-1.8631 1.8631s-1.8631-0.62102-1.8631-1.8631c0-1.242 0.62102-1.8631 1.8631-1.8631zm0 1.16c-0.46869 0-0.70304 0.23435-0.70304 0.70304 0 0.44526 0.23435 0.66789 0.70304 0.66789s0.70304-0.22263 0.70304-0.66789c0-0.46869-0.23435-0.70304-0.70304-0.70304zm0-0.38667c0.72647 0 1.0897 0.36324 1.0897 1.0897 0 0.70304-0.36324 1.0546-1.0897 1.0546s-1.0897-0.35152-1.0897-1.0546c0-0.72647 0.36324-1.0897 1.0897-1.0897zm-0.17576 3.6558h0.35152v2.9176h-0.35152zm0.17576-21.548c-0.70304 0.046869-1.0546 0.39839-1.0546 1.0546 0 0.70304 0.35152 1.0546 1.0546 1.0546s1.0546-0.35152 1.0546-1.0546c0-0.70304-0.35152-1.0546-1.0546-1.0546zm0-0.38667c0.96082 0 1.4412 0.48041 1.4412 1.4412 0 0.96082-0.48041 1.4412-1.4412 1.4412s-1.4412-0.48041-1.4412-1.4412c0-0.96082 0.48041-1.4412 1.4412-1.4412zm0-2.7067c-1.1483 0-2.1326 0.41011-2.9528 1.2303-0.79678 0.79678-1.1952 1.7693-1.1952 2.9176 0 1.2655 0.48041 2.6481 1.4412 4.1479 0.96082 1.5467 1.8631 2.32 2.7067 2.32 0.82021 0 1.7224-0.77334 2.7067-2.32 0.96082-1.4998 1.4412-2.8825 1.4412-4.1479 0-1.1483-0.41011-2.1208-1.2303-2.9176-0.79678-0.82021-1.7693-1.2303-2.9176-1.2303zm0-0.42182c1.242 0 2.3083 0.44526 3.1988 1.3358s1.3358 1.9685 1.3358 3.234c0 1.3123-0.50384 2.7653-1.5115 4.3588-1.0546 1.6873-2.0622 2.5309-3.0231 2.5309s-1.9802-0.84365-3.0582-2.5309c-1.0077-1.5936-1.5115-3.0465-1.5115-4.3588 0-1.2186 0.44526-2.2966 1.3358-3.234 0.91395-0.89052 1.9919-1.3358 3.234-1.3358zm-2.4255 4.5346c0 0.32808 0.14061 0.85536 0.42182 1.5818 0.32808 0.65617 0.539 0.98425 0.63274 0.98425h2.7067c0.25778 0 0.46869-0.32808 0.63274-0.98425 0.28122-0.65617 0.42182-1.1834 0.42182-1.5818 0-1.617-0.77334-2.4489-2.32-2.4958-1.6404 0-2.4724 0.83193-2.4958 2.4958zm2.4255-2.8825h0.0703c1.781 0 2.695 0.96082 2.7419 2.8825 0 0.37495-0.15232 0.96082-0.45698 1.7576-0.32808 0.58587-0.52728 0.91395-0.59758 0.98425-0.11717 0.14061-0.25778 0.21091-0.42182 0.21091h-2.7067c-0.11717 0-0.24606-0.058587-0.38667-0.17576-0.23435-0.25778-0.43354-0.59758-0.59758-1.0194-0.30465-0.74991-0.45698-1.3358-0.45698-1.7576 0.023435-1.8748 0.96082-2.8356 2.8122-2.8825zm-17.189 37.367v27.805c0 0.42182 0.14061 2.3786 0.42182 5.8704 0.28122 3.4918 0.63274 5.2376 1.0546 5.2376h0.9491c0.39839 0 0.73819-1.7459 1.0194-5.2376 0.28122-3.4918 0.42182-5.4486 0.42182-5.8704v-27.805c0.11717-0.30465 0.17576-0.62102 0.17576-0.9491v-5.4134c0-0.44526-0.18748-1.0721-0.56243-1.8806-0.37495-0.8085-0.8788-1.2127-1.5115-1.2127-1.4061-0.02343-2.1091 1.0077-2.1091 3.0934v5.4134c0 0.39839 0.04687 0.71476 0.14061 0.9491z"/></g><metadata><rdf:RDF><cc:Work rdf:about=""><dc:creator><cc:Agent><dc:title>Noun Project / Chris</dc:title></cc:Agent></dc:creator><dc:title>uss-enterprise-ncc-1701-a</dc:title><cc:license rdf:resource="http://creativecommons.org/licenses/by-sa/4.0/"/></cc:Work><cc:License rdf:about="http://creativecommons.org/licenses/by-sa/4.0/"><cc:permits rdf:resource="http://creativecommons.org/ns#Reproduction"/><cc:permits rdf:resource="http://creativecommons.org/ns#Distribution"/><cc:requires rdf:resource="http://creativecommons.org/ns#Notice"/><cc:requires rdf:resource="http://creativecommons.org/ns#Attribution"/><cc:permits rdf:resource="http://creativecommons.org/ns#DerivativeWorks"/><cc:requires rdf:resource="http://creativecommons.org/ns#ShareAlike"/></cc:License></rdf:RDF></metadata></svg>