<?xml version="1.0" encoding="UTF-8"?><svg version="1.1" viewBox="0 0 24 24" xmlns="http://www.w3.org/2000/svg" xmlns:cc="http://creativecommons.org/ns#" xmlns:dc="http://purl.org/dc/elements/1.1/" xmlns:rdf="http://www.w3.org/1999/02/22-rdf-syntax-ns#">
 <title>USS Enterprise NCC-1701</title><g transform="matrix(.24597 0 0 .24597 -.35139 2.3106)"><path transform="rotate(90 50.214 39.115)" d="m50.196-9.6704c-9.7929 0-18.162 2.8652-25.108 8.5956-6.9456 5.7304-10.418 12.622-10.418 20.676 0 9.5308 4.5867 17.227 13.76 23.088l0.25018-1.7155 0.03574-0.21444 0.21444 0.03574 4.2889 1.108 0.14296 0.03574v0.96499h0.1787v2.5018c5.1704 2.2874 10.674 3.4311 16.512 3.4311v-3.86h0.32166v3.86c5.8138 0 11.318-1.1437 16.512-3.4311v-2.5018h0.1787v-0.96499l0.14296-0.03574 4.2889-1.108 0.21444-0.03574 0.03574 0.21444 0.25018 1.7155c9.1734-5.8614 13.76-13.558 13.76-23.088 0-8.0534-3.4787-14.945-10.436-20.676-6.9575-5.7304-15.333-8.5956-25.126-8.5956zm23.053 94.819c-0.07148-4.2889-0.10722-8.8041-0.10722-13.546s-0.21444-7.9939-0.64333-9.7571c-0.07148-0.07148-0.13105-0.14892-0.1787-0.23231-0.04765-0.08339-0.09531-0.17274-0.14296-0.26805-0.59568-1.096-0.95308-2.1921-1.0722-3.2881l-0.03574-0.21444h1.5011v-0.64333h-0.42888l-0.07148-1.5368h0.39314c0.11913-0.66716-0.02383-1.0246-0.42889-1.0722l-0.03574-0.71481c-0.09531-2.621-0.98882-3.9314-2.6805-3.9314-1.6679 0-2.5614 1.3105-2.6805 3.9314v0.75055c-0.26209 0.16666-0.36932 0.51215-0.32166 1.0365h0.25018l-0.03574 1.5368h-0.32166v0.64333h1.5726l-0.03574 0.21444c-0.11913 1.0484-0.48846 2.1444-1.108 3.2881-0.04765 0.07148-0.1787 0.30975-0.39314 0.71481-0.45272 2.2159-0.68503 5.5874-0.69694 10.115s-0.05361 8.8517-0.12509 12.974c-0.07148 1.8347 1.2271 2.752 3.8957 2.752 2.6448 0 3.9553-0.91734 3.9314-2.752zm-4.4318-32.131h1.1794c0.09531 0 0.14296 0.04765 0.14296 0.14296 0 0.09531-0.04765 0.14296-0.14296 0.14296h-1.1794c-0.09531 0-0.14296-0.04765-0.14296-0.14296 0-0.09531 0.04765-0.14296 0.14296-0.14296zm-0.14296 0.57185h1.4654c0.14296 0 0.21444 0.05957 0.21444 0.1787 0 0.14296-0.07148 0.21444-0.21444 0.21444h-1.4654c-0.11913 0-0.1787-0.07148-0.1787-0.21444 0-0.11913 0.05957-0.1787 0.1787-0.1787zm-0.07148 0.67907h1.6441c0.19061 0 0.28592 0.09531 0.28592 0.28592 0 0.21444-0.09531 0.32166-0.28592 0.32166h-1.6441c-0.21444 0-0.32166-0.10722-0.32166-0.32166 0-0.19062 0.10722-0.28592 0.32166-0.28592zm1.3224 23.231c0.16679 0 0.27401 0.09531 0.32166 0.28592l0.07148 2.2159c0 0.19062-0.09531 0.28592-0.28592 0.28592-0.19061 0.04765-0.28592-0.04765-0.28592-0.28592l-0.10722-2.1802c0-0.21444 0.09531-0.32166 0.28592-0.32166zm-1.1437 0c-0.16679 0-0.27401 0.09531-0.32166 0.28592l-0.07148 2.2159c0 0.19062 0.09531 0.28592 0.28592 0.28592 0.21444 0.04765 0.32166-0.04765 0.32166-0.28592l0.07148-2.1802c0-0.21444-0.09531-0.32166-0.28592-0.32166zm3.0379-22.945c-0.57185-0.09531-0.86373-0.64333-0.87564-1.6441-0.01191-1.0007-0.51824-1.5011-1.519-1.5011-1.0722 0-1.6322 0.52419-1.6798 1.5726-0.04765 1.0484-0.3574 1.5845-0.92925 1.6083l0.03574-0.67907c0.07148-2.5018 0.89351-3.7527 2.4661-3.7527 1.5488 0 2.3708 1.2509 2.4661 3.7527zm0.46463 6.1474-0.10722-2.5018h-0.67907c0.09531 0.73864 0.3574 1.5726 0.78629 2.5018zm-5.79-2.5018-0.14296 2.9307c0.50037-0.92925 0.84586-1.9062 1.0365-2.9307zm-31.487 26.948c-0.09531-4.1221-0.14892-8.4467-0.16083-12.974-0.01192-4.5271-0.23231-7.8986-0.6612-10.115-0.07148-0.09531-0.21444-0.33358-0.42889-0.71481-0.61864-1.1675-0.98796-2.2636-1.108-3.2881v-0.21444h1.5726v-0.64333h-0.32166l-0.03574-1.5368h0.25018c0-0.54802-0.10722-0.89351-0.32166-1.0365v-0.75055c-0.14296-2.621-1.0365-3.9314-2.6805-3.9314-1.7155 0-2.6091 1.3105-2.6805 3.9314l-0.03574 0.71481c-0.42888 0.04765-0.57185 0.40506-0.42888 1.0722h0.39314l-0.07148 1.5368h-0.42889v0.64333h1.5011l-0.03574 0.21444c-0.14296 1.1199-0.51228 2.2159-1.108 3.2881-0.02383 0.04765-0.11914 0.21444-0.28592 0.50037-0.47654 1.7632-0.70885 5.0156-0.69694 9.7571 0.01191 4.7416-6e-3 9.2568-0.05361 13.546-0.04785 1.8347 1.2626 2.752 3.9314 2.752 2.6448 0 3.9434-0.91734 3.8957-2.752zm-3.4311-32.131c0.11914 0 0.1787 0.04765 0.1787 0.14296 0 0.09531-0.05957 0.14296-0.1787 0.14296h-1.1794c-0.09531 0-0.14296-0.04765-0.14296-0.14296 0-0.09531 0.04766-0.14296 0.14296-0.14296zm0.14296 0.57185c0.14296 0 0.21444 0.05957 0.21444 0.1787 0 0.14296-0.07148 0.21444-0.21444 0.21444h-1.4296c-0.14296 0-0.21444-0.07148-0.21444-0.21444 0-0.11913 0.07148-0.1787 0.21444-0.1787zm0.10722 0.67907c0.21444 0 0.32166 0.09531 0.32166 0.28592 0 0.21444-0.10722 0.32166-0.32166 0.32166h-1.6441c-0.21444 0-0.32166-0.10722-0.32166-0.32166 0-0.19062 0.10722-0.28592 0.32166-0.28592zm-1.3224 23.231c-0.21444 0-0.32166 0.09531-0.32166 0.28592l-0.07148 2.2159c-0.04766 0.19062 0.03574 0.28592 0.25018 0.28592 0.19062 0.04765 0.30975-0.04765 0.3574-0.28592l0.07148-2.1802c0-0.21444-0.09531-0.32166-0.28592-0.32166zm1.108 0c0.21444 0 0.32166 0.09531 0.32166 0.28592l0.10722 2.2159c0 0.19062-0.09531 0.28592-0.28592 0.28592-0.21444 0.04765-0.32166-0.04765-0.32166-0.28592l-0.07148-2.1802c-0.04766-0.21444 0.03574-0.32166 0.25018-0.32166zm-3.0022-22.945v-0.64333c0.07148-2.5018 0.90543-3.7527 2.5018-3.7527 1.5488 0 2.3708 1.2509 2.4661 3.7527l0.03574 0.67907c-0.57185-0.02383-0.88756-0.55994-0.94712-1.6083-0.05957-1.0484-0.61354-1.5726-1.6619-1.5726-1.0007 0-1.513 0.50037-1.5368 1.5011-0.02383 1.0007-0.30975 1.5488-0.85777 1.6441zm-0.46463 6.1474c0.40506-0.92925 0.66715-1.7632 0.78629-2.5018h-0.67907zm5.79-2.5018h-0.89351c0.16679 1.0007 0.50037 1.9776 1.0007 2.9307zm26.841-10.293c-0.19061 0.04765-0.37528 0.09531-0.55398 0.14296-0.1787 0.04765-0.35144 0.0834-0.51824 0.10722-2.1444 1.8823-3.7051 3.443-4.682 4.682-1.7155 2.1921-2.6686 4.4914-2.8592 6.8979l-1.4654 19.336c1.7394-0.64333 3.3596-1.9359 4.8607-3.8778 1.5011-1.9419 2.7044-5.093 3.6098-9.4533 0.45272-2.1921 0.94712-4.7833 1.4832-7.7735 0.53611-2.9903 0.57781-6.3439 0.12509-10.061zm-10.722 30.987v-29.665c-2.8592-0.02382-5.7185-0.32166-8.5777-0.89351 1.8108 1.6202 3.2166 3.0499 4.2174 4.2889 1.7394 2.2397 2.7163 4.5986 2.9307 7.0766zm0.32166-29.665v29.665l1.4296-19.193c0.14296-2.4304 1.1199-4.7892 2.9307-7.0766 0.8816-1.1437 2.2874-2.5733 4.2174-4.2889-2.8831 0.57185-5.7423 0.86969-8.5777 0.89351zm-2.1087 10.508c-0.21444-2.4065-1.1675-4.7058-2.8592-6.8979-1.0007-1.2389-2.5614-2.7996-4.682-4.682-0.11816-0.02383-0.34452-0.07148-0.67907-0.14296l-0.42889-0.10722c-0.45271 3.717-0.41102 7.0707 0.12509 10.061 0.53611 2.9903 1.0424 5.5815 1.519 7.7735 0.88135 4.3603 2.0667 7.5115 3.5562 9.4533 1.4892 1.9419 3.1154 3.2345 4.8786 3.8778zm10.686 8.5062c-0.8095 3.026-1.8698 5.4683-3.1809 7.3268-1.4058 1.9062-3.1332 3.2286-5.1824 3.9672l-0.14296 0.14296c-0.09531 0.04765-0.1787 0.07148-0.25018 0.07148-0.04765 0-0.11913-0.02383-0.21444-0.07148-0.04766 0-0.0834-0.01787-0.10722-0.05361-0.02383-0.03574-0.04766-0.06552-0.07148-0.08935-2.0968-0.76246-3.8123-2.0849-5.1466-3.9672-1.3105-1.787-2.3708-4.2293-3.1809-7.3268-0.66715 2.0729-2.752 3.2405-6.2546 3.5026 0.04765 2.7639 0.07148 4.9322 0.07148 6.5048 0.02383 1.0722 0.03574 2.6686 0.03574 4.7892 2.5495 0.07148 5.921-0.28592 10.115-1.0722 0.71481-0.11914 1.4832-0.12509 2.3053-0.01787 0.82203 0.10722 1.6381 0.18466 2.4482 0.23231 0.81012-0.04765 1.6262-0.12509 2.4482-0.23231 0.82203-0.10722 1.5904-0.10126 2.3053 0.01787 4.1932 0.78629 7.5647 1.1437 10.115 1.0722 0.02383-1.0484 0.03574-2.6448 0.03574-4.7892 0.04765-2.9545 0.08339-5.1228 0.10722-6.5048-3.5264-0.2621-5.6112-1.4296-6.2546-3.5026zm-10.007 12.259c0.2621 0.04765 0.38123 0.22636 0.3574 0.53611-0.04765 0.28592-0.21444 0.40506-0.50037 0.3574l-2.5733-0.42889c-0.30975-0.02383-0.4408-0.19062-0.39314-0.50037 0.07148-0.26203 0.23827-0.38117 0.50037-0.3574zm2.6448 0.89351c-0.26209 0.04765-0.42888-0.07148-0.50037-0.3574-0.04765-0.30975 0.08339-0.48845 0.39314-0.53611l2.5733-0.39314c0.28592-0.02383 0.45272 0.09531 0.50037 0.3574 0.02383 0.30972-0.09531 0.47651-0.3574 0.50037zm-2.2516-59.615v-0.07148c-0.11914 0-0.19062-0.03574-0.21444-0.10722-0.07148-0.02383-0.10722-0.10722-0.10722-0.25018v-0.42888c0-0.09531 0.03574-0.1787 0.10722-0.25018 0.07148-0.07148 0.15488-0.10722 0.25018-0.10722 0.02383 0 0.10722 0.03574 0.25018 0.10722 0 0.02382 6e-3 0.03574 0.01787 0.03574h0.01787c0.07148-0.21444 0.2621-0.32166 0.57185-0.32166 0.26209 0 0.4408 0.25018 0.53611 0.75055 0 0.09531 0.02383 0.21444 0.07148 0.3574s0.08339 0.22636 0.10722 0.25018c0.07148 0.3574 0.10722 0.52419 0.10722 0.50037 0 0.02383-0.01191 0.04766-0.03574 0.07148 0 0.21444-0.08339 0.40506-0.25018 0.57185-0.23602 0.23827-0.43855 0.33358-0.60759 0.28592h-0.03574c-0.14296 0-0.2621-0.03574-0.3574-0.10722h-0.03574v0.07148c0 0.02383-0.03574 0.10722-0.10722 0.25018-0.09531 0.04766-0.1787 0.07148-0.25018 0.07148-0.11858 0-0.20198-0.02383-0.25018-0.07148-0.07148-0.07148-0.10722-0.15488-0.10722-0.25018v-0.46463c0-0.09531 0.03574-0.1787 0.10722-0.25018l0.03574-0.01787c0.02328-0.01191 0.0471-0.02978 0.07148-0.05361v-0.25018c0-0.09531 0.03574-0.20253 0.10722-0.32166zm0.3574 0.75055c0.04766 0.11914 0.13105 0.19062 0.25018 0.21444 0.04766 0.04766 0.11913 0.07148 0.21444 0.07148 0.09531 0 0.20253-0.05957 0.32166-0.1787 0.04765 0 0.07148-0.02383 0.07148-0.07148-0.11913 0.11914-0.26209 0.1787-0.42888 0.1787-0.07148 0-0.15488-0.02382-0.25018-0.07148-0.04766-0.02382-0.10722-0.07148-0.1787-0.14296zm0.64333-1.6798c-0.04765-0.07148-0.08339-0.10722-0.10722-0.10722-0.11913 0-0.19062 0.03574-0.21444 0.10722 0.02383-0.02382 0.08339-0.03574 0.1787-0.03574 0.07148 0 0.11913 0.01191 0.14296 0.03574zm-0.14296 0.82203c0.04765 0 0.08339 0.01191 0.10722 0.03574v-0.03574c-0.04765-0.09531-0.07148-0.1787-0.07148-0.25018 0-0.14296-0.01191-0.21444-0.03574-0.21444-0.04765 0-0.09531 0.04766-0.14296 0.14296v0.21444c-0.04766 0.09531-0.07148 0.15488-0.07148 0.1787-0.02383 0.02383-0.0417 0.04766-0.05361 0.07148l-0.01787 0.03574 0.03574-0.03574c0.09531-0.09531 0.1787-0.14296 0.25018-0.14296zm0-8.1488c-2.3589 0-4.3484 0.57185-5.9687 1.7155-1.6202 1.1199-2.4304 2.478-2.4304 4.0744 0 0.97691 0.32166 1.8585 0.96499 2.6448-0.02383-0.02585 0.09531 0.12902 0.3574 0.46463 0.19062 0.19062 0.34549 0.33358 0.46463 0.42888 0.57185 0.66715 0.96499 1.2033 1.1794 1.6083 0.3574 0.71481 0.55993 1.4177 0.60759 2.1087 0.04766 1.1914-0.11914 2.9069-0.50037 5.1466-0.30975 2.1204-0.47654 3.419-0.50037 3.8957 0.28592-0.64333 0.6195-1.108 1.0007-1.3939 0.16679-0.16513 0.34549-0.29618 0.53611-0.39315h8.6134c0.69098 0.42889 1.1913 1.0246 1.5011 1.787-0.11913-1.1914-0.28592-2.4899-0.50037-3.8957-0.38124-2.335-0.53611-4.0387-0.46463-5.1109v-0.03574c0.02383-0.73852 0.21444-1.4414 0.57185-2.1087 0.23827-0.45271 0.64333-0.98882 1.2152-1.6083 0.50037-0.47654 0.8816-0.92925 1.1437-1.3581 0.02383-0.04765 0.04765-0.08935 0.07148-0.12509l0.10722-0.16083c0.30975-0.64333 0.46463-1.2747 0.46463-1.8942 0-1.5964-0.82203-2.9545-2.4661-4.0744-1.6202-1.1437-3.6098-1.7155-5.9687-1.7155zm-4.1816 20.694c-0.57185 0.47613-0.8816 1.0242-0.92925 1.6441h10.079c0-0.59567-0.25018-1.1437-0.75055-1.6441zm9.4712 2.0015h-10.794c0-0.21444 0.01192-0.36932 0.03574-0.46463-0.23827 0.54802-0.36932 1.2986-0.39314 2.2516h-0.3574c-0.07148-1.1675 0.10722-3.2762 0.53611-6.3261 0.3574-2.4542 0.52419-4.1459 0.50037-5.0751-0.07148-0.71481-0.2621-1.3701-0.57185-1.9657-0.21444-0.42889-0.58376-0.92925-1.108-1.5011-0.09531-0.07148-0.1787-0.14892-0.25018-0.23231-0.07148-0.0834-0.14296-0.16083-0.21444-0.23231-0.07148-0.07148-0.14296-0.14892-0.21444-0.23231-0.07148-0.0834-0.14296-0.17275-0.21444-0.26805-0.66715-0.88134-1.0007-1.8344-1.0007-2.8592 0-1.6917 0.86969-3.1452 2.6091-4.3603 1.6679-1.1913 3.717-1.787 6.1474-1.787 2.4065 0 4.4676 0.59568 6.1831 1.787 1.7394 1.2152 2.6091 2.6686 2.6091 4.3603 0 0.69098-0.16679 1.3701-0.50037 2.0372-0.04765 0.07148-0.08339 0.13105-0.10722 0.1787l-0.07148 0.14296c-0.30975 0.52419-0.71481 1.0126-1.2152 1.4654-0.47654 0.47654-0.85777 0.97691-1.1437 1.5011-0.30975 0.5479-0.48846 1.2031-0.53611 1.9657-0.07148 1.0482 0.08339 2.7399 0.46463 5.0751 0.42888 2.9068 0.6195 5.0274 0.57185 6.3618l-0.39314-0.03574c0-0.3574-0.01191-0.6195-0.03574-0.78629-0.04765-0.33358-0.08339-0.57185-0.10722-0.71481-0.11913-0.45271-0.28592-0.8816-0.50037-1.2867 0.07148 0.28592 0.09531 0.6195 0.07148 1.0007zm-4.5033-19.693c0.07148 0 0.11913 0.01191 0.14296 0.03574 0.28592 0.07148 0.53611 0.1787 0.75055 0.32166 1.0722 0.66715 1.8109 2.0253 2.2159 4.0744 0.07148 0.33358 0.10722 0.60759 0.10722 0.82203 0.04765 1.0246-0.20253 1.8704-0.75055 2.5376-0.54802 0.64333-1.3343 1.0603-2.3589 1.2509-0.33358 0.04765-0.6195 0.07148-0.85777 0.07148-0.28592 0.02383-0.69098 0.01192-1.2152-0.03574-0.85777-0.16679-1.5249-0.53611-2.0015-1.108-0.50037-0.54802-0.76246-1.2747-0.78629-2.1802-0.04765-0.40506-0.01191-0.84586 0.10722-1.3224 0.23827-1.4773 0.66715-2.5852 1.2867-3.3239 0.64333-0.83394 1.5011-1.2509 2.5733-1.2509 0.25985 0 0.52194 0.03574 0.78629 0.10722zm0 8.3275c0.85777-0.16679 1.4892-0.50037 1.8942-1.0007 0.45272-0.52419 0.64333-1.2033 0.57185-2.0372 0-0.14296-0.02383-0.38123-0.07148-0.71481-0.33358-1.8106-0.95308-3.0138-1.8585-3.6098-0.07148 0-0.13105-0.01787-0.1787-0.05361-0.04765-0.03574-0.09531-0.06553-0.14296-0.08935 0.3574 0.2621 0.64333 0.54802 0.85777 0.85777 0.50037 0.71481 0.75055 1.5726 0.75055 2.5733 0 0.64333-0.11913 1.2628-0.3574 1.8585-0.11913 0.23827-0.25018 0.47654-0.39314 0.71481-0.5242 0.73863-1.1437 1.108-1.8585 1.108-0.71481 0-1.3343-0.36932-1.8585-1.108-0.47654-0.71481-0.71481-1.5726-0.71481-2.5733 0-1.0007 0.23827-1.8585 0.71481-2.5733 0.28592-0.38123 0.59567-0.67907 0.92925-0.89351-0.42889 0.14296-0.78629 0.41697-1.0722 0.82203-0.57185 0.71481-0.95308 1.7036-1.1437 2.9665-0.07148 0.42889-0.10722 0.82203-0.10722 1.1794 0.02383 0.71481 0.23827 1.2986 0.64333 1.7513 0.3574 0.45271 0.8816 0.72672 1.5726 0.82203 0.33358 0.09531 0.67907 0.11914 1.0365 0.07148 0.18837 0 0.45046-0.02382 0.78629-0.07148zm1.2867-2.895c0.09531-0.30975 0.14296-0.70289 0.14296-1.1794 0-0.92925-0.21444-1.7275-0.64333-2.3946-0.19061-0.238-0.33357-0.40479-0.42888-0.50037-0.3574-0.28592-0.73864-0.42889-1.1437-0.42889-0.57185 0-1.0841 0.30975-1.5368 0.92925-0.45271 0.71481-0.67907 1.513-0.67907 2.3946 0 0.92925 0.22636 1.7155 0.67907 2.3589s0.96499 0.96499 1.5368 0.96499c0.57185 0 1.096-0.32166 1.5726-0.96499 0.21444-0.33358 0.38124-0.72672 0.50037-1.1794zm16.155-16.012c5.1228 3.7885 7.6842 8.3394 7.6842 13.653 0 5.3611-2.5614 9.9001-7.6842 13.617-2.5968 1.9538-5.6943 3.4311-9.2925 4.4318l-0.50037-1.0365c3.4787-0.90543 6.5285-2.3231 9.1496-4.2531 4.813-3.5264 7.2196-7.7795 7.2196-12.759 0-4.956-2.4065-9.2091-7.2196-12.759-4.8607-3.574-10.722-5.3611-17.584-5.3611-6.886 0-12.747 1.787-17.584 5.3611-4.7892 3.574-7.1838 7.8272-7.1838 12.759 0 4.956 2.3946 9.2091 7.1838 12.759 2.621 1.93 5.6708 3.3477 9.1496 4.2531l-0.50037 1.0365c-3.5979-1.0246-6.6954-2.5018-9.2925-4.4318-5.099-3.7408-7.6485-8.2799-7.6485-13.617 0-5.3134 2.5495-9.8644 7.6485-13.653 5.0037-3.717 11.08-5.5755 18.228-5.5755 7.1243 0 13.2 1.8585 18.228 5.5755zm-35.455 36.956v-0.67907l-3.9672-1.0007-0.25018 1.6798zm38.671 0-0.25018-1.6798-3.9672 1.0007v0.67907z"/></g><metadata><rdf:RDF><cc:Work rdf:about=""><dc:creator><cc:Agent><dc:title>Noun Project / Chris</dc:title></cc:Agent></dc:creator><dc:title>uss-enterprise-ncc-1701-d</dc:title><cc:license rdf:resource="http://creativecommons.org/licenses/by-sa/4.0/"/></cc:Work><cc:License rdf:about="http://creativecommons.org/licenses/by-sa/4.0/"><cc:permits rdf:resource="http://creativecommons.org/ns#Reproduction"/><cc:permits rdf:resource="http://creativecommons.org/ns#Distribution"/><cc:requires rdf:resource="http://creativecommons.org/ns#Notice"/><cc:requires rdf:resource="http://creativecommons.org/ns#Attribution"/><cc:permits rdf:resource="http://creativecommons.org/ns#DerivativeWorks"/><cc:requires rdf:resource="http://creativecommons.org/ns#ShareAlike"/></cc:License></rdf:RDF></metadata></svg>