<svg enable-background="new 0 0 100 100" version="1.1" viewBox="0 0 24 24" xmlns="http://www.w3.org/2000/svg" xmlns:cc="http://creativecommons.org/ns#" xmlns:dc="http://purl.org/dc/elements/1.1/" xmlns:rdf="http://www.w3.org/1999/02/22-rdf-syntax-ns#"><title>USS Enterprise NX-01</title><path d="m23.633 9.8245h0.3667c-0.73951-3.6033-3.4342-6.2748-6.6468-6.2748-2.6161 0-4.889 1.772-6.0423 4.3758l-2.8361-0.18854-0.55657-1.8026h2.0063c0.45031 0 0.81514-0.36483 0.81514-0.81514s-0.36483-0.81514-0.81514-0.81514h-9.9245v1.6303h5.0855l2.6377 5.1598h-0.42901v1.4452h0.42901l-2.6377 5.1814h-5.0855v1.6303h9.9245c0.45031 0 0.81514-0.36483 0.81514-0.81514 0-0.0037-0.0011-0.0072-0.0011-0.01092 0-0.0037 0.0011-0.0072 0.0011-0.01092 0-0.45005-0.36483-0.81514-0.81514-0.81514l-1.9964 0.02184 0.54671-1.8026 2.8361-0.18854-0.0229-0.02024 0.02024-0.0013c1.1525 2.6073 3.4267 4.3822 6.045 4.3822 3.2121 0 5.9068-2.671 6.6466-6.2735h-0.36643zm-13.482 1.9925c0-0.0029 7.99e-4 -0.0056 7.99e-4 -0.0085 0-0.35711-0.26284-0.6503-0.60503-0.7033v-0.01094h-0.06578l-0.35764-1.1933h1.5685c-0.12143 0.61622-0.18748 1.2583-0.18748 1.9192 0 0.65883 0.06578 1.2985 0.18614 1.9128h-1.5672l0.35764-1.1933h0.06578v-0.01118c0.3422-0.05299 0.60503-0.34619 0.60503-0.7033 0-0.0027-7.99e-4 -0.0053-7.99e-4 -0.0083z" stroke-width=".2663"/><metadata><rdf:RDF><cc:Work rdf:about=""><dc:creator><cc:Agent><dc:title>Noun Project / Mark Hammar</dc:title></cc:Agent></dc:creator><dc:title>uss-enterprise-nx-01</dc:title><cc:license rdf:resource="http://creativecommons.org/licenses/by-sa/4.0/"/></cc:Work><cc:License rdf:about="http://creativecommons.org/licenses/by-sa/4.0/"><cc:permits rdf:resource="http://creativecommons.org/ns#Reproduction"/><cc:permits rdf:resource="http://creativecommons.org/ns#Distribution"/><cc:requires rdf:resource="http://creativecommons.org/ns#Notice"/><cc:requires rdf:resource="http://creativecommons.org/ns#Attribution"/><cc:permits rdf:resource="http://creativecommons.org/ns#DerivativeWorks"/><cc:requires rdf:resource="http://creativecommons.org/ns#ShareAlike"/></cc:License></rdf:RDF></metadata></svg>