<?xml version="1.0" encoding="UTF-8"?><svg version="1.1" viewBox="0 0 24 24" xmlns="http://www.w3.org/2000/svg" xmlns:cc="http://creativecommons.org/ns#" xmlns:dc="http://purl.org/dc/elements/1.1/" xmlns:rdf="http://www.w3.org/1999/02/22-rdf-syntax-ns#"><title>USS Enterprise NCC-1701</title><g transform="matrix(.25263 0 0 .25263 -.63158 5.5106)"><path d="m55.562 21.32c-9e-3 0.2519-0.01348 0.50493-0.01348 0.75902 0 0.25801 0.0047 0.51494 0.0139 0.7707l-0.38513-0.01168v4.1437l1.1799 0.88492c2.5122 8.7697 10.59 15.188 20.167 15.188 11.584 0 20.976-9.3911 20.976-20.976 0-11.584-9.3911-20.976-20.976-20.976-9.5769 0-17.655 6.4182-20.167 15.188l-1.1799 0.88492v4.1437zm21.225 5.4477c2.6167 0 4.738-2.1213 4.738-4.738s-2.1213-4.738-4.738-4.738-7.9124 2.1213-7.9124 4.738 5.2956 4.738 7.9124 4.738zm0.0083-0.51758c2.3309 0 4.2204-1.8896 4.2204-4.2204s-1.8896-4.2204-4.2204-4.2204-7.4429 1.8896-7.4429 4.2204 5.112 4.2204 7.4429 4.2204zm-0.12274-1.654c1.4174 0 2.5664-1.149 2.5664-2.5664s-1.149-2.5664-2.5664-2.5664-2.5664 1.149-2.5664 2.5664 1.149 2.5664 2.5664 2.5664zm0-0.39483c1.1993 0 2.1716-0.97225 2.1716-2.1716s-0.97225-2.1716-2.1716-2.1716-2.1716 0.97225-2.1716 2.1716 0.97225 2.1716 2.1716 2.1716zm0.04935-0.69096c0.79047 0 1.4313-0.6408 1.4313-1.4313 0-0.79047-0.6408-1.4313-1.4313-1.4313s-1.4313 0.6408-1.4313 1.4313c0 0.79047 0.6408 1.4313 1.4313 1.4313zm0-0.39483c0.57241 0 1.0364-0.46403 1.0364-1.0364s-0.46403-1.0364-1.0364-1.0364-1.0364 0.46403-1.0364 1.0364 0.46403 1.0364 1.0364 1.0364zm-17.406 0.0094v1.4277h-1.0794v1.4973h-1.0098v-2.925zm0.09871-2.0743h-2.0892v-2.9598h1.0098v1.4973h1.0795zm-20.579 11.768c0-0.25535-0.25536-0.38304-0.76607-0.38304h-8.6009c-0.51071 0-0.76607 0.12768-0.76607 0.38304v0.41786h0.94018v-0.13926c0-0.20893 0.20893-0.31339 0.62678-0.31339h7.0339c0.41786 0 0.62678 0.10446 0.62678 0.31339v0.13928h0.90536zm16.053-6.0589v-3.6562h-0.10446c-0.20893 0-0.34821 0.0058-0.4875 0.01741-0.13928 0.0116-0.27857 0.02902-0.41786 0.05223-1.4625 0.02322-2.8553-0.11607-4.1786-0.41786l-0.13928-0.06964c-0.06964 0-0.10446-0.02322-0.10446-0.06964-0.18572-0.16031-0.27857-0.35763-0.27857-0.59196 0-0.09286 0.01161-0.1625 0.03482-0.20893 0-0.04643 0.01161-0.08125 0.03482-0.10446 0.06964-0.20893 0.22054-0.3366 0.45268-0.38304 0.11607-0.04643 0.23795-0.08125 0.36562-0.10446 0.12768-0.02321 0.26116-0.04643 0.40045-0.06964 0.37068-0.04643 0.63764-0.09286 0.80089-0.13929 1.1143-0.13928 2.3214-0.15089 3.6214-0.03482v-3.6911l-13.545 0.975v1.6018h-4.1437v-1.2884l-6.1286 0.41786-0.55714 0.62678v4.8402l0.55714 0.59196 6.1286 0.45268v-1.2884h4.1437v1.6018zm-16.053-15.53v-0.38303h-0.90536v0.10446c0 0.23214-0.20893 0.34821-0.62678 0.34821h-7.0339c-0.41786 0-0.62678-0.11607-0.62678-0.34821v-0.10446h-0.94018v0.38303c0 0.27857 0.25536 0.41786 0.76607 0.41786h8.6009c0.51071 0 0.76607-0.13928 0.76607-0.41786zm-20.754-4.875c0-0.27857-0.24375-0.41786-0.73125-0.41786h-8.6009c-0.53393 0-0.80089 0.13929-0.80089 0.41786v0.41786h0.94018v-0.10446c0-0.23214 0.20893-0.34821 0.62678-0.34821h7.0339c0.41786 0 0.62678 0.11607 0.62678 0.34821v0.10446h0.90536zm0 4.4571v-0.38304h-0.90536v0.10446c0 0.23214-0.20893 0.34821-0.62678 0.34821h-7.0339c-0.41786 0-0.62678-0.11607-0.62678-0.34821v-0.10446h-0.94018v0.38304c0 0.27857 0.26696 0.41786 0.80089 0.41786h8.6009c0.4875 0 0.73125-0.13928 0.73125-0.41786zm0 22.425c0-0.25535-0.24375-0.38304-0.73125-0.38304h-8.6009c-0.53393 0-0.80089 0.12768-0.80089 0.38304v0.41786h0.94018v-0.10446c0-0.23214 0.20893-0.34821 0.62678-0.34821h7.0339c0.41786 0 0.62678 0.11607 0.62678 0.34821v0.10446h0.90536zm0 4.4571v-0.38303h-0.90536v0.10446c0 0.23214-0.20893 0.34821-0.62678 0.34821h-7.0339c-0.41786 0-0.62678-0.11607-0.62678-0.34821v-0.10446h-0.94018v0.38303c0 0.27857 0.26696 0.41786 0.80089 0.41786h8.6009c0.4875 0 0.73125-0.13928 0.73125-0.41786zm12.187-13.545v-4.2134c-0.62678 0.67321-0.91696 1.3696-0.87053 2.0893-0.04643 0.67294 0.24375 1.381 0.87053 2.1241zm-23.4-13.545h-0.27857v-3.7955h0.27857zm42.935 0.41786h-1.3929v-4.5616h1.3929zm-42.935 22.425v3.8303h-0.27857v-3.8303zm42.935-0.41786v4.5616h-1.3929v-4.5616zm1.4277-24.305v-2.2982c1.5321 0 2.2982 0.76607 2.2982 2.2982 0 1.5089-0.76607 2.2634-2.2982 2.2634zm0 26.638v-2.2634c1.5321 0 2.2982 0.75446 2.2982 2.2634s-0.76607 2.2634-2.2982 2.2634zm-13.754-16.819v1.0446h3.5866v-8.0089l-2.0545-0.03482c-0.13928 0.13929-0.23214 0.22054-0.27857 0.24375-0.23214 0.09286-0.45268 0.13929-0.6616 0.13929h-0.59196zm-31.27-7.7303 1.4973 0.03482v-0.73125h1.4625c0 0.325 0.11607 0.4875 0.34821 0.4875h7.0339c0.23214-0.04643 0.34821-0.20893 0.34821-0.4875h1.4625c0 0.51071-0.01161 0.80089-0.03482 0.87053l10.133 0.13928v-0.55714h1.4277c0 0.30178 0.11607 0.45268 0.34821 0.45268h7.0687c0.23214-0.04458 0.34821-0.19548 0.34821-0.45268h1.4625v0.69643l9.2973 0.13928v-0.17411h1.3929v0.17411l1.1839 0.03482c2.0196-0.06964 3.0004-1.004 2.9424-2.8031-0.05804-1.7991-1.0388-2.6754-2.9424-2.629h-1.1839v0.20893h-1.3929v-0.17411l-30.051 0.41786v0.59196h-1.4625c0-0.27857-0.11607-0.42946-0.34821-0.45268h-7.0339c-0.23214 0-0.34821 0.15089-0.34821 0.45268h-1.4625v-0.45268h-1.4973zm-0.27857 0v-4.2134l-2.2286-0.24375c-0.78928-0.092856-1.1897 0.66161-1.2013 2.2634-0.011607 1.6018 0.38884 2.3795 1.2013 2.333zm35.135 14.973v-1.2884h-3.5866v7.6607h0.59196c0.27857 0 0.49911 0.04643 0.6616 0.13929 0.11607 0.04642 0.20893 0.12767 0.27857 0.24375l2.0545-0.03482zm7.3473 6.8946-9.2973 0.13929v0.69643h-1.4625c0-0.27857-0.11607-0.42946-0.34821-0.45268h-7.0687c-0.23214 0-0.34821 0.15089-0.34821 0.45268h-1.4277v-0.55714l-10.133 0.13929c0.02321 0.04642 0.03482 0.325 0.03482 0.83571h-1.4625c0-0.27857-0.11607-0.42946-0.34821-0.45268h-7.0339c-0.23214 0-0.34821 0.15089-0.34821 0.45268h-1.4625v-0.69643l-1.4973 0.03482v4.1786l1.4973 0.03482v-0.45268h1.4625c0 0.30179 0.11607 0.45268 0.34821 0.45268h7.0339c0.23214-0.04642 0.34821-0.19732 0.34821-0.45268h1.4625v0.59196l30.051 0.41786v-0.20893h1.3929v0.20893l1.1839 0.03482c1.9034 0.02322 2.8842-0.85893 2.9424-2.6464 0.05803-1.7875-0.92276-2.7161-2.9424-2.7857l-1.1839 0.03482v0.17411h-1.3929zm-42.482 4.8053v-4.2134l-2.2286-0.13928c-0.8125-0.06964-1.2129 0.69643-1.2013 2.2982 0.011607 1.6018 0.41205 2.3678 1.2013 2.2982zm48.959-16.227c-1.2071-0.13929-2.3911-0.11607-3.5518 0.06964-0.04643 0-0.31339 0.03482-0.80089 0.10446-0.13928 0.02213-0.27277 0.04535-0.40044 0.06964-0.12768 0.02321-0.24955 0.05803-0.36562 0.10446-0.1625 0.02321-0.25536 0.09286-0.27857 0.20893 0 0.04643-0.01161 0.06964-0.03482 0.06964v0.13928c0 0.11607 0.04643 0.24375 0.13928 0.38304l0.10446 0.05223c0.02176 0.0116 0.04497 0.01741 0.06964 0.01741 1.2768 0.30179 2.6464 0.44107 4.1089 0.41786 0.13928 0 0.41786-0.02322 0.83571-0.06964h0.1741z"/></g><metadata><rdf:RDF><cc:Work rdf:about=""><dc:creator><cc:Agent><dc:title>Noun Project / Chris</dc:title></cc:Agent></dc:creator><dc:title>uss-enterprise-ncc-1701</dc:title><cc:license rdf:resource="http://creativecommons.org/licenses/by-sa/4.0/"/></cc:Work><cc:License rdf:about="http://creativecommons.org/licenses/by-sa/4.0/"><cc:permits rdf:resource="http://creativecommons.org/ns#Reproduction"/><cc:permits rdf:resource="http://creativecommons.org/ns#Distribution"/><cc:requires rdf:resource="http://creativecommons.org/ns#Notice"/><cc:requires rdf:resource="http://creativecommons.org/ns#Attribution"/><cc:permits rdf:resource="http://creativecommons.org/ns#DerivativeWorks"/><cc:requires rdf:resource="http://creativecommons.org/ns#ShareAlike"/></cc:License></rdf:RDF></metadata></svg>