<svg version="1.1" viewBox="0 0 24 24" xmlns="http://www.w3.org/2000/svg" xmlns:cc="http://creativecommons.org/ns#" xmlns:dc="http://purl.org/dc/elements/1.1/" xmlns:rdf="http://www.w3.org/1999/02/22-rdf-syntax-ns#"><title>USS Defiant NX-74205</title><g transform="matrix(.24649 0 0 .24649 -.48079 1.3138)"><path transform="rotate(90 50.634 42)" d="m50.634-6.6832h-4.1015c-1.9973 1.4504-2.9959 5.861-2.9959 13.232l0.07133 10.664c0 1.5455 0.73114 2.7403 2.1934 3.5844s3.0732 1.3137 4.8326 1.4088c1.7357-0.09511 3.3466-0.5647 4.8326-1.4088s2.2291-2.0389 2.2291-3.5844l0.035666-10.664c0.023777-7.3471-0.96296-11.758-2.9602-13.232zm-15.051 62.379c-0.71331 0-1.07 0.35665-1.07 1.07 0 0.68953 0.35665 1.0343 1.07 1.0343 0.68953 0 1.0343-0.34476 1.0343-1.0343 0-0.71331-0.34476-1.07-1.0343-1.07zm0.28532 3.1742c-0.68953 0-1.0343 0.34476-1.0343 1.0343 0 0.71331 0.34476 1.07 1.0343 1.07 0.68953 0 1.0343-0.35665 1.0343-1.07 0-0.68953-0.34476-1.0343-1.0343-1.0343zm0.32099 3.1385c-0.71331 0-1.07 0.35665-1.07 1.07 0 0.68953 0.35665 1.0343 1.07 1.0343 0.68953 0 1.0343-0.34476 1.0343-1.0343 0-0.71331-0.34476-1.07-1.0343-1.07zm0.28532 3.1742c-0.68953 0-1.0343 0.34476-1.0343 1.0343 0 0.68953 0.34476 1.0343 1.0343 1.0343s1.0343-0.34476 1.0343-1.0343c0-0.68953-0.34476-1.0343-1.0343-1.0343zm29.246-9.487c-0.68953 0-1.0343 0.35665-1.0343 1.07 0 0.68953 0.34476 1.0343 1.0343 1.0343 0.68953 0 1.0343-0.34476 1.0343-1.0343 0-0.71331-0.34476-1.07-1.0343-1.07zm-0.28532 3.1742c-0.71331 0-1.07 0.34476-1.07 1.0343 0 0.71331 0.35665 1.07 1.07 1.07 0.68953 0 1.0343-0.35665 1.0343-1.07 0-0.68953-0.34476-1.0343-1.0343-1.0343zm-0.32099 3.1385c-0.68953 0-1.0343 0.35665-1.0343 1.07 0 0.68953 0.34476 1.0343 1.0343 1.0343 0.71331 0 1.07-0.34476 1.07-1.0343 0-0.71331-0.35665-1.07-1.07-1.07zm-0.28532 3.1742c-0.71331 0-1.07 0.34476-1.07 1.0343 0 0.68953 0.35665 1.0343 1.07 1.0343 0.68953 0 1.0343-0.34476 1.0343-1.0343 0-0.68953-0.34476-1.0343-1.0343-1.0343zm-18.546-40.623v1.1056h-1.7119v1.9616l-5.1358-0.03566v-1.1413l3.7092-1.8903zm8.738 0h3.1385l3.7092 1.8903v1.1413l-5.1358 0.03566v-1.9616h-1.7119zm-6.7051 42.977h-5.4211v1.2483h5.4211zm-5.6351-0.42798h6.0631v7.0261h-6.2414v-7.0261zm5.6351 5.3855h-5.4211v1.2126h5.4211zm0-1.6406h-5.4211v1.2126h5.4211zm0-1.6406h-5.4211v1.2126h5.4211zm4.4225-2.1043h6.0631v7.0261h-6.2771v-7.0261zm5.6351 5.3855h-5.4211v1.2126h5.4211zm0-1.6406h-5.4211v1.2126h5.4211zm0-1.6406h-5.4211v1.2126h5.4211zm0-1.6763h-5.4211v1.2483h5.4211zm-13.695-7.2044c-1.6406-0.28532-3.0791-0.96296-4.3155-2.0329v3.8875h4.3155zm11.698-0.39232c1.7357-0.28532 3.2812-1.0462 4.6365-2.2826l0.35665-0.32099v5.2428h-5.1358v-1.6049h-11.163v1.6049h-5.1358v-5.2428l0.35665 0.32099c1.3315 1.2364 2.8651 1.9973 4.6008 2.2826h0.17833v0.60631h11.163v-0.60631zm4.5652-1.6406c-1.3077 1.0937-2.7462 1.7714-4.3155 2.0329v1.8546h4.3155zm-10.307-24.716c3.7805 0 6.9904 1.3196 9.6296 3.9588 2.663 2.7106 3.9945 5.9204 3.9945 9.6296 0 0.54687-0.03567 1.07-0.107 1.5693 0 0.09511-0.01189 0.17833-0.03567 0.24966 0-0.04755-0.07133 0.36854-0.21399 1.2483l-3.5309 30.743-0.03567 0.17833h-0.17833l-5.8491-0.03566h-0.10699l-0.071331-0.107-1.4979-2.7819-1.9616 0.14266h-0.035665l-1.9973-0.14266-1.4623 2.7819-0.07133 0.107h-0.107l-5.8491 0.03566h-0.17833l-0.03567-0.17833-3.5309-30.743-0.07133-0.21399c-0.02378-0.07133-0.03566-0.14266-0.03566-0.21399 0-0.07133-0.02378-0.2021-0.07133-0.39232-0.11888-0.83219-0.17833-1.5812-0.17833-2.2469 0-3.7092 1.3315-6.9191 3.9945-9.6296 2.6392-2.6392 5.8372-3.9588 9.594-3.9588zm0 0.39232c-3.6141 0-6.717 1.2958-9.3086 3.8875-2.5679 2.5679-3.8519 5.6708-3.8519 9.3086 0 0.68953 0.05944 1.4028 0.17833 2.1399 0 0.09511 0.02378 0.23777 0.07133 0.42798 0.04755 0.19021 0.07133 0.32099 0.07133 0.39232v0.03567l3.5309 30.565 5.5281-0.03567 1.4979-2.7819 0.07133-0.14266 0.14266 0.03567 2.0686 0.14266 2.1043-0.14266 0.14266-0.03567 0.07133 0.14266 1.4979 2.7819 5.5281 0.03567 3.4952-30.565v-0.03567c0.07133-0.28532 0.15455-0.68953 0.24966-1.2126 0-0.09511 0.01189-0.16644 0.03566-0.21399 0.04755-0.66575 0.07133-1.177 0.07133-1.5336 0-3.6141-1.2958-6.717-3.8875-9.3086-2.5917-2.5917-5.6946-3.8875-9.3086-3.8875zm0 10.272c0.49931 0 0.95108 0.3091 1.3553 0.9273 0.33288 0.64198 0.49931 1.3315 0.49931 2.0686 0 0.76086-0.16644 1.4504-0.49931 2.0686-0.40421 0.59442-0.85597 0.89163-1.3553 0.89163-0.52309 0-0.96296-0.29721-1.3196-0.89163-0.33288-0.54687-0.49931-1.2364-0.49931-2.0686 0-0.80841 0.16644-1.4979 0.49931-2.0686 0.33288-0.6182 0.77275-0.9273 1.3196-0.9273zm0 0.46365c-0.38043 0-0.70142 0.22588-0.96296 0.67764-0.28532 0.54687-0.42798 1.1651-0.42798 1.8546 0 0.71331 0.14266 1.3315 0.42798 1.8546 0.26155 0.45176 0.58253 0.67764 0.96296 0.67764 0.35665 0 0.68953-0.22588 0.99863-0.67764 0.28532-0.52309 0.42798-1.1413 0.42798-1.8546 0-0.68953-0.14266-1.3077-0.42798-1.8546-0.3091-0.45176-0.64198-0.67764-0.99863-0.67764zm0 2.3182c0.26154 0 0.52309 0.107 0.78464 0.32099 0.21399 0.21399 0.32099 0.47554 0.32099 0.78464 0 0.33288-0.107 0.58253-0.32099 0.74897-0.21399 0.21399-0.47554 0.32099-0.78464 0.32099-0.28532 0-0.53498-0.107-0.74897-0.32099-0.21399-0.16644-0.32099-0.4161-0.32099-0.74897 0-0.3091 0.107-0.57064 0.32099-0.78464 0.23777-0.21399 0.48743-0.32099 0.74897-0.32099zm0 0.42798c-0.11888 0-0.27344 0.07133-0.46365 0.21399-0.11888 0.11888-0.17833 0.27343-0.17833 0.46365 0 0.19021 0.05944 0.34476 0.17833 0.46365 0.14266 0.14266 0.29721 0.21399 0.46365 0.21399 0.19021 0 0.35665-0.07133 0.49931-0.21399 0.11888-0.11888 0.17833-0.27344 0.17833-0.46365 0-0.19022-0.05944-0.34476-0.17833-0.46365-0.19022-0.14266-0.35665-0.21399-0.49931-0.21399zm0-9.8436c2.6155 0 4.8743 0.9273 6.7764 2.7819 1.8784 1.9259 2.8176 4.1847 2.8176 6.7764 0 2.6155-0.93919 4.8743-2.8176 6.7764-1.9022 1.8546-4.161 2.7819-6.7764 2.7819s-4.8624-0.9273-6.7407-2.7819c-1.8784-1.8784-2.8176-4.1372-2.8176-6.7764s0.93919-4.898 2.8176-6.7764c1.8784-1.8546 4.1253-2.7819 6.7407-2.7819zm0 0.39232c-2.4728 0-4.6246 0.90352-6.4554 2.7106-1.7833 1.7833-2.6749 3.9351-2.6749 6.4554s0.89163 4.6722 2.6749 6.4554c1.7833 1.7833 3.9351 2.6749 6.4554 2.6749 2.5441 0 4.7078-0.89163 6.4911-2.6749 1.7833-1.7833 2.6749-3.9351 2.6749-6.4554s-0.89163-4.6722-2.6749-6.4554c-1.8546-1.807-4.0183-2.7106-6.4911-2.7106zm0 3.6379c1.5217 0 2.8176 0.54687 3.8875 1.6406 1.0937 1.07 1.6406 2.3658 1.6406 3.8875 0 1.5455-0.54687 2.8413-1.6406 3.8875-1.07 1.0937-2.3658 1.6406-3.8875 1.6406-1.4979 0-2.7938-0.54687-3.8875-1.6406-1.07-1.07-1.6049-2.3658-1.6049-3.8875s0.53498-2.8176 1.6049-3.8875c1.0937-1.0937 2.3896-1.6406 3.8875-1.6406zm0 0.42798c-1.3791 0-2.5679 0.49931-3.5665 1.4979-0.99863 0.99863-1.4979 2.1994-1.4979 3.6022 0 1.4028 0.49932 2.6036 1.4979 3.6022 0.99863 0.97485 2.1875 1.4623 3.5665 1.4623 1.3791 0 2.5798-0.48743 3.6022-1.4623 0.99863-0.99863 1.4979-2.1994 1.4979-3.6022 0-1.4028-0.49931-2.6036-1.4979-3.6022-0.99863-0.99863-2.1994-1.4979-3.6022-1.4979zm16.406 27.106 17.369 1.3553 4.8148-32.42-17.94-3.8875zm-32.776 0-4.2442-34.952-17.975 3.8875 4.8505 32.42zm23.896-62.664v0.035666l-0.03567 10.664v0.21399c-0.04755 0.40421-0.14266 0.84408-0.28532 1.3196-0.21399 0.47554-0.43987 0.84408-0.67764 1.1056-1.3791 1.7119-3.5428 2.6392-6.4911 2.7819h-0.28533l-1.4979-0.214c-0.33288-0.071331-0.80841-0.2021-1.4266-0.39232-2.8532-0.99863-4.2798-2.6036-4.2798-4.8148l-0.035665-10.664v-0.035666l-0.71331 0.035665-0.46365 1.0343c-2.4966 0.9273-4.8505 2.342-7.0617 4.2442v12.626h-7.7037c-0.11888 0.71331-0.17833 1.3315-0.17833 1.8546l-0.24966 8.203 3.1385-0.67764 0.46365-0.107 0.07133 0.46365 4.2442 34.952 0.03567 0.42798-0.42798 0.03566-3.8519 0.28532 0.74897 6.2771 2.4252 0.39232c-0.11888 2.1637 0.23777 4.0064 1.07 5.5281l0.46365 4.4938 0.85597 0.24966h29.246l0.85597-0.24966 0.49931-4.4938c0.80841-1.5693 1.1651-3.412 1.07-5.5281l2.4252-0.39232 0.71331-6.2771-3.8162-0.28532-0.42798-0.03566 0.03567-0.42798 4.2442-34.952 0.07133-0.46365 0.42798 0.107 3.1385 0.67764-0.21399-8.203c-0.02378-0.33288-0.08322-0.95108-0.17833-1.8546h-7.7394v-12.626c-2.2588-1.9259-4.6008-3.3407-7.0261-4.2442l-0.49932-1.0343zm6.4554 80.746h-27.926v1.4623l0.39232 1.9616 4.9931-0.07133 1.3196-1.0343 7.2401 0.03567 7.2757-0.03567 1.3196 1.0343 4.9931 0.07133 0.39232-1.9616zm-37.306-63.235h7.1687v-11.77c-3.9232 3.5903-6.3128 7.5135-7.1687 11.77zm39.482-11.77v11.77h7.2044c-0.9273-4.3274-3.3288-8.2506-7.2044-11.77z"/></g><metadata><rdf:RDF><cc:Work rdf:about=""><dc:creator><cc:Agent><dc:title>Noun Project / Chris</dc:title></cc:Agent></dc:creator><dc:title>uss-defiant-nx-74205</dc:title><cc:license rdf:resource="http://creativecommons.org/licenses/by-sa/4.0/"/></cc:Work><cc:License rdf:about="http://creativecommons.org/licenses/by-sa/4.0/"><cc:permits rdf:resource="http://creativecommons.org/ns#Reproduction"/><cc:permits rdf:resource="http://creativecommons.org/ns#Distribution"/><cc:requires rdf:resource="http://creativecommons.org/ns#Notice"/><cc:requires rdf:resource="http://creativecommons.org/ns#Attribution"/><cc:permits rdf:resource="http://creativecommons.org/ns#DerivativeWorks"/><cc:requires rdf:resource="http://creativecommons.org/ns#ShareAlike"/></cc:License></rdf:RDF></metadata></svg>