<svg enable-background="new 0 0 100 100" version="1.1" viewBox="0 0 24 24" xmlns="http://www.w3.org/2000/svg" xmlns:cc="http://creativecommons.org/ns#" xmlns:dc="http://purl.org/dc/elements/1.1/" xmlns:rdf="http://www.w3.org/1999/02/22-rdf-syntax-ns#"><title>USS Enterprise NCC-1701-B</title><switch transform="matrix(.30353 0 0 .30353 -3.1769 -5.2544)"><g><path d="m87.281 43.959c-0.041-0.037-0.095-0.047-0.142-0.071-0.124-0.132-0.292-0.219-0.486-0.219h-0.33l-8.691-1.827-1.821-1.819c-0.126-0.126-0.298-0.198-0.477-0.198h-7.938c-0.186 0-0.362 0.076-0.49 0.211l-1.693 1.788-9.529 1.859c-0.125 0.024-0.237 0.09-0.331 0.177-5e-3 5e-3 -0.013 5e-3 -0.019 0.011-1e-3 2e-3 -2e-3 2e-3 -2e-3 2e-3l-1.864 1.904c-0.047 0.05-0.061 0.116-0.091 0.174-2.699 0.665-3.986 2.41-4.054 4.192-1e-3 0.013-0.013 0.019-0.013 0.032 0 8e-3 8e-3 0.01 8e-3 0.019-1e-3 0.034-0.012 0.068-0.012 0.103 0 0.356-0.087 0.612-0.268 0.781-0.286 0.269-0.787 0.279-1.002 0.29-7.317 0-13.477 0.121-18.383 0.353l-0.141-0.704 14.711-3e-3c3e-3 0 4e-3 3e-3 7e-3 3e-3s4e-3 -3e-3 6e-3 -3e-3h0.05c1.531-0.129 4.424-1.273 4.424-4.683 0-3.423-2.908-4.48-4.445-4.562-9e-3 0-0.019 2e-3 -0.029 2e-3 -2e-3 0-4e-3 -2e-3 -6e-3 -2e-3h-23.247c-0.105 0-0.208 0.023-0.302 0.071l-3.86 1.93c-1.106 0.066-2.728 0.591-3.667 1.999-5e-3 5e-3 -7e-3 0.013-0.012 0.018-0.432 0.657-0.73 1.482-0.73 2.568 0 1.326 0.406 2.389 1.205 3.153 1.331 1.274 3.258 1.203 3.345 1.208 0.057-2e-3 0.115-0.013 0.17-0.029l4.969-1.529 0.236 1.086c-3.661 0.396-5.101 0.841-5.65 1.239-2.79 0.158-3.967 2.352-4.302 3.916h-1.243c-0.273 0-0.52 0.164-0.624 0.417s-0.048 0.543 0.146 0.736l1.904 1.906c0.126 0.126 0.298 0.198 0.477 0.198h17.578c5.317 0 9.056 5.397 9.094 5.453 0.125 0.185 0.335 0.295 0.558 0.295h15.619c0.26 0 0.497-0.15 0.609-0.382l3.711-7.742 4.037-6.127c2.139 0.427 4.513 0.686 7.076 0.686 0.052 0 0.099-5e-3 0.152-5e-3 0.01 0 0.02 5e-3 0.032 5e-3 0.044 0 0.08-0.011 0.126-0.011 8.193-0.063 14.677-2.51 15.699-5.903h1.527c0.281 0 0.533-0.174 0.631-0.438 0.099-0.261 0.025-0.559-0.186-0.743zm-42.376 4.274v-4.996c0.944 0.237 2.456 0.944 2.456 3.093 0 2.141-1.537 2.908-2.456 3.183zm28.963-7.058h1.187l0.596 0.596h-1.782v-0.596zm-1.868 0h0.518v0.598h-0.518zm-1.868 0h0.518v0.601h-0.518zm-2.446 0h1.096v0.604h-1.667zm-2.13 1.943 11.583-0.016 2.676 0.567h-17.064zm-32.362 9.809c4.06-0.134 8.823-0.203 14.167-0.211v2.444h-4.496v-1.012c0-0.372-0.302-0.675-0.675-0.675h-3.834c-0.373 0-0.675 0.303-0.675 0.675v1.012h-4.488v-2.233zm8.322 1.896v0.337h-2.484v-0.337zm2.039-5.157h-10.644c0.123-0.229 0.215-0.48 0.269-0.757h10.375zm0-6.358v0.446h-1.76zm-22.412-0.19h17.663l-2.515 0.636h-16.419zm-6.829 6.226h-0.397c-0.082-0.306-0.156-0.617-0.156-0.989 0-0.585 0.129-1.039 0.303-1.432h0.25zm3.375 5.126c0.373-0.169 1.551-0.543 4.936-0.896l0.833 3.826h-5.769zm-1.35 0.443v2.486h-2.548c0.243-0.862 0.902-2.181 2.548-2.486zm-3.015 4.392-0.555-0.556h10.981l0.122 0.556zm11.928 0-1.989-9.152c-0.04-0.185-0.155-0.346-0.319-0.44-0.162-0.095-0.354-0.113-0.54-0.063l-5.575 1.717c-0.279-5e-3 -1.277-0.09-2.05-0.672h0.209c0.373 0 0.675-0.303 0.675-0.675v-1.21h8.535l3.523 10.497h-2.469zm3.892 0-3.523-10.497h3.038c0.373 0 0.675-0.303 0.675-0.675s-0.302-0.675-0.675-0.675h-12.995v-1.21c0-0.3-0.22-0.511-0.492-0.599 0.802-0.482 1.676-0.54 1.842-0.545h26.542v2.455h-10.99c-0.373 0-0.675 0.303-0.675 0.675 0 0.457-0.115 0.805-0.342 1.028-0.353 0.354-0.901 0.359-0.928 0.359h-1.943c-0.202 0-0.395 0.089-0.522 0.248-0.06 0.071-0.04 0.172-0.065 0.259-0.027 0.074-0.088 0.132-0.088 0.213 0 0.021 0.02 0.032 0.022 0.053 1e-3 0.013-0.012 0.021-9e-3 0.034l1.781 8.878h-0.653zm7.198-0.401h22.072l-0.238 0.499h-19.82c-0.373 0-0.675 0.303-0.675 0.675s0.302 0.675 0.675 0.675h19.172l-0.239 0.498h-17.059c-0.373 0-0.675 0.303-0.675 0.675s0.302 0.675 0.675 0.675h16.412l-0.236 0.493h-13.947c-0.373 0-0.675 0.303-0.675 0.675s0.302 0.675 0.675 0.675h13.299l-0.291 0.609h-14.848c-0.883-1.181-4.409-5.381-9.433-5.69l-1.264-6.302c0.616-0.029 1.267-0.056 1.922-0.079v2.853c0 0.372 0.302 0.675 0.675 0.675h15.517c0.373 0 0.675-0.303 0.675-0.675v-3.067c5.296 0.259 8.527 3.328 9.753 4.786h-22.122c-0.373 0-0.675 0.303-0.675 0.675s0.302 0.675 0.675 0.675zm25.466-5.497h-2.188c-0.373 0-0.675 0.303-0.675 0.675s0.302 0.675 0.675 0.675h1.299l-1.336 2.025c-1.178-1.463-4.197-4.461-9.268-5.21 0.112-0.19 0.167-0.446 0.227-0.723h3.409c0.373 0 0.675-0.303 0.675-0.675s-0.302-0.675-0.675-0.675h-3.148c0.422-1.263 1.88-2.349 4.55-2.468 0.63 1.861 2.936 3.42 6.257 4.456h-5.716c-0.373 0-0.675 0.303-0.675 0.675s0.302 0.675 0.675 0.675h6.29zm-5.023-6.484h3.413c0.446 0.73 1.646 2.394 3.74 3.776-3.826-0.862-6.39-2.312-7.153-3.776zm5.043 0h3.277c0.348 0.809 1.201 2.586 2.537 3.992-3.059-0.928-4.935-2.813-5.814-3.992zm9.594 4.546c-2.364-0.071-4.091-3.008-4.832-4.545h9.655c-0.847 1.766-2.612 4.466-4.823 4.545zm6.307-4.546h3.26c-0.886 1.168-2.755 3.04-5.78 3.976 1.326-1.402 2.174-3.169 2.52-3.976zm1.234 3.726c2.049-1.374 3.231-3.003 3.672-3.726h3.227c-0.748 1.437-3.206 2.858-6.899 3.726zm-23.408-5.076 0.543-0.554h30.089l0.336 0.071 0.548 0.482h-31.516z"/></g></switch><metadata><rdf:RDF><cc:Work rdf:about=""><dc:creator><cc:Agent><dc:title>Noun Project / Chris</dc:title></cc:Agent></dc:creator><dc:title>uss-enterprise-ncc-1701-b</dc:title><cc:license rdf:resource="http://creativecommons.org/licenses/by-sa/4.0/"/></cc:Work><cc:License rdf:about="http://creativecommons.org/licenses/by-sa/4.0/"><cc:permits rdf:resource="http://creativecommons.org/ns#Reproduction"/><cc:permits rdf:resource="http://creativecommons.org/ns#Distribution"/><cc:requires rdf:resource="http://creativecommons.org/ns#Notice"/><cc:requires rdf:resource="http://creativecommons.org/ns#Attribution"/><cc:permits rdf:resource="http://creativecommons.org/ns#DerivativeWorks"/><cc:requires rdf:resource="http://creativecommons.org/ns#ShareAlike"/></cc:License></rdf:RDF></metadata></svg>