<svg enable-background="new 0 0 100 100" version="1.1" viewBox="0 0 24 24" xmlns="http://www.w3.org/2000/svg" xmlns:cc="http://creativecommons.org/ns#" xmlns:dc="http://purl.org/dc/elements/1.1/" xmlns:rdf="http://www.w3.org/1999/02/22-rdf-syntax-ns#"><title>USS Enterprise NCC-1701</title><path d="m18.356 5.3896c-2.6037 0-4.7926 1.7613-5.444 4.1544l-1.6069 0.1725c-0.23489 0.01653-0.4799 0.04159-0.72279 0.07758l-0.43698 0.04692-1.9431-1.9951s3.3321 0.0021 3.3388 0.0021c0.39646 0 0.71772-0.32074 0.71772-0.71639 0-0.38472-0.30474-0.69613-0.686-0.71319-0.0168-0.0024-11.014 0.25862-11.014 0.25862v0.0029c-0.31114 0.01607-0.55909 0.26882-0.55909 0.58156 0 0.31247 0.24795 0.56549 0.55909 0.58148v0.0029h5.2195l3.0018 2.1414s-2.4883 0.27275-2.4955 0.27834c-0.34393 0.09305-0.59828 0.40365-0.59828 0.77638 0 0.37726 0.26022 0.69133 0.61028 0.78011 5.33e-4 5.34e-4 0.0037 0.0035 0.0037 0.0035l2.435 0.26128-3.0037 2.1436h-5.1726v0.0029c-0.31114 0.01573-0.55909 0.26875-0.55909 0.58148 0 0.31274 0.24795 0.56549 0.55909 0.58148v0.0029s10.982 0.26368 10.99 0.26315c0.39246-0.0045 0.70946-0.3226 0.70946-0.71559 0-0.39565-0.32127-0.71639-0.71772-0.71639-0.0037 0-0.0072 0.0011-0.01093 0.0011-0.0024 0-3.3607-0.0011-3.3607-0.0011l1.9431-1.9951 2.8088 0.30154c0.66307 2.3753 2.8432 4.1194 5.4344 4.1194 3.117 0 5.6439-2.5222 5.6439-5.6333 0-3.1111-2.527-5.6335-5.6439-5.6335z" stroke-width=".26661"/><metadata><rdf:RDF><cc:Work rdf:about=""><dc:creator><cc:Agent><dc:title>Noun Project / Mark Hammar</dc:title></cc:Agent></dc:creator><dc:title>uss-enterprise-ncc-1701-solid</dc:title><cc:license rdf:resource="http://creativecommons.org/licenses/by-sa/4.0/"/></cc:Work><cc:License rdf:about="http://creativecommons.org/licenses/by-sa/4.0/"><cc:permits rdf:resource="http://creativecommons.org/ns#Reproduction"/><cc:permits rdf:resource="http://creativecommons.org/ns#Distribution"/><cc:requires rdf:resource="http://creativecommons.org/ns#Notice"/><cc:requires rdf:resource="http://creativecommons.org/ns#Attribution"/><cc:permits rdf:resource="http://creativecommons.org/ns#DerivativeWorks"/><cc:requires rdf:resource="http://creativecommons.org/ns#ShareAlike"/></cc:License></rdf:RDF></metadata></svg>