<?xml version="1.0" encoding="UTF-8"?><svg version="1.1" viewBox="0 0 24 24" xmlns="http://www.w3.org/2000/svg" xmlns:cc="http://creativecommons.org/ns#" xmlns:dc="http://purl.org/dc/elements/1.1/" xmlns:rdf="http://www.w3.org/1999/02/22-rdf-syntax-ns#"><title>USS Voyager NCC-74656</title><g transform="matrix(.2449 0 0 .2449 -.17331 6.2534)"><path transform="rotate(90 49.708 23)" d="m33.662 40.303h0.46667c0.43077 0.83761 0.63419 1.759 0.61026 2.7641h-1.0769zm-1.8308 0v2.7641h-1.0769c-0.07179-0.93333 0.11966-1.8547 0.57436-2.7641zm-1.5436 5.4205v2.2256c0.14359-0.40684 0.27521-0.86154 0.39487-1.3641 0-0.0718 0.01197-0.14957 0.0359-0.23333 0.0231-0.08376 0.04703-0.16154 0.07179-0.23333 0-0.0718 6e-3 -0.13761 0.01795-0.19744 0.01197-0.05983 0.02992-0.12564 0.05385-0.19744zm28.503 4.0564v14.323l0.25128-0.0359v-14.287zm-18.164 14.323v-14.323h-0.21538v14.287zm-5.1692-3.5897 1.2564 0.93333 0.0359-6.4615c0.02301-0.45463 0.26232-0.76574 0.71795-0.93333 0.23931-0.04786 0.43077-0.05983 0.57436-0.0359 0.19145 0 0.39487 0.0359 0.61026 0.10769 0.74188 0.33504 1.1128 0.82564 1.1128 1.4718v8.1487l0.39487 0.28718v-14.251l-4.7026-2.1897zm-2.0821-21.359h-1.2564c-0.50256 0-0.93333 0.43077-1.2923 1.2923-0.35897 0.86154-0.53846 1.5436-0.53846 2.0462v1.3282h0.43077c0.19145 0 0.28718 0.08376 0.28718 0.25128v0.50256c0 0.19145-0.09572 0.28718-0.28718 0.28718h-0.43077v0.61026h0.82564v0.14359c0 0.11966-0.02393 0.29914-0.0718 0.53846-0.02393 0.09573-0.04786 0.18547-0.07179 0.26923s-0.0359 0.16154-0.0359 0.23333c-0.14359 0.74178-0.35897 1.376-0.64615 1.9026v17.087c0 1.2444 0.61026 1.8667 1.8308 1.8667h1.2564c1.2205 0 1.8308-0.62222 1.8308-1.8667v-20.785h-0.43077c-0.19146 0-0.28718-0.09573-0.28718-0.28718v-0.50256c0-0.16752 0.09572-0.25128 0.28718-0.25128h0.43077v-1.3282c0-0.50256-0.17949-1.1846-0.53846-2.0462-0.35898-0.86154-0.78974-1.2923-1.2923-1.2923zm32.415 1.1487v2.7641h-1.0769c-0.04786-1.0051 0.14359-1.9265 0.57436-2.7641zm1.8308 0h0.50256c0.40401 0.83761 0.59546 1.759 0.57436 2.7641h-1.0769zm1.5436 5.4205h-0.57436c0 0.07179 0.02393 0.20342 0.0718 0.39487 0 0.11966 0.02393 0.27521 0.07179 0.46667 0.07179 0.38289 0.21538 0.8376 0.43077 1.3641zm-5.2051 14.79v-12.923l-4.6667 2.1897v14.251l0.35897-0.28718v-8.1487c0-0.64615 0.38291-1.1368 1.1487-1.4718 0.21538-0.0718 0.41881-0.10769 0.61026-0.10769 0.11901-0.02393 0.31046-0.01197 0.57436 0.0359 0.4547 0.16752 0.68205 0.47863 0.68205 0.93333l0.07179 6.4615zm2.1179-21.359c-0.50256 0-0.93932 0.43077-1.3103 1.2923-0.37094 0.86154-0.55641 1.5436-0.55641 2.0462v1.3282h0.46667c0.16752 0 0.25128 0.08376 0.25128 0.25128v0.50256c0 0.19145-0.08376 0.28718-0.25128 0.28718h-0.46667v20.785c0 1.2444 0.62222 1.8667 1.8667 1.8667h1.2205c1.2444 0 1.8667-0.62222 1.8667-1.8667v-17.087c-0.31112-0.5265-0.5265-1.1607-0.64615-1.9026-0.02393-0.02393-0.05983-0.19145-0.10769-0.50256-0.04786-0.23932-0.0718-0.4188-0.0718-0.53846l-0.0359-0.14359h0.86154v-0.61026h-0.46667c-0.16752 0-0.25128-0.09573-0.25128-0.28718v-0.50256c0-0.16752 0.08376-0.25128 0.25128-0.25128h0.46667v-1.3282c0-0.50256-0.18547-1.1846-0.55641-2.0462-0.37093-0.86154-0.80768-1.2923-1.3102-1.2923zm-27.426 24.554 0.43077 0.25128v-1.3641l-0.43077-0.17949zm-0.50256-0.32308 0.35897 0.21538v-1.2564l-0.35897-0.17949zm-0.53846-0.32308 0.35898 0.21538v-1.1487l-0.35898-0.17949zm-0.68205-1.3641v0.96923l0.50256 0.32308v-1.1128zm2.5846-6.1026c0-0.69402-0.4188-1.1248-1.2564-1.2923-0.83761-0.16759-1.2564 0.05976-1.2564 0.68205l-0.0359 6.5333 2.2256 0.93333 0.0359 0.0359v1.5436l0.28718 0.17949zm21.251 8.1128v-1.2923l-0.43077 0.17949v1.3641zm0.53846-0.32308v-1.2205l-0.39487 0.17949v1.2564zm0.53846-0.32308v-1.1128l-0.39487 0.17949v1.1487zm0.64615-1.3641-0.50256 0.17949v1.1128l0.53846-0.32308zm-2.5846-6.1026v8.6154l0.32308-0.17949h-0.0359v-1.5436l0.0359-0.0359 2.2615-0.93333-0.0718-6.5333c0-0.62222-0.41881-0.84957-1.2564-0.68205s-1.2564 0.59829-1.2564 1.2923zm-10.195-81.595c-5.4324 0-10.075 3.3444-13.928 10.033-3.853 6.6889-5.7795 14.736-5.7795 24.141 0 1.8188 0.09573 3.6974 0.28718 5.6359 0.04787 3.7812 1.4479 7.7179 4.2 11.81 1.053 1.6034 2.2615 3.0752 3.6256 4.4154 1.3641 1.3402 2.5487 2.8 3.5538 4.3795v0.0359c0.28718 0.3829 0.47863 0.68205 0.57436 0.89744 0.28718 0.47863 0.55043 1.0769 0.78974 1.7949l-0.14359 0.0359c-0.26325-0.67009-0.51453-1.2564-0.75385-1.759-0.16752-0.23932-0.32308-0.46667-0.46667-0.68205 0.40684 12.612 1.9265 23.668 4.559 33.169 0.02393-3.4462 0.96923-5.1573 2.8359-5.1333h1.3282c1.8188-0.02394 2.7641 1.6872 2.8359 5.1333 2.5846-9.4051 4.0923-20.474 4.5231-33.205-0.07179 0.14359-0.14359 0.26923-0.21538 0.37692-0.07179 0.10769-0.14359 0.22137-0.21538 0.34103-0.19145 0.35897-0.4547 0.9453-0.78974 1.759l-0.14359-0.0359c0.28718-0.76581 0.55042-1.3641 0.78974-1.7949 0.19145-0.35897 0.39487-0.65812 0.61026-0.89744v-0.0359c0.98119-1.5795 2.1538-3.0393 3.5179-4.3795 1.3641-1.3402 2.5846-2.812 3.6615-4.4154 2.7282-4.0923 4.1282-8.0291 4.2-11.81 0.16752-1.6991 0.25128-3.5778 0.25128-5.6359 0-9.4051-1.9265-17.452-5.7795-24.141-3.853-6.6889-8.4957-10.033-13.928-10.033zm1.9026 12.062-1.1846-3.2667h-1.4l-1.1846 3.2667 1.2205 7.6103h1.3282zm-1.0051-3.4462 1.2564 3.3744v0.0718l-1.2564 7.7538v0.10769h-1.759l-0.0359-0.10769-1.2205-7.7538-0.0359-0.0359 0.0359-0.0359 1.2205-3.3744 0.0359-0.0718h1.759zm2.5846 4.7744c-0.19145-0.07179-0.23932-0.20342-0.14359-0.39487 0.11966-0.14359 0.26324-0.19145 0.43077-0.14359 1.0769 0.57436 2.0581 1.3043 2.9436 2.1897 0.86154 0.88484 1.6393 1.9139 2.3333 3.0872 1.7231 2.9436 2.8359 6.5872 3.3385 10.931 0.50256 4.3436 0.47863 8.7769-0.0718 13.3 0 0.23932-0.10769 0.32308-0.32308 0.25128-0.21538-0.02393-0.29914-0.13162-0.25128-0.32308 0.5265-4.4752 0.54445-8.8427 0.05385-13.103-0.48995-4.2598-1.5729-7.8496-3.2487-10.769-0.69401-1.1487-1.4479-2.1299-2.2615-2.9436-0.81368-0.83632-1.747-1.5303-2.8-2.0821zm8.7949 39.595c0.14359-0.14359 0.27522-0.15556 0.39487-0.0359 0.14359 0.11966 0.15555 0.26325 0.0359 0.43077l-2.5487 3.0872c-0.14359 0.16752-0.27522 0.17949-0.39487 0.0359-0.16753-0.094441-0.19146-0.22606-0.071797-0.39487zm-24.985 0.39487c-0.11966-0.14359-0.10769-0.28718 0.0359-0.43077 0.14359-0.09572 0.28718-0.08376 0.43077 0.0359l2.5487 3.1231c0.11966 0.14359 0.10769 0.27521-0.0359 0.39487-0.16752 0.16752-0.31111 0.15556-0.43077-0.0359zm8.9744-40.528c0.14359-0.07179 0.28718-0.02393 0.43077 0.14359 0.0718 0.19145 0.02393 0.32308-0.14359 0.39487h-0.0359c-1.0769 0.57436-1.9983 1.2684-2.7641 2.0821-0.83761 0.81368-1.5915 1.7949-2.2615 2.9436-1.6991 2.9197-2.794 6.5094-3.2846 10.769-0.4906 4.2598-0.46069 8.6274 0.08974 13.103 0.02582 0.19146-0.05794 0.29915-0.25128 0.32308-0.21538 0.0718-0.32308-0.01197-0.32308-0.25128-0.57436-4.5231-0.61026-8.9564-0.10769-13.3 0.50256-4.3436 1.6274-7.9872 3.3744-10.931 0.64615-1.1727 1.4239-2.2017 2.3333-3.0872 0.78974-0.83632 1.7709-1.5662 2.9436-2.1897zm4.559 22.831h-2.0462c-0.0718 0-0.11966 0.011967-0.14359 0.035897-0.26325 0.071795-0.46667 0.26325-0.61026 0.57436-0.14359 0.28718-0.21538 0.62222-0.21538 1.0051 0 0.19145 0.01197 0.33504 0.0359 0.43077l0.0359 0.17949h-0.14359c-1.2205 0-1.9863 0.15556-2.2974 0.46667-0.26325 0.21538-0.40684 0.77778-0.43077 1.6872-0.02393 0.86154 0.47863 1.4718 1.5077 1.8308 0.02286 0 0.08269 0.02393 0.17949 0.07179h0.0718v0.10769l0.10769 2.3333c0.04787 0.83761 0.32308 1.4479 0.82564 1.8308 0.0718 0.09573 0.16752 0.15556 0.28718 0.17949 0.09572 0.04786 0.20342 0.07179 0.32308 0.07179l3.1949 0.14359h0.0359c0.35897-0.02393 0.68205-0.25128 0.96923-0.68205 0.28718-0.40684 0.43077-0.82564 0.43077-1.2564v-0.0718l-0.0359-2.5846v-0.10769l0.07179-0.0359c0.09573-0.02393 0.21538-0.05983 0.35898-0.10769 1.1009-0.45426 1.6513-1.1243 1.6513-2.0103 0-1.1487-0.8735-1.8188-2.6205-2.0103h-0.1077l-0.14359-0.0359 0.0359-0.14359c0.02393-0.09572 0.0359-0.23931 0.0359-0.43077 0-0.40684-0.08376-0.72992-0.25128-0.96923-0.16522-0.26325-0.44044-0.4188-0.82564-0.46667-0.04786-0.02393-0.14359-0.035897-0.28718-0.035897zm-2.0462-0.25128h2.0462c0.14359 0 0.25128 0.011967 0.32308 0.035897 0.43077 0.071795 0.76581 0.26325 1.0051 0.57436 0.19145 0.28718 0.28718 0.65812 0.28718 1.1128 0 0.16752-0.01196 0.28718-0.0359 0.35898 1.8906 0.21538 2.8359 0.96923 2.8359 2.2615 0 1.0291-0.61026 1.7709-1.8308 2.2256l-0.14359 0.0718c-0.04786 0.02393-0.08376 0.0359-0.10769 0.0359l0.0359 2.5128v0.1077c0 0.47863-0.15555 0.9453-0.46667 1.4-0.40683 0.47863-0.80171 0.71795-1.1846 0.71795h-0.0359l-3.1949-0.10769h-0.0359c-0.11966 0-0.25128-0.02393-0.39487-0.07179-0.14359-0.0718-0.26325-0.15556-0.35898-0.25128-0.57436-0.47863-0.8735-1.1487-0.89744-2.0103l-0.10769-2.2616h-0.0718c-1.1487-0.40684-1.7111-1.1009-1.6872-2.0821 0.02184-0.9812 0.18936-1.6154 0.50256-1.9026 0.40684-0.33504 1.1846-0.50256 2.3333-0.50256-0.02393-0.09572-0.0359-0.21538-0.0359-0.35897 0-0.43077 0.08376-0.80171 0.25128-1.1128 0.16752-0.35897 0.4188-0.59829 0.75385-0.71795 0.04787-0.02393 0.11966-0.035897 0.21538-0.035897zm1.2205 1.9026c-0.52649 0-0.9812 0.17949-1.3641 0.53846-0.35898 0.40684-0.53846 0.86154-0.53846 1.3641 0 0.55043 0.17949 1.0051 0.53846 1.3641 0.38263 0.3829 0.83733 0.57436 1.3641 0.57436 0.5265 0 0.98119-0.19145 1.3641-0.57436 0.38291-0.33504 0.57436-0.78974 0.57436-1.3641 0-0.52604-0.19145-0.98074-0.57436-1.3641-0.40684-0.35897-0.86154-0.53846-1.3641-0.53846zm0-0.25128c0.61995 0 1.1345 0.20342 1.5436 0.61026 0.43077 0.43077 0.64615 0.9453 0.64615 1.5436 0 0.59829-0.21538 1.1128-0.64615 1.5436s-0.9453 0.64615-1.5436 0.64615c-0.57436 0-1.0889-0.21538-1.5436-0.64615-0.40684-0.40684-0.61026-0.92137-0.61026-1.5436 0-0.62222 0.20342-1.1368 0.61026-1.5436 0.43077-0.40684 0.9453-0.61026 1.5436-0.61026zm0 1.1128c-0.26325 0-0.50256 0.10769-0.71795 0.32308-0.21538 0.19145-0.32308 0.43077-0.32308 0.71795 0 0.33504 0.10769 0.58633 0.32308 0.75385 0.16696 0.21538 0.40628 0.32308 0.71795 0.32308 0.31111 0 0.5624-0.10769 0.75385-0.32308 0.21538-0.21538 0.32308-0.46667 0.32308-0.75385 0-0.26325-0.10769-0.50256-0.32308-0.71795-0.21538-0.21538-0.46667-0.32308-0.75385-0.32308zm0-0.25128c0.35898 0 0.67009 0.13162 0.93333 0.39487 0.26324 0.26233 0.39487 0.56148 0.39487 0.89744 0 0.35898-0.13163 0.67008-0.39487 0.93333-0.26324 0.26325-0.57436 0.39487-0.93333 0.39487-0.33393 0-0.63307-0.13162-0.89744-0.39487-0.26325-0.21538-0.39487-0.52649-0.39487-0.93333 0-0.35897 0.13162-0.65812 0.39487-0.89744 0.26325-0.26325 0.56239-0.39487 0.89744-0.39487zm1.5077-6.3179h-2.9795c-1.1726 0.047865-2.1419 0.87351-2.9077 2.4769-0.67008 1.3402-1.0171 2.8359-1.041 4.4872v0.10769l0.0359 8.6872c0.52649 1.1966 0.95726 2.6325 1.2923 4.3077 0.23718 1.3162 0.4047 2.8 0.50256 4.4513 0.02393 0.88547 0.05385 1.8368 0.08974 2.8538 0.0359 1.0171 0.08974 2.0641 0.16154 3.141 0.21538 5.5043 0.50256 11.152 0.86154 16.944 0.35898 5.7915 0.96923 8.6872 1.8308 8.6872h1.3282c0.83646 5e-6 1.4407-2.8957 1.8128-8.6872 0.37094-5.7914 0.6641-11.439 0.87949-16.944 0.0718-2.3214 0.14359-4.1641 0.21538-5.5282 0-0.19145 0.01196-0.34701 0.0359-0.46667 0.07179-1.6513 0.23932-3.135 0.50256-4.4513 0.31111-1.6274 0.72991-3.0632 1.2564-4.3077l0.0359-8.6872v-0.10769c0-1.5316-0.33504-3.0273-1.0051-4.4872-0.78975-1.6034-1.759-2.4291-2.9077-2.4769zm-0.10769-0.25128h0.1077c1.2444 0.047799 2.2855 0.9213 3.1231 2.6205 0.69402 1.4838 1.041 3.0154 1.041 4.5949v0.10769l-0.0359 8.7231v0.0359c-0.57436 1.3402-1.0051 2.7641-1.2923 4.2718-0.23932 1.3641-0.39487 2.8479-0.46667 4.4513-0.02393 0.09572-0.0359 0.25128-0.0359 0.46667-0.0718 1.5555-0.14359 3.3982-0.21538 5.5282-0.21538 5.5282-0.52051 11.218-0.91538 17.069-0.39487 5.8513-1.0709 8.7769-2.0282 8.7769h-1.3282c-0.9812 0-1.6632-2.9256-2.0462-8.7769-0.3829-5.8513-0.68205-11.541-0.89744-17.069-0.0718-1.0769-0.12564-2.1239-0.16154-3.141-0.0359-1.0171-0.06581-1.9684-0.08974-2.8538-0.09573-1.6513-0.26325-3.135-0.50256-4.4513-0.33504-1.6274-0.75385-3.0513-1.2564-4.2718l-0.0359-0.0359-0.0359-8.7231v-0.10769c0.02289-1.675 0.3699-3.2066 1.041-4.5949 0.83761-1.6991 1.8786-2.5726 3.1231-2.6205h0.1077zm-1.1487 20.677h-0.46667v5.3128h0.46667zm-0.61026-0.25128h0.86154v5.8154h-0.96923v-5.8154zm0.75385 32.954h-0.86154v-23.944h0.96923v23.944zm-0.61026-0.25128h0.46667v-23.441h-0.46667zm-1.8667-26.6h4.2c0.8376 0.04786 1.2205 0.82564 1.1487 2.3333h-6.5333c-0.09573-1.5077 0.29915-2.2855 1.1846-2.3333zm5.1333 2.0821c-0.09339-1.1966-0.4045-1.8188-0.93333-1.8667-0.71795 0-1.4179 6e-3 -2.1 0.01795-0.68205 0.01197-1.3701 6e-3 -2.0641-0.01795-0.64615 0-0.96923 0.62222-0.96923 1.8667zm-3.9128-57.687c0.0718-0.14359 0.01197 0.02393-0.17949 0.50256h0.82564v0.96923h-1.0769c-0.04787 0.19145-0.0718 0.34701-0.0718 0.46667h1.1487v0.96923h-1.3282c0 0.04786-6e-3 0.09573-0.01795 0.14359-0.01197 0.04786-0.01795 0.08376-0.01795 0.10769-0.02393 0.02393-0.0359 0.07179-0.0359 0.14359v0.0718h1.4v1.0769h0.46667v-1.0769h1.4v-0.0718c-0.02393-0.02394-0.0359-0.0718-0.0359-0.14359-0.02393-0.04786-0.0359-0.13162-0.0359-0.25128h-1.3282v-0.96923h1.1487c-0.04786-0.23932-0.0718-0.39487-0.0718-0.46667h-1.0769v-0.96923h0.82564c-0.09573-0.23932-0.16752-0.40684-0.21538-0.50256h-0.61026v-0.61026c-0.04786-0.02394-0.13163-0.0359-0.25128-0.0359-0.09573 0-0.16752 0.01196-0.21538 0.0359v0.61026zm0.86154 4.7026-0.86154-0.0359h-0.14359c-0.31111-0.0718-0.52649-0.25128-0.64615-0.53846-0.14359-0.23932-0.21538-0.51453-0.21538-0.82564 0-0.09573 0.01197-0.16752 0.0359-0.21538 0.04787-0.14359 0.09573-0.41881 0.14359-0.82564 0.35897-2.106 0.92136-3.159 1.6872-3.159 0.76581 0 1.3402 1.053 1.7231 3.159 0.04786 0.43077 0.09572 0.70599 0.14359 0.82564 0 0.09573 0.01196 0.16752 0.0359 0.21538 0 0.30829-0.0718 0.58351-0.21538 0.82564-0.19145 0.31111-0.41881 0.4906-0.68205 0.53846h-0.14358zm-1.6872 35.251h3.4103v0.25128h-3.4103zm0.71795 55.749h1.9744c0.98119 0 2.0581-0.4547 3.2308-1.3641 1.1727-0.9094 1.7829-2.5966 1.8308-5.0615l2.7641-1.1128v-14.682h-1.6513c-0.78974 6.6769-1.9265 12.744-3.4103 18.2l-0.46667 1.6872-0.0359-1.759c-0.047857-1.7949-0.27521-3.0872-0.68205-3.8769-0.38175-0.67008-1.0159-1.0051-1.9026-1.0051h-1.3282c-0.9094 0-1.5436 0.33504-1.9026 1.0051-0.4547 0.83761-0.68205 2.1299-0.68205 3.8769l-0.0359 1.759-0.46667-1.6872c-0.28718-0.9812-0.62222-2.3094-1.0051-3.9846-0.2622-1.0769-0.56135-2.4889-0.89744-4.2359-0.57436-2.9197-1.0889-6.2462-1.5436-9.9795h-1.6513v14.682l2.8 1.1128c0.02341 2.465 0.6217 4.1521 1.7949 5.0615 1.1727 0.9094 2.2615 1.3641 3.2667 1.3641z"/></g><metadata><rdf:RDF><cc:Work rdf:about=""><dc:creator><cc:Agent><dc:title>Noun Project / Chris</dc:title></cc:Agent></dc:creator><dc:title>uss-voyager-ncc-74656</dc:title><cc:license rdf:resource="http://creativecommons.org/licenses/by-sa/4.0/"/></cc:Work><cc:License rdf:about="http://creativecommons.org/licenses/by-sa/4.0/"><cc:permits rdf:resource="http://creativecommons.org/ns#Reproduction"/><cc:permits rdf:resource="http://creativecommons.org/ns#Distribution"/><cc:requires rdf:resource="http://creativecommons.org/ns#Notice"/><cc:requires rdf:resource="http://creativecommons.org/ns#Attribution"/><cc:permits rdf:resource="http://creativecommons.org/ns#DerivativeWorks"/><cc:requires rdf:resource="http://creativecommons.org/ns#ShareAlike"/></cc:License></rdf:RDF></metadata></svg>
