<svg version="1.1" viewBox="0 0 21.152 24" xmlns="http://www.w3.org/2000/svg" xmlns:cc="http://creativecommons.org/ns#" xmlns:dc="http://purl.org/dc/elements/1.1/" xmlns:rdf="http://www.w3.org/1999/02/22-rdf-syntax-ns#"><title>Vulcan Face</title><path d="m10.605 0c-5.8102 0-8.721 2.9678-8.721 8.3794 0 0.54688 0.033067 1.0114 0.0912 1.4126-0.22176-0.091867-0.43452-0.14095-0.63761-0.14095-0.42791 0-0.81034 0.20588-1.0488 0.5648-0.81512 1.2256 0.35159 4.2616 0.36401 4.2917 0.507 1.2064 1.3891 2.5742 2.4153 3.0771 0.7283 4.41 5.9159 6.4154 7.4991 6.4154 1.5828 0 6.7695-2.0052 7.4987-6.4146 1.0046-0.48399 1.9183-1.7859 2.4614-3.0788 0.012-0.02907 1.1481-3.0497 0.32684-4.2854v2.8e-4c-0.241-0.36269-0.62613-0.57067-1.0573-0.57067-0.20688 0-0.42336 0.050267-0.64991 0.14579 0.07827-0.42231 0.12453-0.89346 0.12453-1.4173 0-6.1935-2.8569-8.3794-8.6663-8.3794zm-5.8366 5.4635c0.81791 0 1.7098 0.69539 5.7989 0.69539 4.0892 0 4.9438-0.69539 5.7989-0.69539 1.1842 0 1.091 3.6964 1.091 7.2989 0.15252-0.08907 0.36549-0.26173 0.59104-0.52163 0.32257 0.1392 0.71026 0.0768 0.97075-0.18995 0.148-0.15155 0.27531-0.26823 0.38293-0.35868-0.05027 0.64238-0.27029 1.6209-0.48728 2.1376l2.8e-4 8e-5c-0.60527 1.4409-1.4406 2.1614-1.6502 2.2042-0.46047 0-0.84218 0.35741-0.87251 0.81691-0.24151 3.6636-4.7426 5.4004-5.825 5.4004-1.0824 0-5.5835-1.7369-5.825-5.4004-0.030267-0.45948-0.38949-0.81534-0.84996-0.81534-0.22555-0.046666-1.0145-0.74719-1.6268-2.2052-0.22152-0.52789-0.44764-1.4795-0.51055-2.1193 0.10253 0.08747 0.22251 0.19856 0.35976 0.33926 0.27209 0.27883 0.68353 0.33317 1.0147 0.16848 0.19273 0.18995 0.38879 0.36003 0.57264 0.54363-0.27504-5.1783-0.026267-7.2989 1.0665-7.2989zm0.035067 2.3008s0.13557 3.1992 3.845 3.7324l0.94698-1.6696c-3.703 0.55774-4.792-2.0628-4.792-2.0628zm4.792 2.0628c2.67e-5 -1.33e-5 4e-5 -2.66e-5 6.67e-5 -2.66e-5l-2.67e-5 -1.34e-5zm6.7354-2.0628s-1.0892 2.6205-4.7922 2.0627l-1.87e-4 -1.33e-5 0.947 1.6697c3.7096-0.53324 3.8454-3.7324 3.8454-3.7324zm-9.1641 4.74c-0.78486 0-1.4211 0.63628-1.4211 1.4211 0 0.78486 0.63627 1.4211 1.4211 1.4211s1.4212-0.63628 1.4212-1.4211c0-0.78484-0.63629-1.4211-1.4212-1.4211zm6.8005 0c-0.78485 0-1.4211 0.63628-1.4211 1.4211 0 0.78486 0.63627 1.4211 1.4211 1.4211 0.78484 0 1.4211-0.63628 1.4211-1.4211 0-0.78484-0.63628-1.4211-1.4211-1.4211z" stroke-width=".02105"/>
<metadata><rdf:RDF><cc:Work rdf:about=""><dc:creator><cc:Agent><dc:title>Noun Project</dc:title></cc:Agent></dc:creator><dc:title>vulcan-face</dc:title><cc:license rdf:resource="http://creativecommons.org/licenses/by-sa/4.0/"/></cc:Work><cc:License rdf:about="http://creativecommons.org/licenses/by-sa/4.0/"><cc:permits rdf:resource="http://creativecommons.org/ns#Reproduction"/><cc:permits rdf:resource="http://creativecommons.org/ns#Distribution"/><cc:requires rdf:resource="http://creativecommons.org/ns#Notice"/><cc:requires rdf:resource="http://creativecommons.org/ns#Attribution"/><cc:permits rdf:resource="http://creativecommons.org/ns#DerivativeWorks"/><cc:requires rdf:resource="http://creativecommons.org/ns#ShareAlike"/></cc:License></rdf:RDF></metadata></svg>